SourceSerif_d2.ufo
<glyph name="exclam" format="2">
	<unicode hex="0021"/>
	<advance width="370"/>
	<outline>
		<contour>
			<point x="186" y="-12" type="curve" smooth="yes"/>
			<point x="236" y="-12"/>
			<point x="276" y="29"/>
			<point x="276" y="78" type="curve" smooth="yes"/>
			<point x="276" y="127"/>
			<point x="236" y="168"/>
			<point x="186" y="168" type="curve" smooth="yes"/>
			<point x="136" y="168"/>
			<point x="96" y="127"/>
			<point x="96" y="78" type="curve" smooth="yes"/>
			<point x="96" y="29"/>
			<point x="136" y="-12"/>
		</contour>
		<contour>
			<point x="212" y="240" type="line"/>
			<point x="234" y="324" type="line" smooth="yes"/>
			<point x="267" y="451"/>
			<point x="280" y="526"/>
			<point x="280" y="564" type="curve" smooth="yes"/>
			<point x="280" y="629"/>
			<point x="243" y="660"/>
			<point x="186" y="660" type="curve"/>
			<point x="129" y="660"/>
			<point x="92" y="629"/>
			<point x="92" y="564" type="curve" smooth="yes"/>
			<point x="92" y="526"/>
			<point x="105" y="451"/>
			<point x="138" y="324" type="curve" smooth="yes"/>
			<point x="160" y="240" type="line"/>
		</contour>
	</outline>
</glyph>
<glyph name="numbersign" format="2">
	<unicode hex="0023"/>
	<advance width="583"/>
	<outline>
		<contour>
			<point x="92" y="0" type="line"/>
			<point x="180" y="0" type="line"/>
			<point x="276" y="640" type="line"/>
			<point x="188" y="640" type="line"/>
		</contour>
		<contour>
			<point x="16" y="264" type="line"/>
			<point x="16" y="160" type="line"/>
			<point x="532" y="160" type="line"/>
			<point x="532" y="264" type="line"/>
		</contour>
		<contour>
			<point x="568" y="376" type="line"/>
			<point x="568" y="480" type="line"/>
			<point x="48" y="480" type="line"/>
			<point x="48" y="376" type="line"/>
		</contour>
		<contour>
			<point x="500" y="640" type="line"/>
			<point x="412" y="640" type="line"/>
			<point x="316" y="0" type="line"/>
			<point x="404" y="0" type="line"/>
		</contour>
	</outline>
</glyph>
<glyph name="dollar" format="2">
	<unicode hex="0024"/>
	<advance width="524"/>
	<outline>
		<contour>
			<point x="236" y="-16" type="curve" smooth="yes"/>
			<point x="390" y="-16"/>
			<point x="484" y="71"/>
			<point x="484" y="188" type="curve" smooth="yes"/>
			<point x="484" y="286"/>
			<point x="427" y="343"/>
			<point x="296" y="392" type="curve" smooth="yes"/>
			<point x="264" y="404" type="line" smooth="yes"/>
			<point x="200" y="428"/>
			<point x="172" y="456"/>
			<point x="172" y="513" type="curve" smooth="yes"/>
			<point x="172" y="576"/>
			<point x="215" y="612"/>
			<point x="280" y="612" type="curve" smooth="yes"/>
			<point x="319" y="612"/>
			<point x="347" y="608"/>
			<point x="396" y="584" type="curve"/>
			<point x="324" y="626" type="line"/>
			<point x="335" y="545" type="line" smooth="yes"/>
			<point x="345" y="472"/>
			<point x="382" y="460"/>
			<point x="410" y="460" type="curve" smooth="yes"/>
			<point x="440" y="460"/>
			<point x="461" y="478"/>
			<point x="468" y="504" type="curve"/>
			<point x="461" y="585"/>
			<point x="389" y="640"/>
			<point x="268" y="640" type="curve" smooth="yes"/>
			<point x="120" y="640"/>
			<point x="40" y="555"/>
			<point x="40" y="440" type="curve" smooth="yes"/>
			<point x="40" y="347"/>
			<point x="103" y="286"/>
			<point x="216" y="244" type="curve" smooth="yes"/>
			<point x="248" y="232" type="line" smooth="yes"/>
			<point x="316" y="207"/>
			<point x="344" y="181"/>
			<point x="344" y="118" type="curve" smooth="yes"/>
			<point x="344" y="51"/>
			<point x="299" y="12"/>
			<point x="236" y="12" type="curve" smooth="yes"/>
			<point x="175" y="12"/>
			<point x="150" y="24"/>
			<point x="104" y="48" type="curve"/>
			<point x="184" y="2" type="line"/>
			<point x="173" y="83" type="line" smooth="yes"/>
			<point x="163" y="156"/>
			<point x="126" y="168"/>
			<point x="98" y="168" type="curve" smooth="yes"/>
			<point x="68" y="168"/>
			<point x="47" y="151"/>
			<point x="40" y="125" type="curve"/>
			<point x="43" y="32"/>
			<point x="115" y="-16"/>
		</contour>
		<contour>
			<point x="236" y="-116" type="line"/>
			<point x="266" y="-116" type="line"/>
			<point x="266" y="312" type="line"/>
			<point x="236" y="312" type="line"/>
		</contour>
		<contour>
			<point x="250" y="312" type="line"/>
			<point x="280" y="312" type="line"/>
			<point x="280" y="732" type="line"/>
			<point x="250" y="732" type="line"/>
		</contour>
	</outline>
</glyph>
<glyph name="quotesingle" format="2">
	<unicode hex="0027"/>
	<advance width="224"/>
	<outline>
		<contour>
			<point x="112" y="724" type="curve"/>
			<point x="66" y="724"/>
			<point x="36" y="698"/>
			<point x="36" y="648" type="curve" smooth="yes"/>
			<point x="36" y="608"/>
			<point x="59" y="526"/>
			<point x="66" y="500" type="curve" smooth="yes"/>
			<point x="98" y="380" type="line"/>
			<point x="126" y="380" type="line"/>
			<point x="158" y="500" type="line" smooth="yes"/>
			<point x="165" y="526"/>
			<point x="188" y="608"/>
			<point x="188" y="648" type="curve" smooth="yes"/>
			<point x="188" y="698"/>
			<point x="158" y="724"/>
		</contour>
	</outline>
</glyph>
<glyph name="asterisk" format="2">
	<unicode hex="002A"/>
	<advance width="427"/>
	<outline>
		<contour>
			<point x="221" y="471" type="line" smooth="yes"/>
			<point x="238" y="394"/>
			<point x="255" y="350"/>
			<point x="297" y="350" type="curve" smooth="yes"/>
			<point x="328" y="350"/>
			<point x="357" y="382"/>
			<point x="357" y="406" type="curve" smooth="yes"/>
			<point x="357" y="443"/>
			<point x="327" y="466"/>
			<point x="264" y="502" type="curve" smooth="yes"/>
			<point x="227" y="523" type="line"/>
			<point x="269" y="519" type="line" smooth="yes"/>
			<point x="317" y="514"/>
			<point x="410" y="503"/>
			<point x="410" y="569" type="curve" smooth="yes"/>
			<point x="410" y="611"/>
			<point x="381" y="631"/>
			<point x="357" y="631" type="curve" smooth="yes"/>
			<point x="325" y="631"/>
			<point x="298" y="608"/>
			<point x="253" y="569" type="curve" smooth="yes"/>
			<point x="222" y="542" type="line"/>
			<point x="238" y="580" type="line" smooth="yes"/>
			<point x="254" y="619"/>
			<point x="268" y="652"/>
			<point x="268" y="676" type="curve" smooth="yes"/>
			<point x="268" y="708"/>
			<point x="251" y="732"/>
			<point x="212" y="732" type="curve" smooth="yes"/>
			<point x="173" y="732"/>
			<point x="156" y="708"/>
			<point x="156" y="676" type="curve" smooth="yes"/>
			<point x="156" y="651"/>
			<point x="170" y="619"/>
			<point x="186" y="580" type="curve" smooth="yes"/>
			<point x="202" y="542" type="line"/>
			<point x="171" y="569" type="line" smooth="yes"/>
			<point x="126" y="608"/>
			<point x="99" y="631"/>
			<point x="67" y="631" type="curve" smooth="yes"/>
			<point x="43" y="631"/>
			<point x="14" y="611"/>
			<point x="14" y="569" type="curve" smooth="yes"/>
			<point x="14" y="503"/>
			<point x="107" y="514"/>
			<point x="155" y="519" type="curve" smooth="yes"/>
			<point x="196" y="523" type="line"/>
			<point x="160" y="502" type="line" smooth="yes"/>
			<point x="97" y="466"/>
			<point x="67" y="443"/>
			<point x="67" y="406" type="curve" smooth="yes"/>
			<point x="67" y="382"/>
			<point x="96" y="350"/>
			<point x="127" y="350" type="curve" smooth="yes"/>
			<point x="169" y="350"/>
			<point x="186" y="394"/>
			<point x="203" y="471" type="curve" smooth="yes"/>
			<point x="212" y="512" type="line"/>
		</contour>
	</outline>
</glyph>
<glyph name="comma" format="2">
	<unicode hex="002C"/>
	<advance width="262"/>
	<outline>
		<contour>
			<point x="214" y="60" type="curve" smooth="yes"/>
			<point x="214" y="87"/>
			<point x="212" y="104"/>
			<point x="201" y="131" type="curve"/>
			<point x="180" y="148"/>
			<point x="160" y="154"/>
			<point x="134" y="154" type="curve" smooth="yes"/>
			<point x="87" y="154"/>
			<point x="50" y="119"/>
			<point x="50" y="73" type="curve" smooth="yes"/>
			<point x="50" y="47"/>
			<point x="65" y="17"/>
			<point x="103" y="-4" type="curve" smooth="yes"/>
			<point x="167" y="-38" type="line"/>
			<point x="158" y="-11" type="line"/>
			<point x="133" y="-82"/>
			<point x="86" y="-114"/>
			<point x="26" y="-146" type="curve"/>
			<point x="38" y="-168" type="line"/>
			<point x="117" y="-142"/>
			<point x="214" y="-59"/>
		</contour>
	</outline>
</glyph>
<glyph name="hyphen" format="2">
	<unicode hex="002D"/>
	<unicode hex="00AD"/>
	<unicode hex="2010"/>
	<advance width="320"/>
	<outline>
		<contour>
			<point x="36" y="216" type="line"/>
			<point x="284" y="216" type="line"/>
			<point x="284" y="268" type="line"/>
			<point x="36" y="268" type="line"/>
		</contour>
	</outline>
</glyph>
<glyph name="period" format="2">
	<unicode hex="002E"/>
	<advance width="276"/>
	<outline>
		<contour>
			<point x="138" y="-12" type="curve"/>
			<point x="188" y="-12"/>
			<point x="228" y="29"/>
			<point x="228" y="78" type="curve" smooth="yes"/>
			<point x="228" y="127"/>
			<point x="188" y="168"/>
			<point x="138" y="168" type="curve"/>
			<point x="88" y="168"/>
			<point x="48" y="127"/>
			<point x="48" y="78" type="curve"/>
			<point x="48" y="29"/>
			<point x="88" y="-12"/>
		</contour>
	</outline>
</glyph>
<glyph name="slash" format="2">
	<unicode hex="002F"/>
	<advance width="344"/>
	<outline>
		<contour>
			<point x="8" y="-160" type="line"/>
			<point x="68" y="-160" type="line"/>
			<point x="336" y="708" type="line"/>
			<point x="276" y="708" type="line"/>
		</contour>
	</outline>
</glyph>
<glyph name="zero" format="2">
	<unicode hex="0030"/>
	<advance width="524"/>
	<outline>
		<contour>
			<point x="262" y="-16" type="curve" smooth="yes"/>
			<point x="394" y="-16"/>
			<point x="502" y="88"/>
			<point x="502" y="312" type="curve" smooth="yes"/>
			<point x="502" y="537"/>
			<point x="394" y="640"/>
			<point x="262" y="640" type="curve" smooth="yes"/>
			<point x="130" y="640"/>
			<point x="22" y="537"/>
			<point x="22" y="312" type="curve" smooth="yes"/>
			<point x="22" y="88"/>
			<point x="130" y="-16"/>
		</contour>
		<contour>
			<point x="262" y="12" type="curve" smooth="yes"/>
			<point x="218" y="12"/>
			<point x="194" y="69"/>
			<point x="194" y="312" type="curve" smooth="yes"/>
			<point x="194" y="556"/>
			<point x="218" y="612"/>
			<point x="262" y="612" type="curve" smooth="yes"/>
			<point x="306" y="612"/>
			<point x="330" y="556"/>
			<point x="330" y="312" type="curve" smooth="yes"/>
			<point x="330" y="69"/>
			<point x="306" y="12"/>
		</contour>
	</outline>
</glyph>
<glyph name="one" format="2">
	<unicode hex="0031"/>
	<advance width="524"/>
	<outline>
		<contour>
			<point x="76" y="0" type="line"/>
			<point x="460" y="0" type="line"/>
			<point x="460" y="24" type="line"/>
			<point x="316" y="48" type="line"/>
			<point x="220" y="48" type="line"/>
			<point x="76" y="24" type="line"/>
		</contour>
		<contour>
			<point x="182" y="0" type="curve"/>
			<point x="354" y="0" type="line"/>
			<point x="348" y="53"/>
			<point x="348" y="140"/>
			<point x="348" y="208" type="curve" smooth="yes"/>
			<point x="348" y="420" type="line"/>
			<point x="352" y="624" type="line"/>
			<point x="336" y="636" type="line"/>
			<point x="96" y="560" type="line"/>
			<point x="96" y="536" type="line"/>
			<point x="188" y="544" type="line"/>
			<point x="188" y="208" type="line" smooth="yes"/>
			<point x="188" y="140"/>
			<point x="188" y="53"/>
		</contour>
	</outline>
</glyph>
<glyph name="question" format="2">
	<unicode hex="003F"/>
	<advance width="462"/>
	<outline>
		<contour>
			<point x="180" y="-12" type="curve" smooth="yes"/>
			<point x="230" y="-12"/>
			<point x="270" y="29"/>
			<point x="270" y="78" type="curve" smooth="yes"/>
			<point x="270" y="127"/>
			<point x="230" y="168"/>
			<point x="180" y="168" type="curve" smooth="yes"/>
			<point x="130" y="168"/>
			<point x="90" y="127"/>
			<point x="90" y="78" type="curve" smooth="yes"/>
			<point x="90" y="29"/>
			<point x="130" y="-12"/>
		</contour>
		<contour>
			<point x="376" y="492" type="line"/>
			<point x="294" y="532" type="line"/>
			<point x="317" y="497"/>
			<point x="324" y="482"/>
			<point x="324" y="466" type="curve" smooth="yes"/>
			<point x="324" y="445"/>
			<point x="308" y="440"/>
			<point x="274" y="432" type="curve" smooth="yes"/>
			<point x="200" y="414" type="line" smooth="yes"/>
			<point x="134" y="398"/>
			<point x="113" y="374"/>
			<point x="113" y="337" type="curve" smooth="yes"/>
			<point x="113" y="315"/>
			<point x="120" y="288"/>
			<point x="130" y="256" type="curve" smooth="yes"/>
			<point x="140" y="224" type="line"/>
			<point x="208" y="224" type="line"/>
			<point x="208" y="252" type="line" smooth="yes"/>
			<point x="208" y="277"/>
			<point x="220" y="280"/>
			<point x="248" y="288" type="curve" smooth="yes"/>
			<point x="294" y="302" type="line" smooth="yes"/>
			<point x="360" y="322"/>
			<point x="400" y="354"/>
			<point x="400" y="428" type="curve" smooth="yes"/>
			<point x="400" y="522"/>
			<point x="288" y="642"/>
			<point x="156" y="672" type="curve"/>
			<point x="105" y="658"/>
			<point x="80" y="635"/>
			<point x="80" y="597" type="curve" smooth="yes"/>
			<point x="80" y="560"/>
			<point x="100" y="530"/>
			<point x="169" y="521" type="curve" smooth="yes"/>
		</contour>
	</outline>
</glyph>
<glyph name="at" format="2">
	<unicode hex="0040"/>
	<advance width="896"/>
	<outline>
		<contour>
			<point x="327" y="36" type="curve" smooth="yes"/>
			<point x="393" y="36"/>
			<point x="447" y="91"/>
			<point x="494" y="163" type="curve"/>
			<point x="492" y="177" type="line"/>
			<point x="490" y="190" type="line"/>
			<point x="447" y="133"/>
			<point x="422" y="117"/>
			<point x="400" y="117" type="curve" smooth="yes"/>
			<point x="373" y="117"/>
			<point x="363" y="140"/>
			<point x="363" y="183" type="curve" smooth="yes"/>
			<point x="363" y="294"/>
			<point x="422" y="428"/>
			<point x="481" y="428" type="curve" smooth="yes"/>
			<point x="511" y="428"/>
			<point x="526" y="415"/>
			<point x="539" y="388" type="curve"/>
			<point x="624" y="421" type="line"/>
			<point x="589" y="469"/>
			<point x="565" y="487"/>
			<point x="504" y="487" type="curve" smooth="yes"/>
			<point x="390" y="487"/>
			<point x="224" y="325"/>
			<point x="224" y="157" type="curve" smooth="yes"/>
			<point x="224" y="67"/>
			<point x="277" y="36"/>
		</contour>
		<contour>
			<point x="600" y="36" type="curve" smooth="yes"/>
			<point x="725" y="36"/>
			<point x="848" y="155"/>
			<point x="848" y="340" type="curve" smooth="yes"/>
			<point x="848" y="508"/>
			<point x="732" y="652"/>
			<point x="504" y="652" type="curve" smooth="yes"/>
			<point x="209" y="652"/>
			<point x="48" y="406"/>
			<point x="48" y="196" type="curve" smooth="yes"/>
			<point x="48" y="-7"/>
			<point x="163" y="-152"/>
			<point x="392" y="-152" type="curve" smooth="yes"/>
			<point x="459" y="-152"/>
			<point x="528" y="-137"/>
			<point x="587" y="-106" type="curve"/>
			<point x="580" y="-88" type="line"/>
			<point x="515" y="-113"/>
			<point x="463" y="-124"/>
			<point x="392" y="-124" type="curve" smooth="yes"/>
			<point x="223" y="-124"/>
			<point x="108" y="-12"/>
			<point x="108" y="196" type="curve" smooth="yes"/>
			<point x="108" y="404"/>
			<point x="234" y="624"/>
			<point x="496" y="624" type="curve" smooth="yes"/>
			<point x="688" y="624"/>
			<point x="788" y="515"/>
			<point x="788" y="340" type="curve" smooth="yes"/>
			<point x="788" y="176"/>
			<point x="697" y="80"/>
			<point x="648" y="80" type="curve" smooth="yes"/>
			<point x="612" y="80"/>
			<point x="588" y="101"/>
			<point x="610" y="204" type="curve" smooth="yes"/>
			<point x="668" y="476" type="line"/>
			<point x="656" y="488" type="line"/>
			<point x="524" y="420" type="line"/>
			<point x="464" y="148" type="line"/>
			<point x="474" y="144" type="line"/>
			<point x="477" y="77"/>
			<point x="527" y="36"/>
		</contour>
	</outline>
</glyph>
<glyph name="A" format="2">
	<unicode hex="0041"/>
	<advance width="639"/>
	<outline>
		<contour>
			<point x="9" y="0" type="line"/>
			<point x="207" y="0" type="line"/>
			<point x="207" y="59" type="line"/>
			<point x="123" y="74" type="line"/>
			<point x="107" y="74" type="line"/>
			<point x="9" y="59" type="line"/>
		</contour>
		<contour>
			<point x="61" y="0" type="line"/>
			<point x="121" y="0" type="line"/>
			<point x="265" y="480" type="line"/>
			<point x="405" y="0" type="line"/>
			<point x="594" y="0" type="line"/>
			<point x="384" y="652" type="line"/>
			<point x="272" y="652" type="line"/>
		</contour>
		<contour>
			<point x="158" y="180" type="line"/>
			<point x="451" y="180" type="line"/>
			<point x="428" y="243" type="line"/>
			<point x="174" y="243" type="line"/>
		</contour>
		<contour>
			<point x="321" y="0" type="line"/>
			<point x="625" y="0" type="line"/>
			<point x="625" y="56" type="line"/>
			<point x="503" y="71" type="line"/>
			<point x="423" y="71" type="line"/>
			<point x="321" y="56" type="line"/>
		</contour>
	</outline>
	<anchor name="aboveUC" x="320" y="682"/>
	<anchor name="belowLC" x="282" y="-22"/>
	<anchor name="ogonek" x="530" y="0"/>
</glyph>
<glyph name="B" format="2">
	<unicode hex="0042"/>
	<advance width="620"/>
	<outline>
		<contour>
			<point x="26" y="0" type="line"/>
			<point x="185" y="0" type="line"/>
			<point x="185" y="74" type="line"/>
			<point x="168" y="74" type="line"/>
			<point x="26" y="59" type="line"/>
		</contour>
		<contour>
			<point x="92" y="208"/>
			<point x="92" y="103"/>
			<point x="89" y="0" type="curve"/>
			<point x="277" y="0" type="line"/>
			<point x="274" y="105"/>
			<point x="274" y="210"/>
			<point x="274" y="316" type="curve" smooth="yes"/>
			<point x="274" y="336" type="line" smooth="yes"/>
			<point x="274" y="443"/>
			<point x="274" y="549"/>
			<point x="277" y="652" type="curve"/>
			<point x="89" y="652" type="line"/>
			<point x="92" y="547"/>
			<point x="92" y="441"/>
			<point x="92" y="336" type="curve" smooth="yes"/>
			<point x="92" y="315" type="line" smooth="yes"/>
		</contour>
		<contour>
			<point x="185" y="0" type="line"/>
			<point x="298" y="0" type="line" smooth="yes"/>
			<point x="554" y="0"/>
			<point x="606" y="104"/>
			<point x="606" y="185" type="curve" smooth="yes"/>
			<point x="606" y="286"/>
			<point x="539" y="346"/>
			<point x="365" y="356" type="curve"/>
			<point x="365" y="347" type="line"/>
			<point x="527" y="367"/>
			<point x="568" y="428"/>
			<point x="568" y="501" type="curve" smooth="yes"/>
			<point x="568" y="586"/>
			<point x="514" y="652"/>
			<point x="343" y="652" type="curve" smooth="yes"/>
			<point x="185" y="652" type="line"/>
			<point x="185" y="590" type="line"/>
			<point x="296" y="590" type="line" smooth="yes"/>
			<point x="361" y="590"/>
			<point x="389" y="553"/>
			<point x="389" y="486" type="curve" smooth="yes"/>
			<point x="389" y="412"/>
			<point x="357" y="370"/>
			<point x="291" y="370" type="curve" smooth="yes"/>
			<point x="185" y="370" type="line"/>
			<point x="185" y="314" type="line"/>
			<point x="298" y="314" type="line" smooth="yes"/>
			<point x="377" y="314"/>
			<point x="416" y="277"/>
			<point x="416" y="187" type="curve" smooth="yes"/>
			<point x="416" y="104"/>
			<point x="369" y="62"/>
			<point x="296" y="62" type="curve" smooth="yes"/>
			<point x="185" y="62" type="line"/>
		</contour>
		<contour>
			<point x="26" y="593" type="line"/>
			<point x="168" y="578" type="line"/>
			<point x="185" y="578" type="line"/>
			<point x="185" y="652" type="line"/>
			<point x="26" y="652" type="line"/>
		</contour>
	</outline>
	<anchor name="aboveUC" x="288" y="682"/>
	<anchor name="belowLC" x="326" y="-22"/>
</glyph>
<glyph name="C" format="2">
	<unicode hex="0043"/>
	<advance width="572"/>
	<outline>
		<contour>
			<point x="24" y="324" type="curve" smooth="yes"/>
			<point x="24" y="79"/>
			<point x="179" y="-20"/>
			<point x="354" y="-20" type="curve" smooth="yes"/>
			<point x="433" y="-20"/>
			<point x="494" y="0"/>
			<point x="540" y="24" type="curve"/>
			<point x="548" y="184" type="line"/>
			<point x="500" y="184" type="line"/>
			<point x="447" y="16" type="line"/>
			<point x="496" y="28" type="line"/>
			<point x="500" y="61" type="line"/>
			<point x="460" y="34"/>
			<point x="432" y="20"/>
			<point x="372" y="20" type="curve" smooth="yes"/>
			<point x="285" y="20"/>
			<point x="204" y="100"/>
			<point x="204" y="326" type="curve" smooth="yes"/>
			<point x="204" y="553"/>
			<point x="286" y="632"/>
			<point x="376" y="632" type="curve" smooth="yes"/>
			<point x="425" y="632"/>
			<point x="458" y="620"/>
			<point x="500" y="591" type="curve"/>
			<point x="496" y="624" type="line"/>
			<point x="447" y="636" type="line"/>
			<point x="500" y="468" type="line"/>
			<point x="548" y="468" type="line"/>
			<point x="540" y="629" type="line"/>
			<point x="490" y="656"/>
			<point x="436" y="672"/>
			<point x="362" y="672" type="curve" smooth="yes"/>
			<point x="190" y="672"/>
			<point x="24" y="574"/>
		</contour>
	</outline>
	<anchor name="aboveUC" x="363" y="682"/>
	<anchor name="belowLC" x="377" y="-22"/>
	<anchor name="baseLC" x="378" y="0"/>
</glyph>
<glyph name="D" format="2">
	<unicode hex="0044"/>
	<advance width="656"/>
	<outline>
		<contour>
			<point x="26" y="0" type="line"/>
			<point x="185" y="0" type="line"/>
			<point x="185" y="45" type="line"/>
			<point x="168" y="45" type="line"/>
			<point x="26" y="30" type="line"/>
		</contour>
		<contour>
			<point x="92" y="212"/>
			<point x="92" y="104"/>
			<point x="89" y="0" type="curve"/>
			<point x="267" y="0" type="line"/>
			<point x="264" y="106"/>
			<point x="264" y="214"/>
			<point x="264" y="321" type="curve" smooth="yes"/>
			<point x="264" y="342" type="line" smooth="yes"/>
			<point x="264" y="447"/>
			<point x="264" y="551"/>
			<point x="267" y="652" type="curve"/>
			<point x="89" y="652" type="line"/>
			<point x="92" y="549"/>
			<point x="92" y="445"/>
			<point x="92" y="342" type="curve" smooth="yes"/>
			<point x="92" y="320" type="line" smooth="yes"/>
		</contour>
		<contour>
			<point x="185" y="0" type="line"/>
			<point x="290" y="0" type="line" smooth="yes"/>
			<point x="503" y="0"/>
			<point x="631" y="123"/>
			<point x="631" y="329" type="curve" smooth="yes"/>
			<point x="631" y="525"/>
			<point x="513" y="652"/>
			<point x="306" y="652" type="curve" smooth="yes"/>
			<point x="185" y="652" type="line"/>
			<point x="185" y="620" type="line"/>
			<point x="282" y="620" type="line" smooth="yes"/>
			<point x="391" y="620"/>
			<point x="446" y="540"/>
			<point x="446" y="327" type="curve" smooth="yes"/>
			<point x="446" y="114"/>
			<point x="391" y="32"/>
			<point x="283" y="32" type="curve" smooth="yes"/>
			<point x="185" y="32" type="line"/>
		</contour>
		<contour>
			<point x="26" y="622" type="line"/>
			<point x="168" y="607" type="line"/>
			<point x="185" y="607" type="line"/>
			<point x="185" y="652" type="line"/>
			<point x="26" y="652" type="line"/>
		</contour>
	</outline>
	<anchor name="aboveUC" x="299" y="682"/>
	<anchor name="belowLC" x="301" y="-22"/>
</glyph>
<glyph name="E" format="2">
	<unicode hex="0045"/>
	<advance width="564"/>
	<outline>
		<contour>
			<point x="26" y="0" type="line"/>
			<point x="185" y="0" type="line"/>
			<point x="185" y="45" type="line"/>
			<point x="168" y="45" type="line"/>
			<point x="26" y="30" type="line"/>
		</contour>
		<contour>
			<point x="92" y="212"/>
			<point x="92" y="104"/>
			<point x="89" y="0" type="curve"/>
			<point x="267" y="0" type="line"/>
			<point x="264" y="106"/>
			<point x="264" y="214"/>
			<point x="264" y="321" type="curve" smooth="yes"/>
			<point x="264" y="342" type="line" smooth="yes"/>
			<point x="264" y="447"/>
			<point x="264" y="551"/>
			<point x="267" y="652" type="curve"/>
			<point x="89" y="652" type="line"/>
			<point x="92" y="549"/>
			<point x="92" y="445"/>
			<point x="92" y="342" type="curve" smooth="yes"/>
			<point x="92" y="320" type="line" smooth="yes"/>
		</contour>
		<contour>
			<point x="185" y="0" type="line"/>
			<point x="530" y="0" type="line"/>
			<point x="537" y="170" type="line"/>
			<point x="478" y="170" type="line"/>
			<point x="426" y="18" type="line"/>
			<point x="459" y="30" type="line"/>
			<point x="185" y="30" type="line"/>
		</contour>
		<contour>
			<point x="185" y="316" type="line"/>
			<point x="390" y="316" type="line"/>
			<point x="390" y="350" type="line"/>
			<point x="185" y="350" type="line"/>
		</contour>
		<contour>
			<point x="396" y="235" type="line"/>
			<point x="435" y="235" type="line"/>
			<point x="435" y="442" type="line"/>
			<point x="396" y="442" type="line"/>
			<point x="372" y="342" type="line"/>
			<point x="372" y="324" type="line"/>
		</contour>
		<contour>
			<point x="26" y="622" type="line"/>
			<point x="168" y="607" type="line"/>
			<point x="185" y="607" type="line"/>
			<point x="185" y="652" type="line"/>
			<point x="26" y="652" type="line"/>
		</contour>
		<contour>
			<point x="460" y="482" type="line"/>
			<point x="518" y="482" type="line"/>
			<point x="511" y="652" type="line"/>
			<point x="185" y="652" type="line"/>
			<point x="185" y="622" type="line"/>
			<point x="440" y="622" type="line"/>
			<point x="407" y="634" type="line"/>
		</contour>
	</outline>
	<anchor name="aboveUC" x="291" y="682"/>
	<anchor name="belowLC" x="305" y="-22"/>
	<anchor name="ogonek" x="425" y="0"/>
</glyph>
<glyph name="F" format="2">
	<unicode hex="0046"/>
	<advance width="492"/>
	<outline>
		<contour>
			<point x="256" y="0" type="line"/>
			<point x="253" y="102"/>
			<point x="252" y="216"/>
			<point x="252" y="320" type="curve" smooth="yes"/>
			<point x="252" y="340" type="line" smooth="yes"/>
			<point x="252" y="445"/>
			<point x="253" y="551"/>
			<point x="256" y="652" type="curve"/>
			<point x="80" y="652" type="line"/>
			<point x="83" y="549"/>
			<point x="84" y="443"/>
			<point x="84" y="340" type="curve" smooth="yes"/>
			<point x="84" y="320" type="line" smooth="yes"/>
			<point x="84" y="216"/>
			<point x="83" y="102"/>
			<point x="80" y="0" type="curve"/>
		</contour>
		<contour>
			<point x="212" y="652" type="line"/>
			<point x="24" y="652" type="line"/>
			<point x="24" y="616" type="line"/>
			<point x="124" y="604" type="line"/>
			<point x="212" y="604" type="line"/>
		</contour>
		<contour>
			<point x="172" y="318" type="line"/>
			<point x="356" y="318" type="line"/>
			<point x="356" y="356" type="line"/>
			<point x="172" y="356" type="line"/>
		</contour>
		<contour>
			<point x="404" y="440" type="line"/>
			<point x="362" y="440" type="line"/>
			<point x="340" y="344" type="line"/>
			<point x="340" y="328" type="line"/>
			<point x="362" y="232" type="line"/>
			<point x="404" y="232" type="line"/>
		</contour>
		<contour>
			<point x="148" y="612" type="line"/>
			<point x="420" y="612" type="line"/>
			<point x="390" y="636" type="line"/>
			<point x="440" y="476" type="line"/>
			<point x="488" y="476" type="line"/>
			<point x="480" y="652" type="line"/>
			<point x="148" y="652" type="line"/>
		</contour>
		<contour>
			<point x="216" y="48" type="line"/>
			<point x="124" y="48" type="line"/>
			<point x="24" y="36" type="line"/>
			<point x="24" y="0" type="line"/>
			<point x="324" y="0" type="line"/>
			<point x="324" y="36" type="line"/>
		</contour>
	</outline>
	<anchor name="aboveUC" x="315" y="682"/>
	<anchor name="belowLC" x="209" y="-22"/>
</glyph>
<glyph name="G" format="2">
	<unicode hex="0047"/>
	<advance width="632"/>
	<outline>
		<contour>
			<point x="26" y="103"/>
			<point x="160" y="-20"/>
			<point x="355" y="-20" type="curve" smooth="yes"/>
			<point x="441" y="-20"/>
			<point x="505" y="-3"/>
			<point x="571" y="38" type="curve"/>
			<point x="571" y="79" type="line" smooth="yes"/>
			<point x="571" y="164"/>
			<point x="572" y="244"/>
			<point x="573" y="326" type="curve"/>
			<point x="393" y="326" type="line"/>
			<point x="395" y="242"/>
			<point x="396" y="167"/>
			<point x="396" y="84" type="curve" smooth="yes"/>
			<point x="396" y="1" type="line"/>
			<point x="478" y="72" type="line"/>
			<point x="443" y="50"/>
			<point x="421" y="39"/>
			<point x="387" y="39" type="curve" smooth="yes"/>
			<point x="300" y="39"/>
			<point x="219" y="126"/>
			<point x="219" y="328" type="curve" smooth="yes"/>
			<point x="219" y="530"/>
			<point x="302" y="613"/>
			<point x="392" y="613" type="curve" smooth="yes"/>
			<point x="426" y="613"/>
			<point x="461" y="601"/>
			<point x="505" y="567" type="curve"/>
			<point x="505" y="618" type="line"/>
			<point x="437" y="630" type="line"/>
			<point x="474" y="467" type="line"/>
			<point x="553" y="467" type="line"/>
			<point x="549" y="627" type="line"/>
			<point x="494" y="657"/>
			<point x="425" y="672"/>
			<point x="369" y="672" type="curve" smooth="yes"/>
			<point x="148" y="672"/>
			<point x="26" y="542"/>
			<point x="26" y="328" type="curve" smooth="yes"/>
		</contour>
		<contour>
			<point x="315" y="267" type="line"/>
			<point x="427" y="249" type="line"/>
			<point x="505" y="249" type="line"/>
			<point x="618" y="267" type="line"/>
			<point x="618" y="326" type="line"/>
			<point x="315" y="326" type="line"/>
		</contour>
	</outline>
	<anchor name="aboveUC" x="351" y="682"/>
	<anchor name="belowLC" x="374" y="-22"/>
</glyph>
<glyph name="H" format="2">
	<unicode hex="0048"/>
	<advance width="710"/>
	<outline>
		<contour>
			<point x="26" y="0" type="line"/>
			<point x="331" y="0" type="line"/>
			<point x="331" y="30" type="line"/>
			<point x="193" y="45" type="line"/>
			<point x="162" y="45" type="line"/>
			<point x="26" y="30" type="line"/>
		</contour>
		<contour>
			<point x="92" y="216"/>
			<point x="90" y="102"/>
			<point x="87" y="0" type="curve"/>
			<point x="269" y="0" type="line"/>
			<point x="266" y="102"/>
			<point x="264" y="216"/>
			<point x="264" y="321" type="curve" smooth="yes"/>
			<point x="264" y="342" type="line" smooth="yes"/>
			<point x="264" y="447"/>
			<point x="266" y="551"/>
			<point x="269" y="652" type="curve"/>
			<point x="87" y="652" type="line"/>
			<point x="90" y="549"/>
			<point x="92" y="445"/>
			<point x="92" y="342" type="curve" smooth="yes"/>
			<point x="92" y="320" type="line" smooth="yes"/>
		</contour>
		<contour>
			<point x="183" y="314" type="line"/>
			<point x="527" y="314" type="line"/>
			<point x="527" y="347" type="line"/>
			<point x="183" y="347" type="line"/>
		</contour>
		<contour>
			<point x="380" y="0" type="line"/>
			<point x="684" y="0" type="line"/>
			<point x="684" y="30" type="line"/>
			<point x="544" y="45" type="line"/>
			<point x="515" y="45" type="line"/>
			<point x="380" y="30" type="line"/>
		</contour>
		<contour>
			<point x="446" y="216"/>
			<point x="444" y="102"/>
			<point x="441" y="0" type="curve"/>
			<point x="623" y="0" type="line"/>
			<point x="620" y="102"/>
			<point x="618" y="216"/>
			<point x="618" y="320" type="curve" smooth="yes"/>
			<point x="618" y="342" type="line" smooth="yes"/>
			<point x="618" y="447"/>
			<point x="620" y="551"/>
			<point x="623" y="652" type="curve"/>
			<point x="441" y="652" type="line"/>
			<point x="444" y="549"/>
			<point x="446" y="445"/>
			<point x="446" y="342" type="curve" smooth="yes"/>
			<point x="446" y="321" type="line" smooth="yes"/>
		</contour>
		<contour>
			<point x="26" y="622" type="line"/>
			<point x="162" y="607" type="line"/>
			<point x="193" y="607" type="line"/>
			<point x="331" y="622" type="line"/>
			<point x="331" y="652" type="line"/>
			<point x="26" y="652" type="line"/>
		</contour>
		<contour>
			<point x="380" y="622" type="line"/>
			<point x="515" y="607" type="line"/>
			<point x="544" y="607" type="line"/>
			<point x="684" y="622" type="line"/>
			<point x="684" y="652" type="line"/>
			<point x="380" y="652" type="line"/>
		</contour>
	</outline>
	<anchor name="aboveUC" x="355" y="682"/>
	<anchor name="belowLC" x="355" y="-22"/>
</glyph>
<glyph name="I" format="2">
	<unicode hex="0049"/>
	<advance width="371"/>
	<outline>
		<contour>
			<point x="26" y="0" type="line"/>
			<point x="345" y="0" type="line"/>
			<point x="345" y="59" type="line"/>
			<point x="199" y="74" type="line"/>
			<point x="168" y="74" type="line"/>
			<point x="26" y="59" type="line"/>
		</contour>
		<contour>
			<point x="92" y="205"/>
			<point x="92" y="101"/>
			<point x="89" y="0" type="curve"/>
			<point x="281" y="0" type="line"/>
			<point x="278" y="103"/>
			<point x="278" y="207"/>
			<point x="278" y="311" type="curve" smooth="yes"/>
			<point x="278" y="342" type="line" smooth="yes"/>
			<point x="278" y="447"/>
			<point x="278" y="551"/>
			<point x="281" y="652" type="curve"/>
			<point x="89" y="652" type="line"/>
			<point x="92" y="549"/>
			<point x="92" y="445"/>
			<point x="92" y="342" type="curve" smooth="yes"/>
			<point x="92" y="310" type="line" smooth="yes"/>
		</contour>
		<contour>
			<point x="26" y="593" type="line"/>
			<point x="168" y="578" type="line"/>
			<point x="199" y="578" type="line"/>
			<point x="345" y="593" type="line"/>
			<point x="345" y="652" type="line"/>
			<point x="26" y="652" type="line"/>
		</contour>
	</outline>
	<anchor name="aboveUC" x="185" y="682"/>
	<anchor name="belowLC" x="185" y="-22"/>
	<anchor name="ogonek" x="234" y="0"/>
</glyph>
<glyph name="J" format="2">
	<unicode hex="004A"/>
	<advance width="348"/>
	<outline>
		<contour>
			<point x="324" y="616" type="line"/>
			<point x="324" y="652" type="line"/>
			<point x="24" y="652" type="line"/>
			<point x="24" y="616" type="line"/>
			<point x="136" y="604" type="line"/>
			<point x="224" y="604" type="line"/>
		</contour>
		<contour>
			<point x="20" y="-144" type="curve"/>
			<point x="28" y="-162" type="line"/>
			<point x="79" y="-144" type="line"/>
			<point x="62" y="-116" type="line" smooth="yes"/>
			<point x="31" y="-65"/>
			<point x="1" y="-49"/>
			<point x="-31" y="-49" type="curve" smooth="yes"/>
			<point x="-68" y="-49"/>
			<point x="-98" y="-73"/>
			<point x="-100" y="-110" type="curve"/>
			<point x="-89" y="-161"/>
			<point x="-30" y="-176"/>
			<point x="20" y="-176" type="curve"/>
			<point x="87" y="-176"/>
			<point x="133" y="-162"/>
			<point x="184" y="-108" type="curve" smooth="yes"/>
			<point x="253" y="-35"/>
			<point x="266" y="100"/>
			<point x="266" y="272" type="curve" smooth="yes"/>
			<point x="266" y="355" type="line" smooth="yes"/>
			<point x="266" y="455"/>
			<point x="266" y="555"/>
			<point x="268" y="652" type="curve"/>
			<point x="92" y="652" type="line"/>
			<point x="95" y="373"/>
			<point x="99" y="163"/>
			<point x="99" y="49" type="curve" smooth="yes"/>
			<point x="99" y="-70"/>
			<point x="100" y="-138"/>
		</contour>
	</outline>
	<anchor name="aboveUC" x="203" y="682"/>
	<anchor name="belowLC" x="117" y="-169"/>
</glyph>
<glyph name="K" format="2">
	<unicode hex="004B"/>
	<advance width="666"/>
	<outline>
		<contour>
			<point x="26" y="0" type="line"/>
			<point x="321" y="0" type="line"/>
			<point x="321" y="59" type="line"/>
			<point x="199" y="74" type="line"/>
			<point x="168" y="74" type="line"/>
			<point x="26" y="59" type="line"/>
		</contour>
		<contour>
			<point x="92" y="205"/>
			<point x="92" y="101"/>
			<point x="89" y="0" type="curve"/>
			<point x="273" y="0" type="line"/>
			<point x="270" y="103"/>
			<point x="270" y="207"/>
			<point x="270" y="311" type="curve" smooth="yes"/>
			<point x="270" y="342" type="line" smooth="yes"/>
			<point x="270" y="447"/>
			<point x="270" y="551"/>
			<point x="273" y="652" type="curve"/>
			<point x="89" y="652" type="line"/>
			<point x="92" y="549"/>
			<point x="92" y="445"/>
			<point x="92" y="342" type="curve" smooth="yes"/>
			<point x="92" y="310" type="line" smooth="yes"/>
		</contour>
		<contour>
			<point x="186" y="140" type="line"/>
			<point x="594" y="652" type="line"/>
			<point x="519" y="652" type="line"/>
			<point x="186" y="212" type="line"/>
		</contour>
		<contour>
			<point x="377" y="0" type="line"/>
			<point x="661" y="0" type="line"/>
			<point x="661" y="59" type="line"/>
			<point x="533" y="74" type="line"/>
			<point x="509" y="74" type="line"/>
			<point x="377" y="59" type="line"/>
		</contour>
		<contour>
			<point x="437" y="0" type="line"/>
			<point x="641" y="0" type="line"/>
			<point x="412" y="468" type="line"/>
			<point x="295" y="316" type="line"/>
		</contour>
		<contour>
			<point x="26" y="593" type="line"/>
			<point x="168" y="578" type="line"/>
			<point x="199" y="578" type="line"/>
			<point x="336" y="593" type="line"/>
			<point x="336" y="652" type="line"/>
			<point x="26" y="652" type="line"/>
		</contour>
		<contour>
			<point x="407" y="593" type="line"/>
			<point x="483" y="578" type="line"/>
			<point x="514" y="578" type="line"/>
			<point x="625" y="593" type="line"/>
			<point x="625" y="652" type="line"/>
			<point x="407" y="652" type="line"/>
		</contour>
	</outline>
	<anchor name="aboveUC" x="346" y="682"/>
	<anchor name="belowLC" x="353" y="-22"/>
</glyph>
<glyph name="L" format="2">
	<unicode hex="004C"/>
	<advance width="540"/>
	<outline>
		<contour>
			<point x="26" y="0" type="line"/>
			<point x="185" y="0" type="line"/>
			<point x="185" y="74" type="line"/>
			<point x="168" y="74" type="line"/>
			<point x="26" y="59" type="line"/>
		</contour>
		<contour>
			<point x="92" y="205"/>
			<point x="92" y="101"/>
			<point x="89" y="0" type="curve"/>
			<point x="281" y="0" type="line"/>
			<point x="278" y="103"/>
			<point x="278" y="207"/>
			<point x="278" y="296" type="curve" smooth="yes"/>
			<point x="278" y="342" type="line" smooth="yes"/>
			<point x="278" y="447"/>
			<point x="278" y="551"/>
			<point x="281" y="652" type="curve"/>
			<point x="89" y="652" type="line"/>
			<point x="92" y="549"/>
			<point x="92" y="445"/>
			<point x="92" y="342" type="curve" smooth="yes"/>
			<point x="92" y="281" type="line" smooth="yes"/>
		</contour>
		<contour>
			<point x="185" y="0" type="line"/>
			<point x="521" y="0" type="line"/>
			<point x="530" y="199" type="line"/>
			<point x="447" y="199" type="line"/>
			<point x="417" y="30" type="line"/>
			<point x="452" y="60" type="line"/>
			<point x="185" y="60" type="line"/>
		</contour>
		<contour>
			<point x="26" y="593" type="line"/>
			<point x="168" y="578" type="line"/>
			<point x="209" y="578" type="line"/>
			<point x="354" y="593" type="line"/>
			<point x="354" y="652" type="line"/>
			<point x="26" y="652" type="line"/>
		</contour>
	</outline>
	<anchor name="aboveUC" x="190" y="682"/>
	<anchor name="belowLC" x="286" y="-22"/>
</glyph>
<glyph name="M" format="2">
	<unicode hex="004D"/>
	<advance width="839"/>
	<outline>
		<contour>
			<point x="9" y="0" type="line"/>
			<point x="246" y="0" type="line"/>
			<point x="246" y="59" type="line"/>
			<point x="153" y="74" type="line"/>
			<point x="123" y="74" type="line"/>
			<point x="9" y="59" type="line"/>
		</contour>
		<contour>
			<point x="21" y="593" type="line"/>
			<point x="144" y="578" type="line"/>
			<point x="161" y="578" type="line"/>
			<point x="159" y="652" type="line"/>
			<point x="21" y="652" type="line"/>
		</contour>
		<contour>
			<point x="102" y="0" type="line"/>
			<point x="168" y="0" type="line"/>
			<point x="168" y="287" type="line"/>
			<point x="162" y="652" type="line"/>
			<point x="102" y="652" type="line"/>
		</contour>
		<contour>
			<point x="329" y="0" type="line"/>
			<point x="412" y="0" type="line"/>
			<point x="618" y="652" type="line"/>
			<point x="551" y="652" type="line"/>
			<point x="414" y="209" type="line"/>
			<point x="445" y="209" type="line"/>
			<point x="299" y="652" type="line"/>
			<point x="110" y="652" type="line"/>
		</contour>
		<contour>
			<point x="496" y="0" type="line"/>
			<point x="814" y="0" type="line"/>
			<point x="814" y="59" type="line"/>
			<point x="672" y="74" type="line"/>
			<point x="619" y="74" type="line"/>
			<point x="496" y="59" type="line"/>
		</contour>
		<contour>
			<point x="559" y="0" type="curve"/>
			<point x="751" y="0" type="line"/>
			<point x="748" y="101"/>
			<point x="748" y="205"/>
			<point x="748" y="310" type="curve" smooth="yes"/>
			<point x="748" y="342" type="line" smooth="yes"/>
			<point x="748" y="445"/>
			<point x="748" y="549"/>
			<point x="751" y="652" type="curve"/>
			<point x="567" y="652" type="line"/>
			<point x="562" y="281" type="line" smooth="yes"/>
			<point x="561" y="207"/>
			<point x="562" y="103"/>
		</contour>
		<contour>
			<point x="655" y="578" type="line"/>
			<point x="672" y="578" type="line"/>
			<point x="809" y="593" type="line"/>
			<point x="809" y="652" type="line"/>
			<point x="655" y="652" type="line"/>
		</contour>
	</outline>
	<anchor name="aboveUC" x="415" y="682"/>
	<anchor name="belowLC" x="368" y="-22"/>
</glyph>
<glyph name="N" format="2">
	<unicode hex="004E"/>
	<advance width="602"/>
	<outline>
		<contour>
			<point x="122" y="45" type="line"/>
			<point x="92" y="45" type="line"/>
			<point x="24" y="36" type="line"/>
			<point x="24" y="0" type="line"/>
			<point x="210" y="0" type="line"/>
			<point x="210" y="36" type="line"/>
		</contour>
		<contour>
			<point x="488" y="607" type="line"/>
			<point x="518" y="607" type="line"/>
			<point x="578" y="616" type="line"/>
			<point x="578" y="652" type="line"/>
			<point x="400" y="652" type="line"/>
			<point x="400" y="616" type="line"/>
		</contour>
		<contour>
			<point x="84" y="0" type="line"/>
			<point x="130" y="0" type="line"/>
			<point x="130" y="652" type="line"/>
			<point x="84" y="652" type="line"/>
		</contour>
		<contour>
			<point x="448" y="0" type="line"/>
			<point x="526" y="0" type="line"/>
			<point x="526" y="652" type="line"/>
			<point x="480" y="652" type="line"/>
			<point x="480" y="256" type="line"/>
			<point x="231" y="652" type="line"/>
			<point x="24" y="652" type="line"/>
			<point x="24" y="616" type="line"/>
			<point x="124" y="604" type="line"/>
			<point x="56" y="624" type="line"/>
		</contour>
	</outline>
	<anchor name="aboveUC" x="358" y="682"/>
	<anchor name="belowLC" x="381" y="-22"/>
</glyph>
<glyph name="O" format="2">
	<unicode hex="004F"/>
	<advance width="640"/>
	<outline>
		<contour>
			<point x="320" y="-20" type="curve" smooth="yes"/>
			<point x="475" y="-20"/>
			<point x="615" y="91"/>
			<point x="615" y="326" type="curve" smooth="yes"/>
			<point x="615" y="561"/>
			<point x="474" y="672"/>
			<point x="320" y="672" type="curve" smooth="yes"/>
			<point x="166" y="672"/>
			<point x="25" y="561"/>
			<point x="25" y="326" type="curve" smooth="yes"/>
			<point x="25" y="91"/>
			<point x="165" y="-20"/>
		</contour>
		<contour>
			<point x="320" y="7" type="curve" smooth="yes"/>
			<point x="240" y="7"/>
			<point x="210" y="123"/>
			<point x="210" y="326" type="curve" smooth="yes"/>
			<point x="210" y="528"/>
			<point x="240" y="646"/>
			<point x="320" y="646" type="curve" smooth="yes"/>
			<point x="400" y="646"/>
			<point x="430" y="528"/>
			<point x="430" y="326" type="curve" smooth="yes"/>
			<point x="430" y="123"/>
			<point x="400" y="7"/>
		</contour>
	</outline>
	<anchor name="aboveUC" x="320" y="682"/>
	<anchor name="belowLC" x="320" y="-22"/>
	<anchor name="ogonek" x="405" y="0"/>
	<anchor name="hornLC" x="453" y="669"/>
</glyph>
<glyph name="P" format="2">
	<unicode hex="0050"/>
	<advance width="585"/>
	<outline>
		<contour>
			<point x="26" y="0" type="line"/>
			<point x="363" y="0" type="line"/>
			<point x="363" y="59" type="line"/>
			<point x="221" y="74" type="line"/>
			<point x="168" y="74" type="line"/>
			<point x="26" y="59" type="line"/>
		</contour>
		<contour>
			<point x="92" y="205"/>
			<point x="92" y="101"/>
			<point x="89" y="0" type="curve"/>
			<point x="281" y="0" type="line"/>
			<point x="278" y="103"/>
			<point x="278" y="207"/>
			<point x="278" y="281" type="curve" smooth="yes"/>
			<point x="278" y="342" type="line" smooth="yes"/>
			<point x="278" y="447"/>
			<point x="278" y="551"/>
			<point x="281" y="652" type="curve"/>
			<point x="89" y="652" type="line"/>
			<point x="92" y="549"/>
			<point x="92" y="445"/>
			<point x="92" y="342" type="curve" smooth="yes"/>
			<point x="92" y="310" type="line" smooth="yes"/>
		</contour>
		<contour>
			<point x="185" y="246" type="line"/>
			<point x="295" y="246" type="line" smooth="yes"/>
			<point x="504" y="246"/>
			<point x="572" y="340"/>
			<point x="572" y="455" type="curve" smooth="yes"/>
			<point x="572" y="575"/>
			<point x="494" y="652"/>
			<point x="283" y="652" type="curve" smooth="yes"/>
			<point x="185" y="652" type="line"/>
			<point x="185" y="590" type="line"/>
			<point x="288" y="590" type="line" smooth="yes"/>
			<point x="357" y="590"/>
			<point x="401" y="546"/>
			<point x="401" y="456" type="curve" smooth="yes"/>
			<point x="401" y="366"/>
			<point x="362" y="306"/>
			<point x="291" y="306" type="curve" smooth="yes"/>
			<point x="185" y="306" type="line"/>
		</contour>
		<contour>
			<point x="26" y="593" type="line"/>
			<point x="168" y="578" type="line"/>
			<point x="185" y="578" type="line"/>
			<point x="185" y="652" type="line"/>
			<point x="26" y="652" type="line"/>
		</contour>
	</outline>
	<anchor name="aboveUC" x="282" y="682"/>
	<anchor name="belowLC" x="193" y="-22"/>
</glyph>
<glyph name="Q" format="2">
	<unicode hex="0051"/>
	<advance width="658"/>
	<outline>
		<contour>
			<point x="461" y="-202" type="curve" smooth="yes"/>
			<point x="516" y="-202"/>
			<point x="565" y="-192"/>
			<point x="596" y="-170" type="curve"/>
			<point x="572" y="-106" type="line"/>
			<point x="551" y="-116"/>
			<point x="525" y="-118"/>
			<point x="506" y="-118" type="curve" smooth="yes"/>
			<point x="439" y="-118"/>
			<point x="400" y="-59"/>
			<point x="415" y="32" type="curve"/>
			<point x="238" y="32" type="line"/>
			<point x="238" y="14" type="line" smooth="yes"/>
			<point x="238" y="-116"/>
			<point x="318" y="-202"/>
		</contour>
		<component base="O" xScale="0.94"/>
	</outline>
	<anchor name="aboveUC" x="329" y="682"/>
</glyph>
<glyph name="R" format="2">
	<unicode hex="0052"/>
	<advance width="654"/>
	<outline>
		<contour>
			<point x="26" y="0" type="line"/>
			<point x="344" y="0" type="line"/>
			<point x="344" y="59" type="line"/>
			<point x="202" y="74" type="line"/>
			<point x="168" y="74" type="line"/>
			<point x="26" y="59" type="line"/>
		</contour>
		<contour>
			<point x="92" y="205"/>
			<point x="92" y="101"/>
			<point x="89" y="0" type="curve"/>
			<point x="277" y="0" type="line"/>
			<point x="274" y="103"/>
			<point x="274" y="207"/>
			<point x="274" y="311" type="curve" smooth="yes"/>
			<point x="274" y="342" type="line" smooth="yes"/>
			<point x="274" y="447"/>
			<point x="274" y="551"/>
			<point x="277" y="652" type="curve"/>
			<point x="89" y="652" type="line"/>
			<point x="92" y="549"/>
			<point x="92" y="445"/>
			<point x="92" y="342" type="curve" smooth="yes"/>
			<point x="92" y="310" type="line" smooth="yes"/>
		</contour>
		<contour>
			<point x="394" y="12"/>
			<point x="449" y="-16"/>
			<point x="538" y="-16" type="curve" smooth="yes"/>
			<point x="587" y="-16"/>
			<point x="599" y="-13"/>
			<point x="654" y="0" type="curve"/>
			<point x="654" y="59" type="line"/>
			<point x="496" y="77" type="line"/>
			<point x="592" y="13" type="line"/>
			<point x="575" y="163" type="line" smooth="yes"/>
			<point x="562" y="277"/>
			<point x="526" y="336"/>
			<point x="347" y="340" type="curve"/>
			<point x="347" y="329" type="line"/>
			<point x="530" y="338"/>
			<point x="580" y="417"/>
			<point x="580" y="490" type="curve" smooth="yes"/>
			<point x="580" y="591"/>
			<point x="499" y="652"/>
			<point x="350" y="652" type="curve" smooth="yes"/>
			<point x="185" y="652" type="line"/>
			<point x="185" y="590" type="line"/>
			<point x="297" y="590" type="line" smooth="yes"/>
			<point x="366" y="590"/>
			<point x="406" y="554"/>
			<point x="406" y="475" type="curve" smooth="yes"/>
			<point x="406" y="417"/>
			<point x="385" y="359"/>
			<point x="295" y="359" type="curve" smooth="yes"/>
			<point x="187" y="359" type="line"/>
			<point x="187" y="299" type="line"/>
			<point x="304" y="299" type="line" smooth="yes"/>
			<point x="352" y="299"/>
			<point x="370" y="262"/>
			<point x="376" y="200" type="curve" smooth="yes"/>
			<point x="385" y="102" type="line" smooth="yes"/>
		</contour>
		<contour>
			<point x="26" y="593" type="line"/>
			<point x="168" y="578" type="line"/>
			<point x="185" y="578" type="line"/>
			<point x="185" y="652" type="line"/>
			<point x="26" y="652" type="line"/>
		</contour>
	</outline>
	<anchor name="aboveUC" x="300" y="682"/>
	<anchor name="belowLC" x="364" y="-22"/>
</glyph>
<glyph name="S" format="2">
	<unicode hex="0053"/>
	<advance width="520"/>
	<outline>
		<contour>
			<point x="242" y="-20" type="curve" smooth="yes"/>
			<point x="415" y="-20"/>
			<point x="496" y="68"/>
			<point x="496" y="186" type="curve" smooth="yes"/>
			<point x="496" y="290"/>
			<point x="446" y="344"/>
			<point x="328" y="404" type="curve" smooth="yes"/>
			<point x="281" y="428" type="line" smooth="yes"/>
			<point x="230" y="454"/>
			<point x="204" y="478"/>
			<point x="204" y="527" type="curve" smooth="yes"/>
			<point x="204" y="574"/>
			<point x="243" y="609"/>
			<point x="289" y="609" type="curve" smooth="yes"/>
			<point x="337" y="609"/>
			<point x="372" y="587"/>
			<point x="424" y="552" type="curve"/>
			<point x="424" y="602" type="line"/>
			<point x="342" y="629" type="line"/>
			<point x="364" y="478" type="line"/>
			<point x="462" y="478" type="line"/>
			<point x="470" y="622" type="line"/>
			<point x="422" y="654"/>
			<point x="352" y="672"/>
			<point x="283" y="672" type="curve" smooth="yes"/>
			<point x="132" y="672"/>
			<point x="40" y="598"/>
			<point x="40" y="476" type="curve" smooth="yes"/>
			<point x="40" y="362"/>
			<point x="103" y="302"/>
			<point x="220" y="243" type="curve" smooth="yes"/>
			<point x="261" y="222" type="line" smooth="yes"/>
			<point x="308" y="198"/>
			<point x="328" y="176"/>
			<point x="328" y="128" type="curve" smooth="yes"/>
			<point x="328" y="83"/>
			<point x="301" y="43"/>
			<point x="243" y="43" type="curve" smooth="yes"/>
			<point x="183" y="43"/>
			<point x="142" y="60"/>
			<point x="82" y="90" type="curve"/>
			<point x="82" y="42" type="line"/>
			<point x="159" y="19" type="line"/>
			<point x="134" y="184" type="line"/>
			<point x="35" y="184" type="line"/>
			<point x="29" y="32" type="line"/>
			<point x="87" y="-6"/>
			<point x="171" y="-20"/>
		</contour>
	</outline>
	<anchor name="aboveUC" x="268" y="682"/>
	<anchor name="belowLC" x="250" y="-22"/>
	<anchor name="baseLC" x="247" y="0"/>
</glyph>
<glyph name="T" format="2">
	<unicode hex="0054"/>
	<advance width="607"/>
	<outline>
		<contour>
			<point x="135" y="0" type="line"/>
			<point x="473" y="0" type="line"/>
			<point x="473" y="59" type="line"/>
			<point x="327" y="74" type="line"/>
			<point x="277" y="74" type="line"/>
			<point x="135" y="59" type="line"/>
		</contour>
		<contour>
			<point x="211" y="205"/>
			<point x="211" y="101"/>
			<point x="208" y="0" type="curve"/>
			<point x="400" y="0" type="line"/>
			<point x="397" y="103"/>
			<point x="397" y="207"/>
			<point x="397" y="311" type="curve" smooth="yes"/>
			<point x="397" y="342" type="line" smooth="yes"/>
			<point x="397" y="447"/>
			<point x="397" y="551"/>
			<point x="400" y="652" type="curve"/>
			<point x="208" y="652" type="line"/>
			<point x="211" y="549"/>
			<point x="211" y="445"/>
			<point x="211" y="342" type="curve" smooth="yes"/>
			<point x="211" y="310" type="line" smooth="yes"/>
		</contour>
		<contour>
			<point x="19" y="463" type="line"/>
			<point x="107" y="463" type="line"/>
			<point x="130" y="652" type="line"/>
			<point x="52" y="593" type="line"/>
			<point x="556" y="593" type="line"/>
			<point x="478" y="652" type="line"/>
			<point x="501" y="463" type="line"/>
			<point x="588" y="463" type="line"/>
			<point x="588" y="652" type="line"/>
			<point x="21" y="652" type="line"/>
		</contour>
	</outline>
	<anchor name="aboveUC" x="304" y="682"/>
	<anchor name="belowLC" x="304" y="-22"/>
	<anchor name="baseLC" x="304" y="0"/>
</glyph>
<glyph name="U" format="2">
	<unicode hex="0055"/>
	<advance width="688"/>
	<outline>
		<contour>
			<point x="89" y="50"/>
			<point x="194" y="-20"/>
			<point x="334" y="-20" type="curve" smooth="yes"/>
			<point x="500" y="-20"/>
			<point x="591" y="74"/>
			<point x="591" y="287" type="curve" smooth="yes"/>
			<point x="591" y="652" type="line"/>
			<point x="525" y="652" type="line"/>
			<point x="525" y="277" type="line" smooth="yes"/>
			<point x="525" y="137"/>
			<point x="476" y="79"/>
			<point x="400" y="79" type="curve" smooth="yes"/>
			<point x="314" y="79"/>
			<point x="275" y="134"/>
			<point x="275" y="280" type="curve" smooth="yes"/>
			<point x="275" y="356" type="line" smooth="yes"/>
			<point x="275" y="455"/>
			<point x="275" y="555"/>
			<point x="278" y="652" type="curve"/>
			<point x="86" y="652" type="line"/>
			<point x="89" y="553"/>
			<point x="89" y="453"/>
			<point x="89" y="356" type="curve" smooth="yes"/>
			<point x="89" y="247" type="line" smooth="yes"/>
		</contour>
		<contour>
			<point x="24" y="593" type="line"/>
			<point x="170" y="578" type="line"/>
			<point x="200" y="578" type="line"/>
			<point x="347" y="593" type="line"/>
			<point x="347" y="652" type="line"/>
			<point x="24" y="652" type="line"/>
		</contour>
		<contour>
			<point x="444" y="593" type="line"/>
			<point x="542" y="586" type="line"/>
			<point x="573" y="586" type="line"/>
			<point x="667" y="593" type="line"/>
			<point x="667" y="652" type="line"/>
			<point x="444" y="652" type="line"/>
		</contour>
	</outline>
	<anchor name="aboveUC" x="397" y="682"/>
	<anchor name="belowLC" x="363" y="-22"/>
	<anchor name="ogonek" x="428" y="0"/>
	<anchor name="hornLC" x="580" y="681"/>
</glyph>
<glyph name="V" format="2">
	<unicode hex="0056"/>
	<advance width="604"/>
	<outline>
		<contour>
			<point x="560" y="652" type="line"/>
			<point x="512" y="652" type="line"/>
			<point x="358" y="148" type="line"/>
			<point x="372" y="148" type="line"/>
			<point x="220" y="652" type="line"/>
			<point x="44" y="652" type="line"/>
			<point x="252" y="0" type="line"/>
			<point x="356" y="0" type="line"/>
		</contour>
		<contour>
			<point x="84" y="604" type="line"/>
			<point x="188" y="604" type="line"/>
			<point x="296" y="616" type="line"/>
			<point x="296" y="652" type="line"/>
			<point x="8" y="652" type="line"/>
			<point x="8" y="616" type="line"/>
		</contour>
		<contour>
			<point x="596" y="616" type="line"/>
			<point x="596" y="652" type="line"/>
			<point x="436" y="652" type="line"/>
			<point x="436" y="616" type="line"/>
			<point x="504" y="608" type="line"/>
			<point x="532" y="608" type="line"/>
		</contour>
	</outline>
	<anchor name="aboveUC" x="368" y="682"/>
	<anchor name="belowLC" x="328" y="-22"/>
</glyph>
<glyph name="W" format="2">
	<unicode hex="0057"/>
	<advance width="930"/>
	<outline>
		<contour>
			<point x="222" y="0" type="line"/>
			<point x="335" y="0" type="line"/>
			<point x="464" y="459" type="line"/>
			<point x="448" y="459" type="line"/>
			<point x="576" y="0" type="line"/>
			<point x="689" y="0" type="line"/>
			<point x="879" y="652" type="line"/>
			<point x="814" y="652" type="line"/>
			<point x="684" y="170" type="line"/>
			<point x="699" y="170" type="line"/>
			<point x="577" y="652" type="line"/>
			<point x="456" y="652" type="line"/>
			<point x="329" y="179" type="line"/>
			<point x="344" y="179" type="line"/>
			<point x="233" y="652" type="line"/>
			<point x="36" y="652" type="line"/>
		</contour>
		<contour>
			<point x="5" y="593" type="line"/>
			<point x="141" y="578" type="line"/>
			<point x="178" y="578" type="line"/>
			<point x="311" y="593" type="line"/>
			<point x="311" y="652" type="line"/>
			<point x="5" y="652" type="line"/>
		</contour>
		<contour>
			<point x="380" y="593" type="line"/>
			<point x="493" y="578" type="line"/>
			<point x="556" y="578" type="line"/>
			<point x="672" y="593" type="line"/>
			<point x="672" y="652" type="line"/>
			<point x="380" y="652" type="line"/>
		</contour>
		<contour>
			<point x="737" y="593" type="line"/>
			<point x="821" y="578" type="line"/>
			<point x="848" y="578" type="line"/>
			<point x="930" y="593" type="line"/>
			<point x="930" y="652" type="line"/>
			<point x="737" y="652" type="line"/>
		</contour>
	</outline>
	<anchor name="aboveUC" x="520" y="682"/>
	<anchor name="belowLC" x="462" y="-22"/>
</glyph>
<glyph name="X" format="2">
	<unicode hex="0058"/>
	<advance width="604"/>
	<outline>
		<contour>
			<point x="104" y="604" type="line"/>
			<point x="204" y="604" type="line"/>
			<point x="312" y="616" type="line"/>
			<point x="312" y="652" type="line"/>
			<point x="20" y="652" type="line"/>
			<point x="20" y="616" type="line"/>
		</contour>
		<contour>
			<point x="270" y="380" type="line"/>
			<point x="34" y="0" type="line"/>
			<point x="88" y="0" type="line"/>
			<point x="312" y="368" type="line"/>
		</contour>
		<contour>
			<point x="8" y="36" type="line"/>
			<point x="8" y="0" type="line"/>
			<point x="172" y="0" type="line"/>
			<point x="172" y="36" type="line"/>
			<point x="104" y="42" type="line"/>
			<point x="72" y="42" type="line"/>
		</contour>
		<contour>
			<point x="512" y="48" type="line"/>
			<point x="412" y="48" type="line"/>
			<point x="304" y="36" type="line"/>
			<point x="304" y="0" type="line"/>
			<point x="596" y="0" type="line"/>
			<point x="596" y="36" type="line"/>
		</contour>
		<contour>
			<point x="568" y="0" type="line"/>
			<point x="228" y="652" type="line"/>
			<point x="48" y="652" type="line"/>
			<point x="388" y="0" type="line"/>
		</contour>
		<contour>
			<point x="322" y="272" type="line"/>
			<point x="550" y="652" type="line"/>
			<point x="496" y="652" type="line"/>
			<point x="280" y="284" type="line"/>
		</contour>
		<contour>
			<point x="576" y="616" type="line"/>
			<point x="576" y="652" type="line"/>
			<point x="412" y="652" type="line"/>
			<point x="412" y="616" type="line"/>
			<point x="480" y="610" type="line"/>
			<point x="512" y="610" type="line"/>
		</contour>
	</outline>
	<anchor name="aboveUC" x="338" y="682"/>
	<anchor name="belowLC" x="300" y="-22"/>
</glyph>
<glyph name="Y" format="2">
	<unicode hex="0059"/>
	<advance width="568"/>
	<outline>
		<contour>
			<point x="374" y="0" type="line"/>
			<point x="371" y="102"/>
			<point x="370" y="216"/>
			<point x="370" y="320" type="curve" smooth="yes"/>
			<point x="370" y="328" type="line"/>
			<point x="202" y="328" type="line"/>
			<point x="202" y="320" type="line" smooth="yes"/>
			<point x="202" y="216"/>
			<point x="201" y="102"/>
			<point x="198" y="0" type="curve"/>
		</contour>
		<contour>
			<point x="126" y="36" type="line"/>
			<point x="126" y="0" type="line"/>
			<point x="446" y="0" type="line"/>
			<point x="446" y="36" type="line"/>
			<point x="334" y="48" type="line"/>
			<point x="238" y="48" type="line"/>
		</contour>
		<contour>
			<point x="532" y="652" type="line"/>
			<point x="480" y="652" type="line"/>
			<point x="340" y="340" type="line"/>
			<point x="359" y="340" type="line"/>
			<point x="220" y="652" type="line"/>
			<point x="36" y="652" type="line"/>
			<point x="236" y="220" type="line"/>
			<point x="332" y="220" type="line"/>
		</contour>
		<contour>
			<point x="92" y="604" type="line"/>
			<point x="188" y="604" type="line"/>
			<point x="296" y="616" type="line"/>
			<point x="296" y="652" type="line"/>
			<point x="8" y="652" type="line"/>
			<point x="8" y="616" type="line"/>
		</contour>
		<contour>
			<point x="560" y="616" type="line"/>
			<point x="560" y="652" type="line"/>
			<point x="404" y="652" type="line"/>
			<point x="404" y="616" type="line"/>
			<point x="472" y="610" type="line"/>
			<point x="496" y="610" type="line"/>
		</contour>
	</outline>
	<anchor name="aboveUC" x="357" y="682"/>
	<anchor name="belowLC" x="310" y="-22"/>
</glyph>
<glyph name="Z" format="2">
	<unicode hex="005A"/>
	<advance width="534"/>
	<outline>
		<contour>
			<point x="19" y="0" type="line"/>
			<point x="508" y="0" type="line"/>
			<point x="515" y="189" type="line"/>
			<point x="432" y="189" type="line"/>
			<point x="404" y="30" type="line"/>
			<point x="439" y="60" type="line"/>
			<point x="199" y="60" type="line"/>
			<point x="215" y="33" type="line"/>
			<point x="509" y="602" type="line"/>
			<point x="509" y="652" type="line"/>
			<point x="36" y="652" type="line"/>
			<point x="28" y="463" type="line"/>
			<point x="109" y="463" type="line"/>
			<point x="138" y="621" type="line"/>
			<point x="103" y="592" type="line"/>
			<point x="329" y="592" type="line"/>
			<point x="313" y="619" type="line"/>
			<point x="19" y="50" type="line"/>
		</contour>
	</outline>
	<anchor name="aboveUC" x="281" y="682"/>
	<anchor name="belowLC" x="274" y="-22"/>
</glyph>
<glyph name="bracketleft" format="2">
	<unicode hex="005B"/>
	<advance width="360"/>
	<outline>
		<contour>
			<point x="212" y="-120" type="line"/>
			<point x="160" y="-120" type="line"/>
			<point x="160" y="-160" type="line"/>
			<point x="324" y="-160" type="line"/>
			<point x="324" y="-136" type="line"/>
		</contour>
		<contour>
			<point x="324" y="692" type="line"/>
			<point x="324" y="716" type="line"/>
			<point x="161" y="716" type="line"/>
			<point x="161" y="676" type="line"/>
			<point x="212" y="676" type="line"/>
		</contour>
		<contour>
			<point x="106" y="716" type="line"/>
			<point x="110" y="638"/>
			<point x="112" y="516"/>
			<point x="112" y="415" type="curve" smooth="yes"/>
			<point x="112" y="148" type="line" smooth="yes"/>
			<point x="112" y="45"/>
			<point x="110" y="-82"/>
			<point x="106" y="-160" type="curve"/>
			<point x="249" y="-160" type="line"/>
			<point x="245" y="-82"/>
			<point x="244" y="45"/>
			<point x="244" y="148" type="curve" smooth="yes"/>
			<point x="244" y="415" type="line" smooth="yes"/>
			<point x="244" y="516"/>
			<point x="246" y="638"/>
			<point x="250" y="716" type="curve"/>
		</contour>
	</outline>
</glyph>
<glyph name="backslash" format="2">
	<unicode hex="005C"/>
	<advance width="396"/>
	<outline>
		<contour>
			<point x="120" y="708" type="line"/>
			<point x="8" y="708" type="line"/>
			<point x="276" y="-160" type="line"/>
			<point x="388" y="-160" type="line"/>
		</contour>
	</outline>
</glyph>
<glyph name="underscore" format="2">
	<unicode hex="005F"/>
	<advance width="512"/>
	<outline>
		<contour>
			<point x="-5" y="-98" type="line"/>
			<point x="517" y="-98" type="line"/>
			<point x="517" y="-48" type="line"/>
			<point x="-5" y="-48" type="line"/>
		</contour>
	</outline>
</glyph>
<glyph name="a" format="2">
	<unicode hex="0061"/>
	<advance width="486"/>
	<outline>
		<contour>
			<point x="18" y="29"/>
			<point x="64" y="-15"/>
			<point x="136" y="-15" type="curve" smooth="yes"/>
			<point x="186" y="-15"/>
			<point x="225" y="4"/>
			<point x="278" y="62" type="curve"/>
			<point x="304" y="62" type="line"/>
			<point x="298" y="92" type="line"/>
			<point x="265" y="63"/>
			<point x="256" y="60"/>
			<point x="230" y="60" type="curve" smooth="yes"/>
			<point x="189" y="60"/>
			<point x="164" y="85"/>
			<point x="164" y="137" type="curve" smooth="yes"/>
			<point x="164" y="202"/>
			<point x="203" y="237"/>
			<point x="239" y="255" type="curve" smooth="yes"/>
			<point x="260" y="266"/>
			<point x="307" y="278"/>
			<point x="351" y="291" type="curve"/>
			<point x="351" y="309" type="line"/>
			<point x="309" y="297"/>
			<point x="242" y="280"/>
			<point x="204" y="269" type="curve" smooth="yes"/>
			<point x="69" y="230"/>
			<point x="18" y="178"/>
			<point x="18" y="93" type="curve" smooth="yes"/>
		</contour>
		<contour>
			<point x="372" y="-15" type="curve" smooth="yes"/>
			<point x="436" y="-15"/>
			<point x="472" y="8"/>
			<point x="494" y="66" type="curve"/>
			<point x="478" y="75" type="line"/>
			<point x="468" y="52"/>
			<point x="461" y="42"/>
			<point x="449" y="42" type="curve" smooth="yes"/>
			<point x="436" y="42"/>
			<point x="427" y="50"/>
			<point x="427" y="66" type="curve" smooth="yes"/>
			<point x="427" y="294" type="line" smooth="yes"/>
			<point x="427" y="417"/>
			<point x="377" y="478"/>
			<point x="245" y="478" type="curve" smooth="yes"/>
			<point x="109" y="478"/>
			<point x="42" y="418"/>
			<point x="33" y="343" type="curve"/>
			<point x="43" y="309"/>
			<point x="66" y="293"/>
			<point x="101" y="293" type="curve" smooth="yes"/>
			<point x="139" y="293"/>
			<point x="173" y="321"/>
			<point x="173" y="396" type="curve" smooth="yes"/>
			<point x="173" y="458" type="line"/>
			<point x="160" y="450" type="line"/>
			<point x="171" y="451"/>
			<point x="181" y="452"/>
			<point x="191" y="452" type="curve" smooth="yes"/>
			<point x="251" y="452"/>
			<point x="264" y="417"/>
			<point x="264" y="320" type="curve" smooth="yes"/>
			<point x="264" y="62" type="line"/>
			<point x="277" y="19"/>
			<point x="318" y="-15"/>
		</contour>
	</outline>
	<anchor name="aboveLC" x="235" y="494"/>
	<anchor name="belowLC" x="230" y="-21"/>
	<anchor name="ogonek" x="417" y="0"/>
</glyph>
<glyph name="b" format="2">
	<unicode hex="0062"/>
	<advance width="562"/>
	<outline>
		<contour>
			<point x="218" y="720" type="line"/>
			<point x="20" y="668" type="line"/>
			<point x="20" y="648" type="line"/>
			<point x="72" y="632" type="line"/>
			<point x="72" y="200" type="line" smooth="yes"/>
			<point x="72" y="147"/>
			<point x="71" y="82"/>
			<point x="69" y="33" type="curve"/>
			<point x="24" y="24" type="line"/>
			<point x="24" y="0" type="line"/>
			<point x="232" y="-14" type="line"/>
			<point x="232" y="80" type="line"/>
			<point x="232" y="388" type="line"/>
			<point x="230" y="388" type="line"/>
			<point x="230" y="504" type="line" smooth="yes"/>
			<point x="230" y="572"/>
			<point x="232" y="655"/>
			<point x="234" y="708" type="curve"/>
		</contour>
		<contour>
			<point x="205" y="94" type="line"/>
			<point x="217" y="94" type="line"/>
			<point x="248" y="17"/>
			<point x="295" y="-16"/>
			<point x="351" y="-16" type="curve" smooth="yes"/>
			<point x="463" y="-16"/>
			<point x="532" y="85"/>
			<point x="532" y="245" type="curve" smooth="yes"/>
			<point x="532" y="394"/>
			<point x="468" y="476"/>
			<point x="364" y="476" type="curve" smooth="yes"/>
			<point x="297" y="476"/>
			<point x="246" y="436"/>
			<point x="217" y="366" type="curve"/>
			<point x="209" y="366" type="line"/>
			<point x="216" y="348" type="line"/>
			<point x="235" y="375"/>
			<point x="257" y="396"/>
			<point x="283" y="396" type="curve" smooth="yes"/>
			<point x="329" y="396"/>
			<point x="364" y="356"/>
			<point x="364" y="236" type="curve" smooth="yes"/>
			<point x="364" y="111"/>
			<point x="326" y="64"/>
			<point x="283" y="64" type="curve" smooth="yes"/>
			<point x="253" y="64"/>
			<point x="240" y="77"/>
			<point x="216" y="108" type="curve"/>
		</contour>
	</outline>
	<anchor name="aboveLC" x="166" y="710"/>
	<anchor name="belowLC" x="298" y="-22"/>
</glyph>
<glyph name="c" format="2">
	<unicode hex="0063"/>
	<advance width="453"/>
	<outline>
		<contour>
			<point x="20" y="224" type="curve" smooth="yes"/>
			<point x="20" y="68"/>
			<point x="122" y="-16"/>
			<point x="244" y="-16" type="curve" smooth="yes"/>
			<point x="326" y="-16"/>
			<point x="389" y="19"/>
			<point x="428" y="96" type="curve"/>
			<point x="416" y="108" type="line"/>
			<point x="390" y="84"/>
			<point x="360" y="68"/>
			<point x="324" y="68" type="curve" smooth="yes"/>
			<point x="244" y="68"/>
			<point x="192" y="130"/>
			<point x="192" y="250" type="curve" smooth="yes"/>
			<point x="192" y="405"/>
			<point x="246" y="440"/>
			<point x="285" y="440" type="curve" smooth="yes"/>
			<point x="314" y="440"/>
			<point x="333" y="434"/>
			<point x="359" y="422" type="curve"/>
			<point x="288" y="464" type="line"/>
			<point x="290" y="394" type="line" smooth="yes"/>
			<point x="292" y="318"/>
			<point x="328" y="296"/>
			<point x="364" y="296" type="curve" smooth="yes"/>
			<point x="398" y="296"/>
			<point x="418" y="311"/>
			<point x="429" y="346" type="curve"/>
			<point x="429" y="416"/>
			<point x="372" y="476"/>
			<point x="269" y="476" type="curve" smooth="yes"/>
			<point x="131" y="476"/>
			<point x="20" y="388"/>
		</contour>
	</outline>
	<anchor name="aboveLC" x="293" y="520"/>
	<anchor name="belowLC" x="286" y="-22"/>
	<anchor name="baseLC" x="286" y="0"/>
</glyph>
<glyph name="d" format="2">
	<unicode hex="0064"/>
	<advance width="544"/>
	<outline>
		<contour>
			<point x="484" y="568" type="line"/>
			<point x="488" y="708" type="line"/>
			<point x="472" y="720" type="line"/>
			<point x="274" y="676" type="line"/>
			<point x="274" y="644" type="line"/>
			<point x="326" y="636" type="line"/>
			<point x="326" y="412" type="line"/>
			<point x="324" y="400" type="line"/>
			<point x="324" y="68" type="line"/>
			<point x="324" y="-14" type="line"/>
			<point x="528" y="0" type="line"/>
			<point x="528" y="36" type="line"/>
			<point x="486" y="43" type="line"/>
			<point x="485" y="92"/>
			<point x="484" y="155"/>
			<point x="484" y="208" type="curve" smooth="yes"/>
		</contour>
		<contour>
			<point x="358" y="386" type="line"/>
			<point x="350" y="386" type="line"/>
			<point x="311" y="455"/>
			<point x="265" y="476"/>
			<point x="209" y="476" type="curve" smooth="yes"/>
			<point x="105" y="476"/>
			<point x="20" y="379"/>
			<point x="20" y="223" type="curve" smooth="yes"/>
			<point x="20" y="74"/>
			<point x="88" y="-16"/>
			<point x="197" y="-16" type="curve" smooth="yes"/>
			<point x="259" y="-16"/>
			<point x="315" y="20"/>
			<point x="344" y="78" type="curve"/>
			<point x="352" y="78" type="line"/>
			<point x="340" y="96" type="line"/>
			<point x="321" y="69"/>
			<point x="299" y="56"/>
			<point x="273" y="56" type="curve" smooth="yes"/>
			<point x="223" y="56"/>
			<point x="188" y="108"/>
			<point x="188" y="224" type="curve" smooth="yes"/>
			<point x="188" y="345"/>
			<point x="230" y="404"/>
			<point x="277" y="404" type="curve" smooth="yes"/>
			<point x="307" y="404"/>
			<point x="324" y="395"/>
			<point x="348" y="364" type="curve"/>
		</contour>
	</outline>
	<anchor name="aboveLC" x="434" y="710"/>
	<anchor name="belowLC" x="319" y="-22"/>
</glyph>
<glyph name="e" format="2">
	<unicode hex="0065"/>
	<advance width="479"/>
	<outline>
		<contour>
			<point x="25" y="76"/>
			<point x="123" y="-15"/>
			<point x="269" y="-15" type="curve" smooth="yes"/>
			<point x="347" y="-15"/>
			<point x="415" y="19"/>
			<point x="454" y="96" type="curve"/>
			<point x="439" y="110" type="line"/>
			<point x="413" y="86"/>
			<point x="380" y="67"/>
			<point x="330" y="67" type="curve" smooth="yes"/>
			<point x="250" y="67"/>
			<point x="197" y="114"/>
			<point x="197" y="240" type="curve" smooth="yes"/>
			<point x="197" y="403"/>
			<point x="223" y="448"/>
			<point x="263" y="448" type="curve" smooth="yes"/>
			<point x="293" y="448"/>
			<point x="320" y="422"/>
			<point x="320" y="347" type="curve" smooth="yes"/>
			<point x="320" y="288"/>
			<point x="303" y="269"/>
			<point x="240" y="269" type="curve" smooth="yes"/>
			<point x="92" y="269" type="line"/>
			<point x="92" y="239" type="line"/>
			<point x="456" y="239" type="line"/>
			<point x="460" y="257"/>
			<point x="460" y="270"/>
			<point x="460" y="290" type="curve" smooth="yes"/>
			<point x="460" y="394"/>
			<point x="395" y="478"/>
			<point x="265" y="478" type="curve" smooth="yes"/>
			<point x="148" y="478"/>
			<point x="25" y="396"/>
			<point x="25" y="233" type="curve" smooth="yes"/>
		</contour>
	</outline>
	<anchor name="aboveLC" x="259" y="494"/>
	<anchor name="belowLC" x="267" y="-21"/>
	<anchor name="ogonek" x="336" y="0"/>
</glyph>
<glyph name="f" format="2">
	<unicode hex="0066"/>
	<advance width="328"/>
	<outline>
		<contour>
			<point x="224" y="713" type="line"/>
			<point x="254" y="664" type="line" smooth="yes"/>
			<point x="285" y="613"/>
			<point x="315" y="597"/>
			<point x="347" y="597" type="curve" smooth="yes"/>
			<point x="384" y="597"/>
			<point x="412" y="621"/>
			<point x="417" y="658" type="curve"/>
			<point x="406" y="709"/>
			<point x="346" y="732"/>
			<point x="296" y="732" type="curve" smooth="yes"/>
			<point x="242" y="732"/>
			<point x="187" y="715"/>
			<point x="142" y="671" type="curve" smooth="yes"/>
			<point x="106" y="636"/>
			<point x="74" y="568"/>
			<point x="68" y="476" type="curve" smooth="yes"/>
			<point x="65" y="432" type="line"/>
			<point x="92" y="468" type="line"/>
			<point x="12" y="456" type="line"/>
			<point x="12" y="420" type="line"/>
			<point x="64" y="420" type="line"/>
			<point x="64" y="244" type="line"/>
			<point x="64" y="208" type="line" smooth="yes"/>
			<point x="64" y="140"/>
			<point x="62" y="44"/>
			<point x="61" y="0" type="curve"/>
			<point x="227" y="0" type="line"/>
			<point x="226" y="44"/>
			<point x="224" y="140"/>
			<point x="224" y="208" type="curve" smooth="yes"/>
			<point x="224" y="444" type="line"/>
			<point x="218" y="586"/>
			<point x="220" y="668"/>
			<point x="259" y="707" type="curve" smooth="yes"/>
			<point x="270" y="718"/>
			<point x="285" y="715"/>
			<point x="303" y="715" type="curve" smooth="yes"/>
			<point x="313" y="715"/>
			<point x="332" y="706"/>
			<point x="338" y="699" type="curve"/>
			<point x="333" y="723" type="line"/>
		</contour>
		<contour>
			<point x="16" y="0" type="line"/>
			<point x="300" y="0" type="line"/>
			<point x="300" y="36" type="line"/>
			<point x="204" y="48" type="line"/>
			<point x="96" y="48" type="line"/>
			<point x="16" y="36" type="line"/>
		</contour>
		<contour>
			<point x="151" y="420" type="line"/>
			<point x="320" y="420" type="line"/>
			<point x="320" y="460" type="line"/>
			<point x="151" y="460" type="line"/>
		</contour>
	</outline>
	<anchor name="aboveLC" x="293" y="740"/>
	<anchor name="belowLC" x="172" y="-22"/>
</glyph>
<glyph name="g" format="2">
	<unicode hex="0067"/>
	<advance width="516"/>
	<outline>
		<contour>
			<point x="8" y="-138" type="curve" smooth="yes"/>
			<point x="8" y="-193"/>
			<point x="52" y="-240"/>
			<point x="212" y="-240" type="curve" smooth="yes"/>
			<point x="396" y="-240"/>
			<point x="484" y="-141"/>
			<point x="484" y="-46" type="curve" smooth="yes"/>
			<point x="484" y="39"/>
			<point x="428" y="96"/>
			<point x="314" y="96" type="curve" smooth="yes"/>
			<point x="188" y="96" type="line" smooth="yes"/>
			<point x="141" y="96"/>
			<point x="116" y="102"/>
			<point x="116" y="130" type="curve" smooth="yes"/>
			<point x="116" y="162"/>
			<point x="139" y="181"/>
			<point x="152" y="188" type="curve"/>
			<point x="136" y="212" type="line"/>
			<point x="136" y="200" type="line"/>
			<point x="81" y="166"/>
			<point x="28" y="124"/>
			<point x="28" y="56" type="curve" smooth="yes"/>
			<point x="28" y="-25"/>
			<point x="116" y="-48"/>
			<point x="180" y="-48" type="curve" smooth="yes"/>
			<point x="280" y="-48" type="line" smooth="yes"/>
			<point x="336" y="-48"/>
			<point x="368" y="-69"/>
			<point x="368" y="-113" type="curve" smooth="yes"/>
			<point x="368" y="-165"/>
			<point x="316" y="-214"/>
			<point x="216" y="-214" type="curve" smooth="yes"/>
			<point x="132" y="-214"/>
			<point x="104" y="-169"/>
			<point x="104" y="-126" type="curve" smooth="yes"/>
			<point x="104" y="-88"/>
			<point x="123" y="-63"/>
			<point x="166" y="-31" type="curve"/>
			<point x="152" y="-36" type="line"/>
			<point x="89" y="-50"/>
			<point x="8" y="-70"/>
		</contour>
		<contour>
			<point x="384" y="376" type="line"/>
			<point x="504" y="376" type="line"/>
			<point x="504" y="468" type="line"/>
			<point x="492" y="476" type="line"/>
			<point x="380" y="400" type="line"/>
			<point x="376" y="400" type="line"/>
		</contour>
		<contour>
			<point x="230" y="186" type="curve" smooth="yes"/>
			<point x="199" y="186"/>
			<point x="180" y="217"/>
			<point x="180" y="318" type="curve" smooth="yes"/>
			<point x="180" y="419"/>
			<point x="199" y="450"/>
			<point x="230" y="450" type="curve" smooth="yes"/>
			<point x="261" y="450"/>
			<point x="280" y="419"/>
			<point x="280" y="318" type="curve" smooth="yes"/>
			<point x="280" y="217"/>
			<point x="261" y="186"/>
		</contour>
		<contour>
			<point x="230" y="160" type="curve" smooth="yes"/>
			<point x="354" y="160"/>
			<point x="424" y="226"/>
			<point x="424" y="315" type="curve" smooth="yes"/>
			<point x="424" y="406"/>
			<point x="367" y="476"/>
			<point x="230" y="476" type="curve" smooth="yes"/>
			<point x="106" y="476"/>
			<point x="36" y="410"/>
			<point x="36" y="321" type="curve" smooth="yes"/>
			<point x="36" y="230"/>
			<point x="93" y="160"/>
		</contour>
	</outline>
	<anchor name="aboveLC" x="262" y="520"/>
	<anchor name="belowLC" x="256" y="-230"/>
	<anchor name="aboveLC" x="266" y="520"/>
	<anchor name="belowLC" x="260" y="-230"/>
</glyph>
<glyph name="h" format="2">
	<unicode hex="0068"/>
	<advance width="564"/>
	<outline>
		<contour>
			<point x="504" y="329" type="line" smooth="yes"/>
			<point x="504" y="424"/>
			<point x="452" y="476"/>
			<point x="376" y="476" type="curve" smooth="yes"/>
			<point x="308" y="476"/>
			<point x="258" y="447"/>
			<point x="206" y="360" type="curve"/>
			<point x="194" y="360" type="line"/>
			<point x="194" y="324" type="line"/>
			<point x="222" y="362"/>
			<point x="265" y="392"/>
			<point x="298" y="392" type="curve" smooth="yes"/>
			<point x="330" y="392"/>
			<point x="344" y="374"/>
			<point x="344" y="324" type="curve" smooth="yes"/>
			<point x="344" y="208" type="line" smooth="yes"/>
			<point x="344" y="140"/>
			<point x="342" y="44"/>
			<point x="341" y="0" type="curve"/>
			<point x="507" y="0" type="line"/>
			<point x="506" y="44"/>
			<point x="504" y="140"/>
			<point x="504" y="208" type="curve" smooth="yes"/>
		</contour>
		<contour>
			<point x="16" y="0" type="line"/>
			<point x="268" y="0" type="line"/>
			<point x="268" y="36" type="line"/>
			<point x="192" y="48" type="line"/>
			<point x="96" y="48" type="line"/>
			<point x="16" y="36" type="line"/>
		</contour>
		<contour>
			<point x="64" y="208" type="line" smooth="yes"/>
			<point x="64" y="140"/>
			<point x="62" y="44"/>
			<point x="61" y="0" type="curve"/>
			<point x="227" y="0" type="line"/>
			<point x="226" y="44"/>
			<point x="224" y="140"/>
			<point x="224" y="208" type="curve" smooth="yes"/>
			<point x="224" y="364" type="line"/>
			<point x="222" y="368" type="line"/>
			<point x="222" y="568" type="line"/>
			<point x="226" y="708" type="line"/>
			<point x="210" y="720" type="line"/>
			<point x="12" y="676" type="line"/>
			<point x="12" y="644" type="line"/>
			<point x="64" y="636" type="line"/>
		</contour>
		<contour>
			<point x="300" y="0" type="line"/>
			<point x="548" y="0" type="line"/>
			<point x="548" y="36" type="line"/>
			<point x="472" y="48" type="line"/>
			<point x="380" y="48" type="line"/>
			<point x="300" y="36" type="line"/>
		</contour>
	</outline>
	<anchor name="aboveLC" x="152" y="710"/>
	<anchor name="belowLC" x="326" y="-22"/>
</glyph>
<glyph name="i" format="2">
	<unicode hex="0069"/>
	<advance width="295"/>
	<outline>
		<contour>
			<point x="25" y="0" type="line"/>
			<point x="279" y="0" type="line"/>
			<point x="279" y="25" type="line"/>
			<point x="192" y="44" type="line"/>
			<point x="104" y="44" type="line"/>
			<point x="25" y="25" type="line"/>
		</contour>
		<contour>
			<point x="72" y="141"/>
			<point x="71" y="43"/>
			<point x="70" y="0" type="curve"/>
			<point x="238" y="0" type="line"/>
			<point x="236" y="43"/>
			<point x="235" y="141"/>
			<point x="235" y="200" type="curve" smooth="yes"/>
			<point x="235" y="326" type="line"/>
			<point x="238" y="467" type="line"/>
			<point x="222" y="478" type="line"/>
			<point x="15" y="422" type="line"/>
			<point x="15" y="403" type="line"/>
			<point x="70" y="395" type="line"/>
			<point x="71" y="348"/>
			<point x="72" y="310"/>
			<point x="72" y="245" type="curve" smooth="yes"/>
			<point x="72" y="200" type="line" smooth="yes"/>
		</contour>
		<contour>
			<point x="152" y="542" type="curve" smooth="yes"/>
			<point x="196" y="542"/>
			<point x="232" y="574"/>
			<point x="232" y="620" type="curve" smooth="yes"/>
			<point x="232" y="665"/>
			<point x="196" y="697"/>
			<point x="152" y="697" type="curve" smooth="yes"/>
			<point x="108" y="697"/>
			<point x="72" y="665"/>
			<point x="72" y="620" type="curve" smooth="yes"/>
			<point x="72" y="574"/>
			<point x="108" y="542"/>
		</contour>
	</outline>
	<anchor name="aboveLC" x="152" y="692"/>
	<anchor name="belowLC" x="157" y="-21"/>
	<anchor name="ogonek" x="185" y="0"/>
</glyph>
<glyph name="j" format="2">
	<unicode hex="006A"/>
	<advance width="280"/>
	<outline>
		<contour>
			<point x="144" y="564" type="curve" smooth="yes"/>
			<point x="188" y="564"/>
			<point x="224" y="596"/>
			<point x="224" y="642" type="curve" smooth="yes"/>
			<point x="224" y="688"/>
			<point x="188" y="720"/>
			<point x="144" y="720" type="curve" smooth="yes"/>
			<point x="100" y="720"/>
			<point x="64" y="688"/>
			<point x="64" y="642" type="curve" smooth="yes"/>
			<point x="64" y="596"/>
			<point x="100" y="564"/>
		</contour>
		<contour>
			<point x="88" y="-216" type="line"/>
			<point x="57" y="-174" type="line" smooth="yes"/>
			<point x="23" y="-127"/>
			<point x="-6" y="-115"/>
			<point x="-37" y="-115" type="curve" smooth="yes"/>
			<point x="-76" y="-115"/>
			<point x="-102" y="-139"/>
			<point x="-106" y="-174" type="curve"/>
			<point x="-93" y="-225"/>
			<point x="-38" y="-240"/>
			<point x="20" y="-240" type="curve" smooth="yes"/>
			<point x="59" y="-240"/>
			<point x="118" y="-228"/>
			<point x="167" y="-179" type="curve" smooth="yes"/>
			<point x="207" y="-140"/>
			<point x="224" y="-101"/>
			<point x="224" y="-15" type="curve" smooth="yes"/>
			<point x="224" y="324" type="line"/>
			<point x="228" y="464" type="line"/>
			<point x="212" y="476" type="line"/>
			<point x="12" y="420" type="line"/>
			<point x="12" y="388" type="line"/>
			<point x="60" y="380" type="line"/>
			<point x="61" y="333"/>
			<point x="64" y="297"/>
			<point x="64" y="232" type="curve" smooth="yes"/>
			<point x="64" y="20" type="line" smooth="yes"/>
			<point x="64" y="-36"/>
			<point x="76" y="-130"/>
			<point x="76" y="-172" type="curve" smooth="yes"/>
			<point x="76" y="-206"/>
			<point x="51" y="-212"/>
			<point x="23" y="-212" type="curve"/>
			<point x="23" y="-226" type="line"/>
		</contour>
	</outline>
	<anchor name="aboveLC" x="162" y="728"/>
	<anchor name="belowLC" x="82" y="-249"/>
</glyph>
<glyph name="k" format="2">
	<unicode hex="006B"/>
	<advance width="548"/>
	<outline>
		<contour>
			<point x="124" y="116" type="line"/>
			<point x="488" y="460" type="line"/>
			<point x="428" y="460" type="line"/>
			<point x="140" y="176" type="line"/>
		</contour>
		<contour>
			<point x="328" y="0" type="line"/>
			<point x="536" y="0" type="line"/>
			<point x="536" y="36" type="line"/>
			<point x="494" y="42" type="line"/>
			<point x="360" y="348" type="line"/>
			<point x="236" y="244" type="line"/>
		</contour>
		<contour>
			<point x="312" y="424" type="line"/>
			<point x="396" y="412" type="line"/>
			<point x="424" y="412" type="line"/>
			<point x="516" y="424" type="line"/>
			<point x="516" y="460" type="line"/>
			<point x="312" y="460" type="line"/>
		</contour>
		<contour>
			<point x="16" y="0" type="line"/>
			<point x="268" y="0" type="line"/>
			<point x="268" y="36" type="line"/>
			<point x="192" y="48" type="line"/>
			<point x="96" y="48" type="line"/>
			<point x="16" y="36" type="line"/>
		</contour>
		<contour>
			<point x="64" y="208" type="line" smooth="yes"/>
			<point x="64" y="140"/>
			<point x="62" y="44"/>
			<point x="61" y="0" type="curve"/>
			<point x="227" y="0" type="line"/>
			<point x="226" y="44"/>
			<point x="224" y="140"/>
			<point x="224" y="208" type="curve" smooth="yes"/>
			<point x="224" y="568" type="line"/>
			<point x="228" y="708" type="line"/>
			<point x="212" y="720" type="line"/>
			<point x="12" y="676" type="line"/>
			<point x="12" y="644" type="line"/>
			<point x="64" y="636" type="line"/>
		</contour>
	</outline>
	<anchor name="aboveLC" x="165" y="710"/>
	<anchor name="belowLC" x="339" y="-22"/>
</glyph>
<glyph name="l" format="2">
	<unicode hex="006C"/>
	<advance width="304"/>
	<outline>
		<contour>
			<point x="25" y="0" type="line"/>
			<point x="283" y="0" type="line"/>
			<point x="283" y="48" type="line"/>
			<point x="194" y="67" type="line"/>
			<point x="106" y="67" type="line"/>
			<point x="25" y="48" type="line"/>
		</contour>
		<contour>
			<point x="67" y="133"/>
			<point x="66" y="66"/>
			<point x="65" y="0" type="curve"/>
			<point x="243" y="0" type="line"/>
			<point x="241" y="66"/>
			<point x="240" y="133"/>
			<point x="240" y="200" type="curve" smooth="yes"/>
			<point x="240" y="542" type="line"/>
			<point x="244" y="674" type="line"/>
			<point x="228" y="685" type="line"/>
			<point x="18" y="642" type="line"/>
			<point x="18" y="599" type="line"/>
			<point x="67" y="590" type="line"/>
			<point x="67" y="200" type="line" smooth="yes"/>
		</contour>
	</outline>
	<anchor name="aboveLC" x="147" y="674"/>
	<anchor name="belowLC" x="159" y="-21"/>
</glyph>
<glyph name="m" format="2">
	<unicode hex="006D"/>
	<advance width="818"/>
	<outline>
		<contour>
			<point x="16" y="0" type="line"/>
			<point x="262" y="0" type="line"/>
			<point x="262" y="25" type="line"/>
			<point x="183" y="44" type="line"/>
			<point x="94" y="44" type="line"/>
			<point x="16" y="25" type="line"/>
		</contour>
		<contour>
			<point x="56" y="0" type="curve"/>
			<point x="225" y="0" type="line"/>
			<point x="224" y="73"/>
			<point x="222" y="141"/>
			<point x="222" y="200" type="curve" smooth="yes"/>
			<point x="222" y="374" type="line"/>
			<point x="214" y="474" type="line"/>
			<point x="205" y="478" type="line"/>
			<point x="7" y="422" type="line"/>
			<point x="7" y="402" type="line"/>
			<point x="56" y="394" type="line"/>
			<point x="58" y="345"/>
			<point x="59" y="325"/>
			<point x="59" y="258" type="curve" smooth="yes"/>
			<point x="59" y="200" type="line" smooth="yes"/>
			<point x="59" y="141"/>
			<point x="58" y="73"/>
		</contour>
		<contour>
			<point x="289" y="0" type="line"/>
			<point x="536" y="0" type="line"/>
			<point x="536" y="25" type="line"/>
			<point x="447" y="44" type="line"/>
			<point x="359" y="44" type="line"/>
			<point x="289" y="25" type="line"/>
		</contour>
		<contour>
			<point x="331" y="0" type="curve"/>
			<point x="500" y="0" type="line"/>
			<point x="499" y="73"/>
			<point x="497" y="139"/>
			<point x="497" y="200" type="curve" smooth="yes"/>
			<point x="497" y="319" type="line" smooth="yes"/>
			<point x="497" y="423"/>
			<point x="438" y="478"/>
			<point x="365" y="478" type="curve" smooth="yes"/>
			<point x="298" y="478"/>
			<point x="252" y="452"/>
			<point x="200" y="364" type="curve"/>
			<point x="188" y="364" type="line"/>
			<point x="189" y="325" type="line"/>
			<point x="218" y="368"/>
			<point x="258" y="396"/>
			<point x="283" y="396" type="curve" smooth="yes"/>
			<point x="319" y="396"/>
			<point x="334" y="377"/>
			<point x="334" y="327" type="curve" smooth="yes"/>
			<point x="334" y="200" type="line" smooth="yes"/>
			<point x="334" y="139"/>
			<point x="333" y="73"/>
		</contour>
		<contour>
			<point x="561" y="0" type="line"/>
			<point x="808" y="0" type="line"/>
			<point x="808" y="25" type="line"/>
			<point x="719" y="44" type="line"/>
			<point x="631" y="44" type="line"/>
			<point x="561" y="25" type="line"/>
		</contour>
		<contour>
			<point x="603" y="0" type="curve"/>
			<point x="772" y="0" type="line"/>
			<point x="771" y="73"/>
			<point x="769" y="139"/>
			<point x="769" y="200" type="curve" smooth="yes"/>
			<point x="769" y="319" type="line" smooth="yes"/>
			<point x="769" y="423"/>
			<point x="710" y="478"/>
			<point x="637" y="478" type="curve" smooth="yes"/>
			<point x="571" y="478"/>
			<point x="525" y="452"/>
			<point x="473" y="366" type="curve"/>
			<point x="460" y="366" type="line"/>
			<point x="467" y="325" type="line"/>
			<point x="496" y="368"/>
			<point x="530" y="396"/>
			<point x="555" y="396" type="curve" smooth="yes"/>
			<point x="591" y="396"/>
			<point x="606" y="377"/>
			<point x="606" y="327" type="curve" smooth="yes"/>
			<point x="606" y="200" type="line" smooth="yes"/>
			<point x="606" y="139"/>
			<point x="605" y="73"/>
		</contour>
	</outline>
	<anchor name="aboveLC" x="417" y="494"/>
	<anchor name="belowLC" x="416" y="-21"/>
</glyph>
<glyph name="n" format="2">
	<unicode hex="006E"/>
	<advance width="554"/>
	<outline>
		<contour>
			<point x="16" y="0" type="line"/>
			<point x="262" y="0" type="line"/>
			<point x="262" y="25" type="line"/>
			<point x="183" y="44" type="line"/>
			<point x="94" y="44" type="line"/>
			<point x="16" y="25" type="line"/>
		</contour>
		<contour>
			<point x="56" y="0" type="curve"/>
			<point x="225" y="0" type="line"/>
			<point x="224" y="73"/>
			<point x="222" y="141"/>
			<point x="222" y="200" type="curve" smooth="yes"/>
			<point x="222" y="374" type="line"/>
			<point x="214" y="474" type="line"/>
			<point x="205" y="478" type="line"/>
			<point x="7" y="422" type="line"/>
			<point x="7" y="402" type="line"/>
			<point x="56" y="394" type="line"/>
			<point x="58" y="345"/>
			<point x="59" y="325"/>
			<point x="59" y="258" type="curve" smooth="yes"/>
			<point x="59" y="200" type="line" smooth="yes"/>
			<point x="59" y="141"/>
			<point x="58" y="73"/>
		</contour>
		<contour>
			<point x="297" y="0" type="line"/>
			<point x="544" y="0" type="line"/>
			<point x="544" y="25" type="line"/>
			<point x="455" y="44" type="line"/>
			<point x="367" y="44" type="line"/>
			<point x="297" y="25" type="line"/>
		</contour>
		<contour>
			<point x="339" y="0" type="curve"/>
			<point x="508" y="0" type="line"/>
			<point x="507" y="73"/>
			<point x="505" y="139"/>
			<point x="505" y="200" type="curve" smooth="yes"/>
			<point x="505" y="319" type="line" smooth="yes"/>
			<point x="505" y="423"/>
			<point x="446" y="478"/>
			<point x="373" y="478" type="curve" smooth="yes"/>
			<point x="307" y="478"/>
			<point x="261" y="453"/>
			<point x="209" y="366" type="curve"/>
			<point x="197" y="366" type="line"/>
			<point x="197" y="325" type="line"/>
			<point x="226" y="368"/>
			<point x="266" y="396"/>
			<point x="291" y="396" type="curve" smooth="yes"/>
			<point x="327" y="396"/>
			<point x="342" y="377"/>
			<point x="342" y="327" type="curve" smooth="yes"/>
			<point x="342" y="200" type="line" smooth="yes"/>
			<point x="342" y="139"/>
			<point x="341" y="73"/>
		</contour>
	</outline>
	<anchor name="aboveLC" x="293" y="494"/>
	<anchor name="belowLC" x="286" y="-21"/>
</glyph>
<glyph name="o" format="2">
	<unicode hex="006F"/>
	<advance width="510"/>
	<outline>
		<contour>
			<point x="255" y="-15" type="curve" smooth="yes"/>
			<point x="405" y="-15"/>
			<point x="485" y="90"/>
			<point x="485" y="235" type="curve" smooth="yes"/>
			<point x="485" y="379"/>
			<point x="389" y="478"/>
			<point x="255" y="478" type="curve" smooth="yes"/>
			<point x="121" y="478"/>
			<point x="25" y="376"/>
			<point x="25" y="235" type="curve" smooth="yes"/>
			<point x="25" y="93"/>
			<point x="106" y="-15"/>
		</contour>
		<contour>
			<point x="255" y="15" type="curve" smooth="yes"/>
			<point x="215" y="15"/>
			<point x="197" y="57"/>
			<point x="197" y="232" type="curve" smooth="yes"/>
			<point x="197" y="406"/>
			<point x="215" y="448"/>
			<point x="255" y="448" type="curve" smooth="yes"/>
			<point x="295" y="448"/>
			<point x="313" y="406"/>
			<point x="313" y="232" type="curve" smooth="yes"/>
			<point x="313" y="57"/>
			<point x="295" y="15"/>
		</contour>
	</outline>
	<anchor name="aboveLC" x="255" y="494"/>
	<anchor name="belowLC" x="253" y="-21"/>
	<anchor name="hornLC" x="376" y="465"/>
	<anchor name="ogonek" x="328" y="0"/>
</glyph>
<glyph name="p" format="2">
	<unicode hex="0070"/>
	<advance width="548"/>
	<outline>
		<contour>
			<point x="17" y="-230" type="line"/>
			<point x="280" y="-230" type="line"/>
			<point x="280" y="-205" type="line"/>
			<point x="213" y="-185" type="line"/>
			<point x="98" y="-185" type="line"/>
			<point x="17" y="-205" type="line"/>
		</contour>
		<contour>
			<point x="59" y="-69"/>
			<point x="58" y="-139"/>
			<point x="57" y="-230" type="curve"/>
			<point x="221" y="-230" type="line"/>
			<point x="219" y="-139"/>
			<point x="219" y="-69"/>
			<point x="219" y="-11" type="curve" smooth="yes"/>
			<point x="219" y="56" type="line"/>
			<point x="222" y="60" type="line"/>
			<point x="222" y="400" type="line"/>
			<point x="221" y="407" type="line"/>
			<point x="213" y="469" type="line"/>
			<point x="198" y="478" type="line"/>
			<point x="7" y="422" type="line"/>
			<point x="7" y="403" type="line"/>
			<point x="57" y="395" type="line"/>
			<point x="58" y="353"/>
			<point x="59" y="336"/>
			<point x="59" y="278" type="curve" smooth="yes"/>
			<point x="59" y="-11" type="line" smooth="yes"/>
		</contour>
		<contour>
			<point x="240" y="15"/>
			<point x="274" y="-15"/>
			<point x="337" y="-15" type="curve" smooth="yes"/>
			<point x="429" y="-15"/>
			<point x="523" y="78"/>
			<point x="523" y="236" type="curve" smooth="yes"/>
			<point x="523" y="396"/>
			<point x="446" y="478"/>
			<point x="349" y="478" type="curve" smooth="yes"/>
			<point x="292" y="478"/>
			<point x="241" y="450"/>
			<point x="209" y="394" type="curve"/>
			<point x="189" y="394" type="line"/>
			<point x="195" y="362" type="line"/>
			<point x="216" y="393"/>
			<point x="240" y="404"/>
			<point x="265" y="404" type="curve" smooth="yes"/>
			<point x="319" y="404"/>
			<point x="355" y="351"/>
			<point x="355" y="234" type="curve" smooth="yes"/>
			<point x="355" y="111"/>
			<point x="317" y="56"/>
			<point x="260" y="56" type="curve" smooth="yes"/>
			<point x="233" y="56"/>
			<point x="215" y="70"/>
			<point x="195" y="92" type="curve"/>
			<point x="189" y="61" type="line"/>
			<point x="206" y="61" type="line"/>
		</contour>
	</outline>
	<anchor name="aboveLC" x="282" y="494"/>
	<anchor name="belowLC" x="152" y="-228"/>
</glyph>
<glyph name="q" format="2">
	<unicode hex="0071"/>
	<advance width="532"/>
	<outline>
		<contour>
			<point x="484" y="244" type="line"/>
			<point x="488" y="468" type="line"/>
			<point x="468" y="478" type="line"/>
			<point x="324" y="408" type="line"/>
			<point x="324" y="61" type="line"/>
			<point x="326" y="60" type="line"/>
			<point x="326" y="-32" type="line" smooth="yes"/>
			<point x="326" y="-100"/>
			<point x="324" y="-196"/>
			<point x="323" y="-240" type="curve"/>
			<point x="487" y="-240" type="line"/>
			<point x="486" y="-196"/>
			<point x="484" y="-100"/>
			<point x="484" y="-32" type="curve" smooth="yes"/>
		</contour>
		<contour>
			<point x="358" y="390" type="line"/>
			<point x="350" y="390" type="line"/>
			<point x="311" y="455"/>
			<point x="265" y="476"/>
			<point x="209" y="476" type="curve" smooth="yes"/>
			<point x="105" y="476"/>
			<point x="20" y="379"/>
			<point x="20" y="223" type="curve" smooth="yes"/>
			<point x="20" y="74"/>
			<point x="88" y="-16"/>
			<point x="197" y="-16" type="curve" smooth="yes"/>
			<point x="259" y="-16"/>
			<point x="315" y="20"/>
			<point x="344" y="78" type="curve"/>
			<point x="352" y="78" type="line"/>
			<point x="340" y="96" type="line"/>
			<point x="321" y="69"/>
			<point x="299" y="56"/>
			<point x="273" y="56" type="curve" smooth="yes"/>
			<point x="223" y="56"/>
			<point x="188" y="108"/>
			<point x="188" y="224" type="curve" smooth="yes"/>
			<point x="188" y="345"/>
			<point x="230" y="404"/>
			<point x="277" y="404" type="curve" smooth="yes"/>
			<point x="307" y="404"/>
			<point x="324" y="395"/>
			<point x="348" y="364" type="curve"/>
		</contour>
		<contour>
			<point x="532" y="-204" type="line"/>
			<point x="452" y="-192" type="line"/>
			<point x="344" y="-192" type="line"/>
			<point x="248" y="-204" type="line"/>
			<point x="248" y="-240" type="line"/>
			<point x="532" y="-240" type="line"/>
		</contour>
	</outline>
	<anchor name="aboveLC" x="336" y="520"/>
	<anchor name="belowLC" x="448" y="-240"/>
</glyph>
<glyph name="r" format="2">
	<unicode hex="0072"/>
	<advance width="435"/>
	<outline>
		<contour>
			<point x="16" y="0" type="line"/>
			<point x="262" y="0" type="line"/>
			<point x="262" y="25" type="line"/>
			<point x="183" y="44" type="line"/>
			<point x="94" y="44" type="line"/>
			<point x="16" y="25" type="line"/>
		</contour>
		<contour>
			<point x="56" y="0" type="curve"/>
			<point x="225" y="0" type="line"/>
			<point x="224" y="73"/>
			<point x="222" y="141"/>
			<point x="222" y="200" type="curve" smooth="yes"/>
			<point x="222" y="374" type="line"/>
			<point x="214" y="474" type="line"/>
			<point x="205" y="478" type="line"/>
			<point x="7" y="422" type="line"/>
			<point x="7" y="402" type="line"/>
			<point x="56" y="394" type="line"/>
			<point x="58" y="345"/>
			<point x="59" y="325"/>
			<point x="59" y="258" type="curve" smooth="yes"/>
			<point x="59" y="200" type="line" smooth="yes"/>
			<point x="59" y="141"/>
			<point x="58" y="73"/>
		</contour>
		<contour>
			<point x="216" y="286" type="line"/>
			<point x="224" y="330"/>
			<point x="257" y="381"/>
			<point x="280" y="404" type="curve"/>
			<point x="253" y="409" type="line"/>
			<point x="275" y="370" type="line" smooth="yes"/>
			<point x="296" y="333"/>
			<point x="320" y="317"/>
			<point x="350" y="317" type="curve" smooth="yes"/>
			<point x="394" y="317"/>
			<point x="419" y="350"/>
			<point x="425" y="404" type="curve"/>
			<point x="415" y="452"/>
			<point x="382" y="478"/>
			<point x="345" y="478" type="curve" smooth="yes"/>
			<point x="291" y="478"/>
			<point x="235" y="427"/>
			<point x="215" y="328" type="curve"/>
			<point x="199" y="328" type="line"/>
		</contour>
	</outline>
	<anchor name="aboveLC" x="252" y="494"/>
	<anchor name="belowLC" x="160" y="-21"/>
</glyph>
<glyph name="s" format="2">
	<unicode hex="0073"/>
	<advance width="411"/>
	<outline>
		<contour>
			<point x="191" y="-15" type="curve" smooth="yes"/>
			<point x="310" y="-15"/>
			<point x="390" y="40"/>
			<point x="390" y="148" type="curve" smooth="yes"/>
			<point x="390" y="219"/>
			<point x="353" y="263"/>
			<point x="275" y="290" type="curve" smooth="yes"/>
			<point x="229" y="306" type="line" smooth="yes"/>
			<point x="157" y="331"/>
			<point x="141" y="358"/>
			<point x="141" y="388" type="curve" smooth="yes"/>
			<point x="141" y="428"/>
			<point x="169" y="448"/>
			<point x="214" y="448" type="curve" smooth="yes"/>
			<point x="259" y="448"/>
			<point x="274" y="440"/>
			<point x="306" y="419" type="curve"/>
			<point x="306" y="432" type="line"/>
			<point x="269" y="458" type="line"/>
			<point x="308" y="332" type="line"/>
			<point x="358" y="332" type="line"/>
			<point x="366" y="440" type="line"/>
			<point x="318" y="465"/>
			<point x="275" y="478"/>
			<point x="222" y="478" type="curve" smooth="yes"/>
			<point x="97" y="478"/>
			<point x="29" y="409"/>
			<point x="29" y="320" type="curve" smooth="yes"/>
			<point x="29" y="257"/>
			<point x="69" y="205"/>
			<point x="135" y="180" type="curve" smooth="yes"/>
			<point x="183" y="162" type="line" smooth="yes"/>
			<point x="258" y="134"/>
			<point x="272" y="113"/>
			<point x="272" y="75" type="curve" smooth="yes"/>
			<point x="272" y="41"/>
			<point x="246" y="15"/>
			<point x="195" y="15" type="curve" smooth="yes"/>
			<point x="145" y="15"/>
			<point x="116" y="26"/>
			<point x="75" y="50" type="curve"/>
			<point x="75" y="37" type="line"/>
			<point x="116" y="20" type="line"/>
			<point x="79" y="153" type="line"/>
			<point x="29" y="153" type="line"/>
			<point x="25" y="31" type="line"/>
			<point x="71" y="0"/>
			<point x="135" y="-15"/>
		</contour>
	</outline>
	<anchor name="aboveLC" x="218" y="494"/>
	<anchor name="belowLC" x="204" y="-21"/>
	<anchor name="baseLC" x="203" y="0"/>
</glyph>
<glyph name="t" format="2">
	<unicode hex="0074"/>
	<advance width="344"/>
	<outline>
		<contour>
			<point x="63" y="120" type="curve" smooth="yes"/>
			<point x="63" y="26"/>
			<point x="114" y="-16"/>
			<point x="204" y="-16" type="curve" smooth="yes"/>
			<point x="284" y="-16"/>
			<point x="324" y="16"/>
			<point x="348" y="72" type="curve"/>
			<point x="332" y="83" type="line"/>
			<point x="316" y="64"/>
			<point x="306" y="52"/>
			<point x="276" y="52" type="curve" smooth="yes"/>
			<point x="248" y="52"/>
			<point x="224" y="66"/>
			<point x="224" y="112" type="curve" smooth="yes"/>
			<point x="224" y="436" type="line"/>
			<point x="224" y="448" type="line"/>
			<point x="228" y="612" type="line"/>
			<point x="144" y="612" type="line"/>
			<point x="60" y="448" type="line"/>
			<point x="124" y="474" type="line"/>
			<point x="16" y="456" type="line"/>
			<point x="16" y="420" type="line"/>
			<point x="64" y="420" type="line"/>
			<point x="64" y="244" type="line" smooth="yes"/>
			<point x="64" y="189"/>
			<point x="63" y="164"/>
		</contour>
		<contour>
			<point x="148" y="420" type="line"/>
			<point x="320" y="420" type="line"/>
			<point x="320" y="460" type="line"/>
			<point x="148" y="460" type="line"/>
		</contour>
	</outline>
	<anchor name="aboveLC" x="197" y="648"/>
	<anchor name="belowLC" x="222" y="-22"/>
	<anchor name="baseLC" x="222" y="0"/>
</glyph>
<glyph name="u" format="2">
	<unicode hex="0075"/>
	<advance width="561"/>
	<outline>
		<contour>
			<point x="49" y="30"/>
			<point x="104" y="-15"/>
			<point x="184" y="-15" type="curve" smooth="yes"/>
			<point x="254" y="-15"/>
			<point x="307" y="24"/>
			<point x="346" y="90" type="curve"/>
			<point x="361" y="90" type="line"/>
			<point x="361" y="136" type="line"/>
			<point x="333" y="88"/>
			<point x="294" y="67"/>
			<point x="268" y="67" type="curve" smooth="yes"/>
			<point x="236" y="67"/>
			<point x="216" y="83"/>
			<point x="216" y="118" type="curve" smooth="yes"/>
			<point x="216" y="328" type="line"/>
			<point x="220" y="463" type="line"/>
			<point x="204" y="473" type="line"/>
			<point x="12" y="430" type="line"/>
			<point x="12" y="410" type="line"/>
			<point x="88" y="396" type="line"/>
			<point x="55" y="416" type="line"/>
			<point x="51" y="156" type="line" smooth="yes"/>
		</contour>
		<contour>
			<point x="341" y="-11" type="line"/>
			<point x="541" y="-1" type="line"/>
			<point x="541" y="24" type="line"/>
			<point x="499" y="33" type="line"/>
			<point x="499" y="328" type="line"/>
			<point x="502" y="463" type="line"/>
			<point x="485" y="473" type="line"/>
			<point x="294" y="425" type="line"/>
			<point x="294" y="405" type="line"/>
			<point x="338" y="398" type="line"/>
			<point x="335" y="91" type="line"/>
		</contour>
	</outline>
	<anchor name="aboveLC" x="277" y="494"/>
	<anchor name="belowLC" x="280" y="-21"/>
	<anchor name="hornLC" x="489" y="443"/>
	<anchor name="ogonek" x="454" y="0"/>
</glyph>
<glyph name="v" format="2">
	<unicode hex="0076"/>
	<advance width="488"/>
	<outline>
		<contour>
			<point x="204" y="0" type="line"/>
			<point x="265" y="0" type="line"/>
			<point x="439" y="463" type="line"/>
			<point x="394" y="463" type="line"/>
			<point x="284" y="132" type="line"/>
			<point x="302" y="132" type="line"/>
			<point x="197" y="463" type="line"/>
			<point x="13" y="463" type="line"/>
		</contour>
		<contour>
			<point x="-9" y="438" type="line"/>
			<point x="71" y="421" type="line"/>
			<point x="193" y="421" type="line"/>
			<point x="265" y="438" type="line"/>
			<point x="265" y="463" type="line"/>
			<point x="-9" y="463" type="line"/>
		</contour>
		<contour>
			<point x="332" y="438" type="line"/>
			<point x="399" y="426" type="line"/>
			<point x="421" y="426" type="line"/>
			<point x="480" y="438" type="line"/>
			<point x="480" y="463" type="line"/>
			<point x="332" y="463" type="line"/>
		</contour>
	</outline>
	<anchor name="aboveLC" x="272" y="494"/>
	<anchor name="belowLC" x="238" y="-21"/>
</glyph>
<glyph name="w" format="2">
	<unicode hex="0077"/>
	<advance width="728"/>
	<outline>
		<contour>
			<point x="169" y="0" type="line"/>
			<point x="251" y="0" type="line"/>
			<point x="359" y="321" type="line"/>
			<point x="339" y="321" type="line"/>
			<point x="448" y="0" type="line"/>
			<point x="530" y="0" type="line"/>
			<point x="689" y="463" type="line"/>
			<point x="620" y="463" type="line"/>
			<point x="526" y="167" type="line"/>
			<point x="543" y="167" type="line"/>
			<point x="457" y="463" type="line"/>
			<point x="347" y="463" type="line"/>
			<point x="251" y="159" type="line"/>
			<point x="268" y="159" type="line"/>
			<point x="184" y="463" type="line"/>
			<point x="9" y="463" type="line"/>
		</contour>
		<contour>
			<point x="-9" y="418" type="line"/>
			<point x="79" y="404" type="line"/>
			<point x="138" y="404" type="line"/>
			<point x="244" y="418" type="line"/>
			<point x="244" y="463" type="line"/>
			<point x="-9" y="463" type="line"/>
		</contour>
		<contour>
			<point x="283" y="418" type="line"/>
			<point x="379" y="404" type="line"/>
			<point x="426" y="404" type="line"/>
			<point x="514" y="418" type="line"/>
			<point x="514" y="463" type="line"/>
			<point x="283" y="463" type="line"/>
		</contour>
		<contour>
			<point x="558" y="418" type="line"/>
			<point x="630" y="408" type="line"/>
			<point x="644" y="408" type="line"/>
			<point x="723" y="418" type="line"/>
			<point x="723" y="463" type="line"/>
			<point x="558" y="463" type="line"/>
		</contour>
	</outline>
	<anchor name="aboveLC" x="386" y="494"/>
	<anchor name="belowLC" x="365" y="-21"/>
</glyph>
<glyph name="x" format="2">
	<unicode hex="0078"/>
	<advance width="514"/>
	<outline>
		<contour>
			<point x="12" y="424" type="line"/>
			<point x="80" y="412" type="line"/>
			<point x="210" y="412" type="line"/>
			<point x="290" y="424" type="line"/>
			<point x="290" y="460" type="line"/>
			<point x="12" y="460" type="line"/>
		</contour>
		<contour>
			<point x="300" y="196" type="line"/>
			<point x="472" y="460" type="line"/>
			<point x="422" y="460" type="line"/>
			<point x="274" y="208" type="line"/>
		</contour>
		<contour>
			<point x="492" y="460" type="line"/>
			<point x="344" y="460" type="line"/>
			<point x="344" y="424" type="line"/>
			<point x="416" y="416" type="line"/>
			<point x="424" y="416" type="line"/>
			<point x="492" y="424" type="line"/>
		</contour>
		<contour>
			<point x="502" y="36" type="line"/>
			<point x="434" y="48" type="line"/>
			<point x="304" y="48" type="line"/>
			<point x="224" y="36" type="line"/>
			<point x="224" y="0" type="line"/>
			<point x="502" y="0" type="line"/>
		</contour>
		<contour>
			<point x="188" y="202" type="line"/>
			<point x="296" y="0" type="line"/>
			<point x="478" y="0" type="line"/>
			<point x="329" y="256" type="line"/>
			<point x="218" y="460" type="line"/>
			<point x="36" y="460" type="line"/>
		</contour>
		<contour>
			<point x="204" y="264" type="line"/>
			<point x="32" y="0" type="line"/>
			<point x="82" y="0" type="line"/>
			<point x="232" y="252" type="line"/>
		</contour>
		<contour>
			<point x="12" y="0" type="line"/>
			<point x="160" y="0" type="line"/>
			<point x="160" y="36" type="line"/>
			<point x="88" y="44" type="line"/>
			<point x="80" y="44" type="line"/>
			<point x="12" y="36" type="line"/>
		</contour>
	</outline>
	<anchor name="aboveLC" x="288" y="520"/>
	<anchor name="belowLC" x="258" y="-22"/>
</glyph>
<glyph name="y" format="2">
	<unicode hex="0079"/>
	<advance width="484"/>
	<outline>
		<contour>
			<point x="228" y="-68" type="line"/>
			<point x="310" y="132" type="line"/>
			<point x="194" y="460" type="line"/>
			<point x="20" y="460" type="line"/>
		</contour>
		<contour>
			<point x="-8" y="428" type="line"/>
			<point x="60" y="412" type="line"/>
			<point x="194" y="412" type="line"/>
			<point x="274" y="428" type="line"/>
			<point x="274" y="460" type="line"/>
			<point x="-8" y="460" type="line"/>
		</contour>
		<contour>
			<point x="480" y="460" type="line"/>
			<point x="332" y="460" type="line"/>
			<point x="332" y="428" type="line"/>
			<point x="412" y="416" type="line"/>
			<point x="420" y="416" type="line"/>
			<point x="480" y="428" type="line"/>
		</contour>
		<contour>
			<point x="169" y="-198" type="line"/>
			<point x="151" y="-174" type="line" smooth="yes"/>
			<point x="116" y="-128"/>
			<point x="88" y="-115"/>
			<point x="57" y="-115" type="curve" smooth="yes"/>
			<point x="18" y="-115"/>
			<point x="-8" y="-139"/>
			<point x="-12" y="-174" type="curve"/>
			<point x="1" y="-225"/>
			<point x="52" y="-240"/>
			<point x="90" y="-240" type="curve" smooth="yes"/>
			<point x="164" y="-240"/>
			<point x="204" y="-188"/>
			<point x="237" y="-102" type="curve" smooth="yes"/>
			<point x="452" y="460" type="line"/>
			<point x="408" y="460" type="line"/>
			<point x="296" y="132" type="line"/>
			<point x="242" y="8" type="line"/>
			<point x="206" y="-86" type="line" smooth="yes"/>
			<point x="178" y="-159"/>
			<point x="156" y="-178"/>
			<point x="124" y="-199" type="curve"/>
			<point x="152" y="-212" type="line"/>
		</contour>
	</outline>
	<anchor name="aboveLC" x="300" y="520"/>
	<anchor name="belowLC" x="153" y="-240"/>
</glyph>
<glyph name="z" format="2">
	<unicode hex="007A"/>
	<advance width="428"/>
	<outline>
		<contour>
			<point x="12" y="0" type="line"/>
			<point x="408" y="0" type="line"/>
			<point x="416" y="160" type="line"/>
			<point x="370" y="160" type="line"/>
			<point x="325" y="17" type="line"/>
			<point x="373" y="32" type="line"/>
			<point x="168" y="32" type="line"/>
			<point x="184" y="20" type="line"/>
			<point x="408" y="420" type="line"/>
			<point x="408" y="460" type="line"/>
			<point x="24" y="460" type="line"/>
			<point x="16" y="304" type="line"/>
			<point x="62" y="298" type="line"/>
			<point x="107" y="443" type="line"/>
			<point x="59" y="428" type="line"/>
			<point x="252" y="428" type="line"/>
			<point x="236" y="440" type="line"/>
			<point x="12" y="40" type="line"/>
		</contour>
	</outline>
	<anchor name="aboveLC" x="249" y="520"/>
	<anchor name="belowLC" x="246" y="-22"/>
</glyph>
<glyph name="braceleft" format="2">
	<unicode hex="007B"/>
	<advance width="334"/>
	<outline>
		<contour>
			<point x="76" y="276" type="line"/>
			<point x="193" y="284"/>
			<point x="248" y="334"/>
			<point x="248" y="416" type="curve" smooth="yes"/>
			<point x="248" y="475"/>
			<point x="220" y="568"/>
			<point x="220" y="616" type="curve" smooth="yes"/>
			<point x="220" y="657"/>
			<point x="233" y="682"/>
			<point x="276" y="688" type="curve" smooth="yes"/>
			<point x="304" y="692" type="line"/>
			<point x="304" y="716" type="line"/>
			<point x="276" y="716" type="line" smooth="yes"/>
			<point x="165" y="716"/>
			<point x="88" y="684"/>
			<point x="88" y="592" type="curve" smooth="yes"/>
			<point x="88" y="516"/>
			<point x="148" y="440"/>
			<point x="148" y="368" type="curve" smooth="yes"/>
			<point x="148" y="328"/>
			<point x="132" y="308"/>
			<point x="48" y="290" type="curve"/>
			<point x="48" y="266" type="line"/>
			<point x="132" y="248"/>
			<point x="148" y="228"/>
			<point x="148" y="188" type="curve" smooth="yes"/>
			<point x="148" y="116"/>
			<point x="88" y="40"/>
			<point x="88" y="-36" type="curve" smooth="yes"/>
			<point x="88" y="-128"/>
			<point x="165" y="-160"/>
			<point x="276" y="-160" type="curve" smooth="yes"/>
			<point x="304" y="-160" type="line"/>
			<point x="304" y="-136" type="line"/>
			<point x="276" y="-132" type="line" smooth="yes"/>
			<point x="233" y="-126"/>
			<point x="220" y="-101"/>
			<point x="220" y="-60" type="curve" smooth="yes"/>
			<point x="220" y="-12"/>
			<point x="248" y="81"/>
			<point x="248" y="140" type="curve" smooth="yes"/>
			<point x="248" y="222"/>
			<point x="193" y="272"/>
			<point x="76" y="280" type="curve"/>
		</contour>
	</outline>
</glyph>
<glyph name="bar" format="2">
	<unicode hex="007C"/>
	<advance width="280"/>
	<outline>
		<contour>
			<point x="88" y="-252" type="line"/>
			<point x="192" y="-252" type="line"/>
			<point x="192" y="748" type="line"/>
			<point x="88" y="748" type="line"/>
		</contour>
	</outline>
</glyph>
<glyph name="cent" format="2">
	<unicode hex="00A2"/>
	<advance width="524"/>
	<outline>
		<contour>
			<point x="328" y="-44" type="line"/>
			<point x="328" y="648" type="line"/>
			<point x="298" y="648" type="line"/>
			<point x="298" y="-44" type="line"/>
		</contour>
		<contour>
			<point x="317" y="535" type="curve" smooth="yes"/>
			<point x="375" y="535"/>
			<point x="384" y="528"/>
			<point x="418" y="516" type="curve"/>
			<point x="359" y="544" type="line"/>
			<point x="370" y="463" type="line" smooth="yes"/>
			<point x="380" y="390"/>
			<point x="417" y="378"/>
			<point x="445" y="378" type="curve" smooth="yes"/>
			<point x="475" y="378"/>
			<point x="496" y="396"/>
			<point x="503" y="422" type="curve"/>
			<point x="503" y="503"/>
			<point x="436" y="564"/>
			<point x="315" y="564" type="curve" smooth="yes"/>
			<point x="153" y="564"/>
			<point x="36" y="472"/>
			<point x="36" y="300" type="curve" smooth="yes"/>
			<point x="36" y="136"/>
			<point x="143" y="48"/>
			<point x="286" y="48" type="curve" smooth="yes"/>
			<point x="382" y="48"/>
			<point x="450" y="85"/>
			<point x="496" y="161" type="curve"/>
			<point x="479" y="178" type="line"/>
			<point x="445" y="153"/>
			<point x="410" y="132"/>
			<point x="363" y="132" type="curve" smooth="yes"/>
			<point x="258" y="132"/>
			<point x="200" y="201"/>
			<point x="200" y="327" type="curve" smooth="yes"/>
			<point x="200" y="490"/>
			<point x="266" y="535"/>
		</contour>
	</outline>
</glyph>
<glyph name="currency" format="2">
	<unicode hex="00A4"/>
	<advance width="524"/>
	<outline>
		<contour>
			<point x="365" y="420" type="line"/>
			<point x="413" y="445" type="line" smooth="yes"/>
			<point x="446" y="463"/>
			<point x="486" y="481"/>
			<point x="486" y="515" type="curve" smooth="yes"/>
			<point x="486" y="538"/>
			<point x="465" y="559"/>
			<point x="442" y="559" type="curve" smooth="yes"/>
			<point x="410" y="559"/>
			<point x="396" y="521"/>
			<point x="380" y="486" type="curve" smooth="yes"/>
			<point x="354" y="431" type="line"/>
		</contour>
		<contour>
			<point x="151" y="322" type="curve"/>
			<point x="151" y="385"/>
			<point x="199" y="439"/>
			<point x="262" y="439" type="curve" smooth="yes"/>
			<point x="325" y="439"/>
			<point x="373" y="385"/>
			<point x="373" y="322" type="curve" smooth="yes"/>
			<point x="373" y="259"/>
			<point x="325" y="205"/>
			<point x="262" y="205" type="curve"/>
			<point x="199" y="205"/>
			<point x="151" y="259"/>
		</contour>
		<contour>
			<point x="96" y="322" type="curve" smooth="yes"/>
			<point x="96" y="230"/>
			<point x="170" y="155"/>
			<point x="262" y="155" type="curve"/>
			<point x="354" y="155"/>
			<point x="428" y="230"/>
			<point x="428" y="322" type="curve" smooth="yes"/>
			<point x="428" y="414"/>
			<point x="354" y="489"/>
			<point x="262" y="489" type="curve"/>
			<point x="170" y="489"/>
			<point x="96" y="414"/>
		</contour>
		<contour>
			<point x="170" y="431" type="line"/>
			<point x="144" y="486" type="line" smooth="yes"/>
			<point x="128" y="521"/>
			<point x="114" y="559"/>
			<point x="82" y="559" type="curve" smooth="yes"/>
			<point x="59" y="559"/>
			<point x="38" y="538"/>
			<point x="38" y="515" type="curve" smooth="yes"/>
			<point x="38" y="481"/>
			<point x="78" y="463"/>
			<point x="111" y="445" type="curve" smooth="yes"/>
			<point x="159" y="420" type="line"/>
		</contour>
		<contour>
			<point x="159" y="224" type="line"/>
			<point x="111" y="199" type="line" smooth="yes"/>
			<point x="78" y="181"/>
			<point x="38" y="163"/>
			<point x="38" y="129" type="curve" smooth="yes"/>
			<point x="38" y="106"/>
			<point x="59" y="85"/>
			<point x="82" y="85" type="curve" smooth="yes"/>
			<point x="114" y="85"/>
			<point x="128" y="123"/>
			<point x="144" y="158" type="curve" smooth="yes"/>
			<point x="170" y="213" type="line"/>
		</contour>
		<contour>
			<point x="354" y="213" type="line"/>
			<point x="380" y="158" type="line" smooth="yes"/>
			<point x="396" y="123"/>
			<point x="410" y="85"/>
			<point x="442" y="85" type="curve" smooth="yes"/>
			<point x="465" y="85"/>
			<point x="486" y="106"/>
			<point x="486" y="129" type="curve" smooth="yes"/>
			<point x="486" y="163"/>
			<point x="446" y="181"/>
			<point x="413" y="199" type="curve" smooth="yes"/>
			<point x="365" y="224" type="line"/>
		</contour>
	</outline>
</glyph>
<glyph name="yen" format="2">
	<unicode hex="00A5"/>
	<advance width="524"/>
	<outline>
		<contour>
			<point x="304" y="188" type="line"/>
			<point x="484" y="624" type="line"/>
			<point x="448" y="624" type="line"/>
			<point x="331" y="316" type="line"/>
			<point x="328" y="308" type="line"/>
			<point x="339" y="308" type="line"/>
			<point x="212" y="624" type="line"/>
			<point x="32" y="624" type="line"/>
			<point x="220" y="188" type="line"/>
		</contour>
		<contour>
			<point x="88" y="584" type="line"/>
			<point x="180" y="584" type="line"/>
			<point x="288" y="600" type="line"/>
			<point x="288" y="624" type="line"/>
			<point x="-4" y="624" type="line"/>
			<point x="-4" y="600" type="line"/>
		</contour>
		<contour>
			<point x="220" y="40" type="line"/>
			<point x="116" y="24" type="line"/>
			<point x="116" y="0" type="line"/>
			<point x="412" y="0" type="line"/>
			<point x="412" y="24" type="line"/>
			<point x="308" y="40" type="line"/>
		</contour>
		<contour>
			<point x="184" y="180" type="line" smooth="yes"/>
			<point x="184" y="120"/>
			<point x="182" y="64"/>
			<point x="180" y="0" type="curve"/>
			<point x="348" y="0" type="line"/>
			<point x="346" y="64"/>
			<point x="344" y="120"/>
			<point x="344" y="180" type="curve" smooth="yes"/>
			<point x="344" y="296" type="line"/>
			<point x="184" y="296" type="line"/>
		</contour>
		<contour>
			<point x="436" y="590" type="line"/>
			<point x="456" y="590" type="line"/>
			<point x="528" y="600" type="line"/>
			<point x="528" y="624" type="line"/>
			<point x="368" y="624" type="line"/>
			<point x="368" y="600" type="line"/>
		</contour>
		<contour>
			<point x="68" y="168" type="line"/>
			<point x="460" y="168" type="line"/>
			<point x="460" y="196" type="line"/>
			<point x="68" y="196" type="line"/>
		</contour>
		<contour>
			<point x="68" y="264" type="line"/>
			<point x="460" y="264" type="line"/>
			<point x="460" y="292" type="line"/>
			<point x="68" y="292" type="line"/>
		</contour>
	</outline>
</glyph>
<glyph name="brokenbar" format="2">
	<unicode hex="00A6"/>
	<advance width="236"/>
	<outline>
		<contour>
			<point x="88" y="-252" type="line"/>
			<point x="148" y="-252" type="line"/>
			<point x="148" y="200" type="line"/>
			<point x="88" y="200" type="line"/>
		</contour>
		<contour>
			<point x="148" y="320" type="line"/>
			<point x="148" y="748" type="line"/>
			<point x="88" y="748" type="line"/>
			<point x="88" y="320" type="line"/>
		</contour>
	</outline>
</glyph>
<glyph name="section" format="2">
	<unicode hex="00A7"/>
	<advance width="520"/>
	<outline>
		<contour>
			<point x="272" y="672" type="curve" smooth="yes"/>
			<point x="138" y="672"/>
			<point x="68" y="592"/>
			<point x="68" y="504" type="curve" smooth="yes"/>
			<point x="68" y="384"/>
			<point x="167" y="357"/>
			<point x="254" y="333" type="curve" smooth="yes"/>
			<point x="321" y="315"/>
			<point x="380" y="298"/>
			<point x="380" y="244" type="curve" smooth="yes"/>
			<point x="380" y="220"/>
			<point x="370" y="202"/>
			<point x="348" y="184" type="curve"/>
			<point x="352" y="164" type="line"/>
			<point x="415" y="191"/>
			<point x="476" y="237"/>
			<point x="476" y="316" type="curve" smooth="yes"/>
			<point x="476" y="416"/>
			<point x="391" y="439"/>
			<point x="313" y="461" type="curve" smooth="yes"/>
			<point x="248" y="480"/>
			<point x="188" y="498"/>
			<point x="188" y="560" type="curve" smooth="yes"/>
			<point x="188" y="612"/>
			<point x="220" y="644"/>
			<point x="276" y="644" type="curve" smooth="yes"/>
			<point x="315" y="644"/>
			<point x="335" y="636"/>
			<point x="384" y="612" type="curve"/>
			<point x="312" y="656" type="line"/>
			<point x="340" y="580" type="line" smooth="yes"/>
			<point x="361" y="522"/>
			<point x="383" y="512"/>
			<point x="408" y="512" type="curve" smooth="yes"/>
			<point x="429" y="512"/>
			<point x="457" y="524"/>
			<point x="460" y="560" type="curve"/>
			<point x="460" y="616"/>
			<point x="393" y="672"/>
		</contour>
		<contour>
			<point x="244" y="-112" type="curve" smooth="yes"/>
			<point x="382" y="-112"/>
			<point x="452" y="-32"/>
			<point x="452" y="56" type="curve" smooth="yes"/>
			<point x="452" y="175"/>
			<point x="352" y="203"/>
			<point x="266" y="227" type="curve" smooth="yes"/>
			<point x="199" y="246"/>
			<point x="140" y="262"/>
			<point x="140" y="316" type="curve" smooth="yes"/>
			<point x="140" y="340"/>
			<point x="150" y="358"/>
			<point x="172" y="376" type="curve"/>
			<point x="168" y="396" type="line"/>
			<point x="105" y="369"/>
			<point x="44" y="323"/>
			<point x="44" y="244" type="curve" smooth="yes"/>
			<point x="44" y="144"/>
			<point x="129" y="121"/>
			<point x="207" y="99" type="curve" smooth="yes"/>
			<point x="272" y="80"/>
			<point x="332" y="62"/>
			<point x="332" y="0" type="curve" smooth="yes"/>
			<point x="332" y="-52"/>
			<point x="300" y="-84"/>
			<point x="240" y="-84" type="curve" smooth="yes"/>
			<point x="201" y="-84"/>
			<point x="177" y="-76"/>
			<point x="128" y="-52" type="curve"/>
			<point x="200" y="-96" type="line"/>
			<point x="172" y="-16" type="line" smooth="yes"/>
			<point x="151" y="42"/>
			<point x="129" y="52"/>
			<point x="104" y="52" type="curve" smooth="yes"/>
			<point x="83" y="52"/>
			<point x="55" y="40"/>
			<point x="52" y="4" type="curve"/>
			<point x="52" y="-48"/>
			<point x="119" y="-112"/>
		</contour>
	</outline>
</glyph>
<glyph name="copyright" format="2">
	<unicode hex="00A9"/>
	<advance width="740"/>
	<outline>
		<contour>
			<point x="75" y="326" type="curve" smooth="yes"/>
			<point x="75" y="512"/>
			<point x="215" y="633"/>
			<point x="371" y="633" type="curve" smooth="yes"/>
			<point x="527" y="633"/>
			<point x="667" y="512"/>
			<point x="667" y="326" type="curve" smooth="yes"/>
			<point x="667" y="140"/>
			<point x="527" y="19"/>
			<point x="371" y="19" type="curve" smooth="yes"/>
			<point x="215" y="19"/>
			<point x="75" y="140"/>
		</contour>
		<contour>
			<point x="30" y="326" type="curve" smooth="yes"/>
			<point x="30" y="117"/>
			<point x="191" y="-20"/>
			<point x="371" y="-20" type="curve" smooth="yes"/>
			<point x="551" y="-20"/>
			<point x="711" y="117"/>
			<point x="711" y="326" type="curve" smooth="yes"/>
			<point x="711" y="536"/>
			<point x="551" y="672"/>
			<point x="371" y="672" type="curve" smooth="yes"/>
			<point x="191" y="672"/>
			<point x="30" y="536"/>
		</contour>
		<contour>
			<point x="399" y="144" type="curve" smooth="yes"/>
			<point x="352" y="144"/>
			<point x="309" y="183"/>
			<point x="309" y="326" type="curve" smooth="yes"/>
			<point x="309" y="471"/>
			<point x="353" y="513"/>
			<point x="399" y="513" type="curve" smooth="yes"/>
			<point x="418" y="513"/>
			<point x="448" y="506"/>
			<point x="470" y="492" type="curve"/>
			<point x="423" y="522" type="line"/>
			<point x="484" y="412" type="line"/>
			<point x="501" y="412" type="line"/>
			<point x="494" y="513" type="line"/>
			<point x="467" y="522"/>
			<point x="431" y="532"/>
			<point x="390" y="532" type="curve" smooth="yes"/>
			<point x="298" y="532"/>
			<point x="184" y="482"/>
			<point x="184" y="326" type="curve" smooth="yes"/>
			<point x="184" y="175"/>
			<point x="290" y="124"/>
			<point x="390" y="124" type="curve" smooth="yes"/>
			<point x="428" y="124"/>
			<point x="468" y="134"/>
			<point x="493" y="142" type="curve"/>
			<point x="500" y="255" type="line"/>
			<point x="484" y="255" type="line"/>
			<point x="423" y="135" type="line"/>
			<point x="470" y="164" type="line"/>
			<point x="448" y="154"/>
			<point x="422" y="144"/>
		</contour>
	</outline>
</glyph>
<glyph name="logicalnot" format="2">
	<unicode hex="00AC"/>
	<advance width="512"/>
	<outline>
		<contour>
			<point x="35" y="336" type="line"/>
			<point x="458" y="336" type="line"/>
			<point x="426" y="372" type="line"/>
			<point x="426" y="164" type="line"/>
			<point x="476" y="164" type="line"/>
			<point x="476" y="384" type="line"/>
			<point x="35" y="384" type="line"/>
		</contour>
	</outline>
</glyph>
<glyph name="registered" format="2">
	<unicode hex="00AE"/>
	<advance width="474"/>
	<outline>
		<contour>
			<point x="350" y="424" type="line"/>
			<point x="317" y="429" type="line"/>
			<point x="333" y="420" type="line"/>
			<point x="320" y="464" type="line" smooth="yes"/>
			<point x="310" y="498"/>
			<point x="291" y="517"/>
			<point x="234" y="517" type="curve"/>
			<point x="235" y="515" type="line"/>
			<point x="292" y="515"/>
			<point x="318" y="539"/>
			<point x="318" y="567" type="curve" smooth="yes"/>
			<point x="318" y="597"/>
			<point x="295" y="616"/>
			<point x="225" y="616" type="curve" smooth="yes"/>
			<point x="189" y="616" type="line"/>
			<point x="189" y="607" type="line"/>
			<point x="225" y="607" type="line" smooth="yes"/>
			<point x="246" y="607"/>
			<point x="258" y="591"/>
			<point x="258" y="563" type="curve" smooth="yes"/>
			<point x="258" y="544"/>
			<point x="254" y="520"/>
			<point x="225" y="520" type="curve" smooth="yes"/>
			<point x="189" y="520" type="line"/>
			<point x="189" y="510" type="line"/>
			<point x="225" y="510" type="line" smooth="yes"/>
			<point x="242" y="510"/>
			<point x="249" y="494"/>
			<point x="252" y="477" type="curve" smooth="yes"/>
			<point x="257" y="446" type="line" smooth="yes"/>
			<point x="261" y="421"/>
			<point x="281" y="412"/>
			<point x="311" y="412" type="curve" smooth="yes"/>
			<point x="324" y="412"/>
			<point x="337" y="413"/>
			<point x="350" y="416" type="curve"/>
		</contour>
		<contour>
			<point x="173" y="429" type="line"/>
			<point x="139" y="424" type="line"/>
			<point x="139" y="416" type="line"/>
			<point x="244" y="416" type="line"/>
			<point x="244" y="424" type="line"/>
			<point x="209" y="429" type="line"/>
		</contour>
		<contour>
			<point x="173" y="603" type="line"/>
			<point x="208" y="603" type="line"/>
			<point x="208" y="616" type="line"/>
			<point x="139" y="616" type="line"/>
			<point x="139" y="608" type="line"/>
		</contour>
		<contour>
			<point x="64" y="511" type="curve" smooth="yes"/>
			<point x="64" y="621"/>
			<point x="141" y="686"/>
			<point x="237" y="686" type="curve" smooth="yes"/>
			<point x="333" y="686"/>
			<point x="409" y="621"/>
			<point x="409" y="511" type="curve" smooth="yes"/>
			<point x="409" y="401"/>
			<point x="333" y="334"/>
			<point x="237" y="334" type="curve" smooth="yes"/>
			<point x="141" y="334"/>
			<point x="64" y="401"/>
		</contour>
		<contour>
			<point x="158" y="416" type="line"/>
			<point x="222" y="416" type="line"/>
			<point x="222" y="616" type="line"/>
			<point x="158" y="616" type="line"/>
		</contour>
		<contour>
			<point x="30" y="511" type="curve" smooth="yes"/>
			<point x="30" y="384"/>
			<point x="126" y="305"/>
			<point x="237" y="305" type="curve" smooth="yes"/>
			<point x="349" y="305"/>
			<point x="444" y="384"/>
			<point x="444" y="511" type="curve" smooth="yes"/>
			<point x="444" y="638"/>
			<point x="349" y="715"/>
			<point x="237" y="715" type="curve" smooth="yes"/>
			<point x="126" y="715"/>
			<point x="30" y="638"/>
		</contour>
	</outline>
</glyph>
<glyph name="degree" format="2">
	<unicode hex="00B0"/>
	<advance width="328"/>
	<outline>
		<contour>
			<point x="164" y="452" type="curve" smooth="yes"/>
			<point x="120" y="452"/>
			<point x="87" y="482"/>
			<point x="87" y="535" type="curve" smooth="yes"/>
			<point x="87" y="588"/>
			<point x="120" y="619"/>
			<point x="164" y="619" type="curve" smooth="yes"/>
			<point x="208" y="619"/>
			<point x="241" y="588"/>
			<point x="241" y="535" type="curve" smooth="yes"/>
			<point x="241" y="482"/>
			<point x="208" y="452"/>
		</contour>
		<contour>
			<point x="164" y="399" type="curve" smooth="yes"/>
			<point x="234" y="399"/>
			<point x="299" y="450"/>
			<point x="299" y="535" type="curve" smooth="yes"/>
			<point x="299" y="620"/>
			<point x="234" y="672"/>
			<point x="164" y="672" type="curve" smooth="yes"/>
			<point x="94" y="672"/>
			<point x="29" y="620"/>
			<point x="29" y="535" type="curve" smooth="yes"/>
			<point x="29" y="450"/>
			<point x="94" y="399"/>
		</contour>
	</outline>
</glyph>
<glyph name="plusminus" format="2">
	<unicode hex="00B1"/>
	<advance width="550"/>
	<outline>
		<contour>
			<point x="223" y="130" type="line"/>
			<point x="327" y="130" type="line"/>
			<point x="327" y="565" type="line"/>
			<point x="223" y="565" type="line"/>
		</contour>
		<contour>
			<point x="520" y="300" type="line"/>
			<point x="520" y="400" type="line"/>
			<point x="30" y="400" type="line"/>
			<point x="30" y="300" type="line"/>
		</contour>
		<contour>
			<point x="520" y="0" type="line"/>
			<point x="520" y="100" type="line"/>
			<point x="30" y="100" type="line"/>
			<point x="30" y="0" type="line"/>
		</contour>
	</outline>
</glyph>
<glyph name="two.sups" format="2">
	<unicode hex="00B2"/>
	<advance width="369"/>
	<outline>
		<contour>
			<point x="32" y="408" type="line"/>
			<point x="337" y="408" type="line"/>
			<point x="337" y="498" type="line"/>
			<point x="102" y="498" type="line"/>
			<point x="102" y="506" type="line"/>
			<point x="82" y="480" type="line"/>
			<point x="153" y="522" type="line" smooth="yes"/>
			<point x="264" y="586"/>
			<point x="333" y="629"/>
			<point x="333" y="706" type="curve" smooth="yes"/>
			<point x="333" y="769"/>
			<point x="293" y="820"/>
			<point x="181" y="820" type="curve" smooth="yes"/>
			<point x="104" y="820"/>
			<point x="38" y="790"/>
			<point x="31" y="721" type="curve"/>
			<point x="38" y="700"/>
			<point x="57" y="692"/>
			<point x="72" y="692" type="curve" smooth="yes"/>
			<point x="97" y="692"/>
			<point x="114" y="702"/>
			<point x="122" y="745" type="curve" smooth="yes"/>
			<point x="133" y="810" type="line"/>
			<point x="89" y="789" type="line"/>
			<point x="114" y="801"/>
			<point x="130" y="802"/>
			<point x="150" y="802" type="curve" smooth="yes"/>
			<point x="187" y="802"/>
			<point x="215" y="774"/>
			<point x="215" y="710" type="curve" smooth="yes"/>
			<point x="215" y="647"/>
			<point x="172" y="590"/>
			<point x="112" y="531" type="curve" smooth="yes"/>
			<point x="32" y="453" type="line"/>
		</contour>
	</outline>
</glyph>
<glyph name="three.sups" format="2">
	<unicode hex="00B3"/>
	<advance width="369"/>
	<outline>
		<contour>
			<point x="118" y="623" type="line"/>
			<point x="118" y="599" type="line"/>
			<point x="136" y="599" type="line" smooth="yes"/>
			<point x="206" y="599"/>
			<point x="225" y="559"/>
			<point x="225" y="509" type="curve" smooth="yes"/>
			<point x="225" y="459"/>
			<point x="196" y="416"/>
			<point x="136" y="416" type="curve" smooth="yes"/>
			<point x="120" y="416"/>
			<point x="107" y="417"/>
			<point x="94" y="423" type="curve"/>
			<point x="125" y="408" type="line"/>
			<point x="116" y="473" type="line" smooth="yes"/>
			<point x="109" y="516"/>
			<point x="91" y="526"/>
			<point x="66" y="526" type="curve" smooth="yes"/>
			<point x="51" y="526"/>
			<point x="32" y="518"/>
			<point x="25" y="497" type="curve"/>
			<point x="34" y="431"/>
			<point x="79" y="397"/>
			<point x="157" y="397" type="curve" smooth="yes"/>
			<point x="285" y="397"/>
			<point x="345" y="447"/>
			<point x="345" y="514" type="curve" smooth="yes"/>
			<point x="345" y="587"/>
			<point x="280" y="614"/>
			<point x="180" y="615" type="curve"/>
			<point x="180" y="612" type="line"/>
			<point x="270" y="613"/>
			<point x="334" y="649"/>
			<point x="334" y="717" type="curve" smooth="yes"/>
			<point x="334" y="776"/>
			<point x="286" y="820"/>
			<point x="187" y="820" type="curve" smooth="yes"/>
			<point x="96" y="820"/>
			<point x="51" y="786"/>
			<point x="41" y="729" type="curve"/>
			<point x="49" y="708"/>
			<point x="66" y="700"/>
			<point x="82" y="700" type="curve" smooth="yes"/>
			<point x="107" y="700"/>
			<point x="123" y="710"/>
			<point x="131" y="754" type="curve" smooth="yes"/>
			<point x="141" y="810" type="line"/>
			<point x="111" y="795" type="line"/>
			<point x="125" y="801"/>
			<point x="138" y="802"/>
			<point x="154" y="802" type="curve" smooth="yes"/>
			<point x="196" y="802"/>
			<point x="219" y="760"/>
			<point x="219" y="714" type="curve" smooth="yes"/>
			<point x="219" y="658"/>
			<point x="204" y="623"/>
			<point x="134" y="623" type="curve" smooth="yes"/>
		</contour>
	</outline>
</glyph>
<glyph name="one.sups" format="2">
	<unicode hex="00B9"/>
	<advance width="369"/>
	<outline>
		<contour>
			<point x="68" y="768" type="line"/>
			<point x="68" y="751" type="line"/>
			<point x="130" y="756" type="line"/>
			<point x="130" y="408" type="line"/>
			<point x="248" y="408" type="line"/>
			<point x="248" y="810" type="line"/>
			<point x="236" y="818" type="line"/>
		</contour>
		<contour>
			<point x="225" y="440" type="line"/>
			<point x="153" y="440" type="line"/>
			<point x="53" y="424" type="line"/>
			<point x="53" y="408" type="line"/>
			<point x="324" y="408" type="line"/>
			<point x="324" y="424" type="line"/>
		</contour>
	</outline>
</glyph>
<glyph name="Idieresis" format="2">
	<unicode hex="00CF"/>
	<advance width="344"/>
	<outline>
		<contour>
			<point x="90" y="700" type="curve" smooth="yes"/>
			<point x="125" y="700"/>
			<point x="156" y="727"/>
			<point x="156" y="764" type="curve" smooth="yes"/>
			<point x="156" y="801"/>
			<point x="125" y="828"/>
			<point x="90" y="828" type="curve" smooth="yes"/>
			<point x="53" y="828"/>
			<point x="24" y="801"/>
			<point x="24" y="764" type="curve" smooth="yes"/>
			<point x="24" y="727"/>
			<point x="53" y="700"/>
		</contour>
		<contour>
			<point x="254" y="700" type="curve" smooth="yes"/>
			<point x="290" y="700"/>
			<point x="320" y="727"/>
			<point x="320" y="764" type="curve" smooth="yes"/>
			<point x="320" y="802"/>
			<point x="290" y="828"/>
			<point x="254" y="828" type="curve" smooth="yes"/>
			<point x="217" y="828"/>
			<point x="188" y="802"/>
			<point x="188" y="764" type="curve" smooth="yes"/>
			<point x="188" y="727"/>
			<point x="217" y="700"/>
		</contour>
		<component base="I"/>
	</outline>
</glyph>
<glyph name="Eth" format="2">
	<unicode hex="00D0"/>
	<advance width="642"/>
	<outline>
		<contour>
			<point x="376" y="321" type="line"/>
			<point x="376" y="347" type="line"/>
			<point x="24" y="347" type="line"/>
			<point x="24" y="321" type="line"/>
		</contour>
		<component base="D"/>
	</outline>
</glyph>
<glyph name="Oslash" format="2">
	<unicode hex="00D8"/>
	<advance width="648"/>
	<outline>
		<contour>
			<point x="596" y="660" type="line"/>
			<point x="574" y="678" type="line"/>
			<point x="52" y="-6" type="line"/>
			<point x="74" y="-24" type="line"/>
		</contour>
		<component base="O"/>
	</outline>
	<anchor name="aboveUC" x="324" y="692"/>
</glyph>
<glyph name="Thorn" format="2">
	<unicode hex="00DE"/>
	<advance width="578"/>
	<outline>
		<contour>
			<point x="167" y="158" type="line"/>
			<point x="273" y="158" type="line" smooth="yes"/>
			<point x="484" y="158"/>
			<point x="558" y="236"/>
			<point x="558" y="352" type="curve" smooth="yes"/>
			<point x="558" y="466"/>
			<point x="484" y="528"/>
			<point x="273" y="528" type="curve" smooth="yes"/>
			<point x="167" y="528" type="line"/>
			<point x="167" y="500" type="line"/>
			<point x="270" y="500" type="line" smooth="yes"/>
			<point x="338" y="500"/>
			<point x="390" y="452"/>
			<point x="390" y="347" type="curve" smooth="yes"/>
			<point x="390" y="242"/>
			<point x="338" y="186"/>
			<point x="270" y="186" type="curve" smooth="yes"/>
			<point x="167" y="186" type="line"/>
		</contour>
		<contour>
			<point x="82" y="0" type="curve"/>
			<point x="261" y="0" type="line"/>
			<point x="257" y="78"/>
			<point x="256" y="205"/>
			<point x="256" y="308" type="curve" smooth="yes"/>
			<point x="256" y="351" type="line" smooth="yes"/>
			<point x="256" y="452"/>
			<point x="258" y="574"/>
			<point x="262" y="652" type="curve"/>
			<point x="82" y="652" type="line"/>
			<point x="86" y="574"/>
			<point x="88" y="452"/>
			<point x="88" y="351" type="curve" smooth="yes"/>
			<point x="88" y="308" type="line" smooth="yes"/>
			<point x="88" y="205"/>
			<point x="86" y="78"/>
		</contour>
		<contour>
			<point x="128" y="612" type="line"/>
			<point x="216" y="612" type="line"/>
			<point x="320" y="628" type="line"/>
			<point x="320" y="652" type="line"/>
			<point x="24" y="652" type="line"/>
			<point x="24" y="628" type="line"/>
		</contour>
		<contour>
			<point x="24" y="0" type="line"/>
			<point x="320" y="0" type="line"/>
			<point x="320" y="24" type="line"/>
			<point x="216" y="40" type="line"/>
			<point x="128" y="40" type="line"/>
			<point x="24" y="24" type="line"/>
		</contour>
	</outline>
</glyph>
<glyph name="germandbls" format="2">
	<unicode hex="00DF"/>
	<advance width="620"/>
	<outline>
		<contour>
			<point x="164" y="40" type="line"/>
			<point x="96" y="40" type="line"/>
			<point x="16" y="24" type="line"/>
			<point x="16" y="0" type="line"/>
			<point x="164" y="0" type="line"/>
		</contour>
		<contour>
			<point x="64" y="208" type="line" smooth="yes"/>
			<point x="64" y="138"/>
			<point x="63" y="70"/>
			<point x="61" y="0" type="curve"/>
			<point x="227" y="0" type="line"/>
			<point x="225" y="70"/>
			<point x="224" y="138"/>
			<point x="224" y="208" type="curve" smooth="yes"/>
			<point x="224" y="448" type="line" smooth="yes"/>
			<point x="224" y="630"/>
			<point x="242" y="706"/>
			<point x="340" y="706" type="curve" smooth="yes"/>
			<point x="386" y="706"/>
			<point x="420" y="677"/>
			<point x="420" y="604" type="curve" smooth="yes"/>
			<point x="420" y="480"/>
			<point x="276" y="486"/>
			<point x="276" y="364" type="curve" smooth="yes"/>
			<point x="276" y="296"/>
			<point x="319" y="258"/>
			<point x="364" y="225" type="curve" smooth="yes"/>
			<point x="415" y="187"/>
			<point x="468" y="157"/>
			<point x="468" y="96" type="curve" smooth="yes"/>
			<point x="468" y="30"/>
			<point x="429" y="10"/>
			<point x="384" y="10" type="curve" smooth="yes"/>
			<point x="360" y="10"/>
			<point x="341" y="15"/>
			<point x="296" y="44" type="curve"/>
			<point x="360" y="0" type="line"/>
			<point x="294" y="152" type="line"/>
			<point x="272" y="152" type="line"/>
			<point x="268" y="16" type="line"/>
			<point x="306" y="-9"/>
			<point x="354" y="-16"/>
			<point x="400" y="-16" type="curve" smooth="yes"/>
			<point x="531" y="-16"/>
			<point x="608" y="73"/>
			<point x="608" y="172" type="curve" smooth="yes"/>
			<point x="608" y="244"/>
			<point x="549" y="296"/>
			<point x="490" y="338" type="curve" smooth="yes"/>
			<point x="434" y="378"/>
			<point x="380" y="410"/>
			<point x="380" y="440" type="curve" smooth="yes"/>
			<point x="380" y="512"/>
			<point x="548" y="493"/>
			<point x="548" y="613" type="curve" smooth="yes"/>
			<point x="548" y="685"/>
			<point x="496" y="732"/>
			<point x="344" y="732" type="curve" smooth="yes"/>
			<point x="192" y="732"/>
			<point x="64" y="645"/>
			<point x="64" y="436" type="curve" smooth="yes"/>
		</contour>
	</outline>
</glyph>
<glyph name="ae" format="2">
	<unicode hex="00E6"/>
	<advance width="720"/>
	<outline>
		<contour>
			<point x="24" y="100" type="curve" smooth="yes"/>
			<point x="24" y="28"/>
			<point x="72" y="-16"/>
			<point x="152" y="-16" type="curve" smooth="yes"/>
			<point x="236" y="-16"/>
			<point x="279" y="34"/>
			<point x="320" y="92" type="curve"/>
			<point x="326" y="104" type="line"/>
			<point x="304" y="100" type="line"/>
			<point x="271" y="71"/>
			<point x="256" y="60"/>
			<point x="230" y="60" type="curve" smooth="yes"/>
			<point x="197" y="60"/>
			<point x="172" y="84"/>
			<point x="172" y="136" type="curve" smooth="yes"/>
			<point x="172" y="201"/>
			<point x="212" y="230"/>
			<point x="248" y="248" type="curve" smooth="yes"/>
			<point x="269" y="259"/>
			<point x="316" y="271"/>
			<point x="360" y="284" type="curve"/>
			<point x="360" y="308" type="line"/>
			<point x="318" y="296"/>
			<point x="250" y="279"/>
			<point x="212" y="268" type="curve" smooth="yes"/>
			<point x="77" y="229"/>
			<point x="24" y="173"/>
		</contour>
		<contour>
			<point x="432" y="268" type="line"/>
			<point x="432" y="292" type="line" smooth="yes"/>
			<point x="432" y="419"/>
			<point x="380" y="476"/>
			<point x="254" y="476" type="curve" smooth="yes"/>
			<point x="124" y="476"/>
			<point x="45" y="422"/>
			<point x="41" y="346" type="curve"/>
			<point x="52" y="311"/>
			<point x="72" y="296"/>
			<point x="106" y="296" type="curve" smooth="yes"/>
			<point x="142" y="296"/>
			<point x="182" y="318"/>
			<point x="184" y="395" type="curve" smooth="yes"/>
			<point x="186" y="463" type="line"/>
			<point x="156" y="434" type="line"/>
			<point x="168" y="440"/>
			<point x="186" y="446"/>
			<point x="204" y="446" type="curve" smooth="yes"/>
			<point x="260" y="446"/>
			<point x="272" y="417"/>
			<point x="272" y="320" type="curve" smooth="yes"/>
			<point x="272" y="224" type="line"/>
		</contour>
		<contour>
			<point x="272" y="224" type="curve" smooth="yes"/>
			<point x="272" y="68"/>
			<point x="372" y="-16"/>
			<point x="496" y="-16" type="curve" smooth="yes"/>
			<point x="578" y="-16"/>
			<point x="644" y="17"/>
			<point x="683" y="94" type="curve"/>
			<point x="668" y="108" type="line"/>
			<point x="642" y="84"/>
			<point x="612" y="68"/>
			<point x="572" y="68" type="curve" smooth="yes"/>
			<point x="496" y="68"/>
			<point x="440" y="132"/>
			<point x="440" y="252" type="curve" smooth="yes"/>
			<point x="440" y="403"/>
			<point x="464" y="448"/>
			<point x="500" y="448" type="curve" smooth="yes"/>
			<point x="528" y="448"/>
			<point x="548" y="427"/>
			<point x="548" y="352" type="curve" smooth="yes"/>
			<point x="548" y="289"/>
			<point x="529" y="274"/>
			<point x="466" y="274" type="curve" smooth="yes"/>
			<point x="336" y="274" type="line"/>
			<point x="336" y="248" type="line"/>
			<point x="684" y="248" type="line"/>
			<point x="688" y="266"/>
			<point x="688" y="272"/>
			<point x="688" y="292" type="curve" smooth="yes"/>
			<point x="688" y="396"/>
			<point x="628" y="476"/>
			<point x="504" y="476" type="curve" smooth="yes"/>
			<point x="410" y="476"/>
			<point x="315" y="422"/>
			<point x="283" y="311" type="curve" smooth="yes"/>
			<point x="282" y="309"/>
			<point x="282" y="308"/>
			<point x="282" y="306" type="curve" smooth="yes"/>
			<point x="275" y="281"/>
			<point x="272" y="254"/>
		</contour>
	</outline>
	<anchor name="aboveLC" x="348" y="484"/>
	<anchor name="belowLC" x="360" y="-24"/>
</glyph>
<glyph name="idieresis" format="2">
	<unicode hex="00EF"/>
	<advance width="292"/>
	<outline>
		<contour>
			<point x="54" y="538" type="curve" smooth="yes"/>
			<point x="92" y="538"/>
			<point x="124" y="562"/>
			<point x="124" y="604" type="curve" smooth="yes"/>
			<point x="124" y="646"/>
			<point x="92" y="670"/>
			<point x="54" y="670" type="curve" smooth="yes"/>
			<point x="16" y="670"/>
			<point x="-16" y="646"/>
			<point x="-16" y="604" type="curve" smooth="yes"/>
			<point x="-16" y="562"/>
			<point x="16" y="538"/>
		</contour>
		<contour>
			<point x="238" y="538" type="curve" smooth="yes"/>
			<point x="276" y="538"/>
			<point x="308" y="562"/>
			<point x="308" y="604" type="curve" smooth="yes"/>
			<point x="308" y="646"/>
			<point x="276" y="670"/>
			<point x="238" y="670" type="curve" smooth="yes"/>
			<point x="200" y="670"/>
			<point x="168" y="646"/>
			<point x="168" y="604" type="curve" smooth="yes"/>
			<point x="168" y="562"/>
			<point x="200" y="538"/>
		</contour>
		<component base="dotlessi"/>
	</outline>
</glyph>
<glyph name="eth" format="2">
	<unicode hex="00F0"/>
	<advance width="540"/>
	<outline>
		<contour>
			<point x="270" y="-16" type="curve" smooth="yes"/>
			<point x="412" y="-16"/>
			<point x="510" y="89"/>
			<point x="510" y="268" type="curve"/>
			<point x="510" y="509"/>
			<point x="369" y="676"/>
			<point x="132" y="735" type="curve"/>
			<point x="124" y="715" type="line"/>
			<point x="262" y="660"/>
			<point x="310" y="583"/>
			<point x="352" y="412" type="curve"/>
			<point x="368" y="412" type="line"/>
			<point x="356" y="436"/>
			<point x="344" y="476"/>
			<point x="270" y="476" type="curve" smooth="yes"/>
			<point x="124" y="476"/>
			<point x="30" y="371"/>
			<point x="30" y="230" type="curve" smooth="yes"/>
			<point x="30" y="88"/>
			<point x="109" y="-16"/>
		</contour>
		<contour>
			<point x="270" y="12" type="curve" smooth="yes"/>
			<point x="226" y="12"/>
			<point x="202" y="53"/>
			<point x="202" y="230" type="curve" smooth="yes"/>
			<point x="202" y="406"/>
			<point x="226" y="448"/>
			<point x="270" y="448" type="curve" smooth="yes"/>
			<point x="314" y="448"/>
			<point x="338" y="407"/>
			<point x="338" y="230" type="curve" smooth="yes"/>
			<point x="338" y="54"/>
			<point x="314" y="12"/>
		</contour>
		<contour>
			<point x="140" y="530" type="line"/>
			<point x="488" y="690" type="line"/>
			<point x="476" y="715" type="line"/>
			<point x="128" y="555" type="line"/>
		</contour>
	</outline>
</glyph>
<glyph name="divide" format="2">
	<unicode hex="00F7"/>
	<advance width="512"/>
	<outline>
		<contour>
			<point x="256" y="84" type="curve" smooth="yes"/>
			<point x="290" y="84"/>
			<point x="318" y="108"/>
			<point x="318" y="146" type="curve" smooth="yes"/>
			<point x="318" y="184"/>
			<point x="290" y="208"/>
			<point x="256" y="208" type="curve" smooth="yes"/>
			<point x="222" y="208"/>
			<point x="194" y="184"/>
			<point x="194" y="146" type="curve" smooth="yes"/>
			<point x="194" y="108"/>
			<point x="222" y="84"/>
		</contour>
		<contour>
			<point x="256" y="432" type="curve" smooth="yes"/>
			<point x="290" y="432"/>
			<point x="318" y="456"/>
			<point x="318" y="494" type="curve" smooth="yes"/>
			<point x="318" y="532"/>
			<point x="290" y="556"/>
			<point x="256" y="556" type="curve" smooth="yes"/>
			<point x="222" y="556"/>
			<point x="194" y="532"/>
			<point x="194" y="494" type="curve" smooth="yes"/>
			<point x="194" y="456"/>
			<point x="222" y="432"/>
		</contour>
		<component base="minus"/>
	</outline>
</glyph>
<glyph name="oslash" format="2">
	<unicode hex="00F8"/>
	<advance width="540"/>
	<outline>
		<contour>
			<point x="492" y="460" type="line"/>
			<point x="472" y="476" type="line"/>
			<point x="48" y="0" type="line"/>
			<point x="68" y="-16" type="line"/>
		</contour>
		<contour>
			<point x="270" y="-16" type="curve" smooth="yes"/>
			<point x="412" y="-16"/>
			<point x="510" y="89"/>
			<point x="510" y="230" type="curve" smooth="yes"/>
			<point x="510" y="372"/>
			<point x="431" y="476"/>
			<point x="270" y="476" type="curve" smooth="yes"/>
			<point x="124" y="476"/>
			<point x="30" y="371"/>
			<point x="30" y="230" type="curve" smooth="yes"/>
			<point x="30" y="88"/>
			<point x="109" y="-16"/>
		</contour>
		<contour>
			<point x="270" y="12" type="curve" smooth="yes"/>
			<point x="223" y="12"/>
			<point x="197" y="53"/>
			<point x="197" y="230" type="curve" smooth="yes"/>
			<point x="197" y="406"/>
			<point x="223" y="448"/>
			<point x="270" y="448" type="curve" smooth="yes"/>
			<point x="317" y="448"/>
			<point x="343" y="407"/>
			<point x="343" y="230" type="curve" smooth="yes"/>
			<point x="343" y="54"/>
			<point x="317" y="12"/>
		</contour>
	</outline>
	<anchor name="aboveLC" x="270" y="480"/>
</glyph>
<glyph name="eogonek" format="2">
	<unicode hex="0119"/>
	<advance width="476"/>
	<outline>
		<contour>
			<point x="320" y="-7" type="line"/>
			<point x="299" y="-13"/>
			<point x="276" y="-16"/>
			<point x="252" y="-16" type="curve" smooth="yes"/>
			<point x="128" y="-16"/>
			<point x="28" y="68"/>
			<point x="28" y="224" type="curve" smooth="yes"/>
			<point x="28" y="395"/>
			<point x="145" y="476"/>
			<point x="260" y="476" type="curve" smooth="yes"/>
			<point x="384" y="476"/>
			<point x="444" y="396"/>
			<point x="444" y="292" type="curve" smooth="yes"/>
			<point x="444" y="272"/>
			<point x="444" y="266"/>
			<point x="440" y="248" type="curve"/>
			<point x="92" y="248" type="line"/>
			<point x="92" y="274" type="line"/>
			<point x="222" y="274" type="line" smooth="yes"/>
			<point x="285" y="274"/>
			<point x="304" y="289"/>
			<point x="304" y="352" type="curve" smooth="yes"/>
			<point x="304" y="427"/>
			<point x="284" y="448"/>
			<point x="256" y="448" type="curve" smooth="yes"/>
			<point x="220" y="448"/>
			<point x="196" y="403"/>
			<point x="196" y="252" type="curve" smooth="yes"/>
			<point x="196" y="132"/>
			<point x="252" y="68"/>
			<point x="328" y="68" type="curve" smooth="yes"/>
			<point x="368" y="68"/>
			<point x="398" y="84"/>
			<point x="424" y="108" type="curve"/>
			<point x="439" y="94" type="line"/>
			<point x="420" y="57"/>
			<point x="394" y="31"/>
			<point x="365" y="12" type="curve" smooth="yes"/>
			<point x="318" y="-18"/>
			<point x="292" y="-58"/>
			<point x="292" y="-93" type="curve" smooth="yes"/>
			<point x="292" y="-133"/>
			<point x="320" y="-156"/>
			<point x="364" y="-156" type="curve" smooth="yes"/>
			<point x="390" y="-156"/>
			<point x="405" y="-150"/>
			<point x="419" y="-144" type="curve"/>
			<point x="430" y="-159" type="line"/>
			<point x="408" y="-198"/>
			<point x="359" y="-228"/>
			<point x="298" y="-228" type="curve" smooth="yes"/>
			<point x="228" y="-228"/>
			<point x="192" y="-190"/>
			<point x="192" y="-135" type="curve" smooth="yes"/>
			<point x="192" y="-70"/>
			<point x="256" y="-26"/>
			<point x="335" y="4" type="curve"/>
		</contour>
	</outline>
	<anchor name="aboveLC" x="257" y="520"/>
	<anchor name="belowLC" x="265" y="-22"/>
</glyph>
<glyph name="Hbar" format="2">
	<unicode hex="0126"/>
	<advance width="688"/>
	<outline>
		<contour>
			<point x="664" y="477" type="line"/>
			<point x="664" y="503" type="line"/>
			<point x="24" y="503" type="line"/>
			<point x="24" y="477" type="line"/>
		</contour>
		<component base="H"/>
	</outline>
</glyph>
<glyph name="hbar" format="2">
	<unicode hex="0127"/>
	<advance width="572"/>
	<outline>
		<contour>
			<point x="228" y="367" type="line"/>
			<point x="228" y="372" type="line"/>
			<point x="228" y="504" type="line"/>
			<point x="228" y="572"/>
			<point x="230" y="655"/>
			<point x="232" y="708" type="curve"/>
			<point x="216" y="720" type="line"/>
			<point x="16" y="668" type="line"/>
			<point x="16" y="648" type="line"/>
			<point x="66" y="632" type="line"/>
			<point x="68" y="585"/>
			<point x="68" y="545"/>
			<point x="68" y="480" type="curve" smooth="yes"/>
			<point x="68" y="208" type="line" smooth="yes"/>
			<point x="68" y="140"/>
			<point x="68" y="53"/>
			<point x="62" y="0" type="curve"/>
			<point x="234" y="0" type="line"/>
			<point x="228" y="53"/>
			<point x="228" y="140"/>
			<point x="228" y="208" type="curve" smooth="yes"/>
		</contour>
		<contour>
			<point x="20" y="0" type="line"/>
			<point x="272" y="0" type="line"/>
			<point x="272" y="24" type="line"/>
			<point x="196" y="40" type="line"/>
			<point x="100" y="40" type="line"/>
			<point x="20" y="24" type="line"/>
		</contour>
		<contour>
			<point x="552" y="24" type="line"/>
			<point x="476" y="40" type="line"/>
			<point x="380" y="40" type="line"/>
			<point x="304" y="24" type="line"/>
			<point x="304" y="0" type="line"/>
			<point x="552" y="0" type="line"/>
		</contour>
		<contour>
			<point x="348" y="208" type="line" smooth="yes"/>
			<point x="348" y="140"/>
			<point x="348" y="53"/>
			<point x="342" y="0" type="curve"/>
			<point x="514" y="0" type="line"/>
			<point x="508" y="53"/>
			<point x="508" y="140"/>
			<point x="508" y="208" type="curve" smooth="yes"/>
			<point x="508" y="325" type="line" smooth="yes"/>
			<point x="508" y="428"/>
			<point x="456" y="476"/>
			<point x="380" y="476" type="curve" smooth="yes"/>
			<point x="312" y="476"/>
			<point x="260" y="445"/>
			<point x="208" y="358" type="curve"/>
			<point x="212" y="358" type="line"/>
			<point x="196" y="358" type="line"/>
			<point x="196" y="328" type="line"/>
			<point x="224" y="366"/>
			<point x="265" y="388"/>
			<point x="298" y="388" type="curve" smooth="yes"/>
			<point x="330" y="388"/>
			<point x="348" y="370"/>
			<point x="348" y="320" type="curve" smooth="yes"/>
		</contour>
		<contour>
			<point x="12" y="545" type="line"/>
			<point x="344" y="545" type="line"/>
			<point x="344" y="573" type="line"/>
			<point x="12" y="573" type="line"/>
		</contour>
	</outline>
</glyph>
<glyph name="kgreenlandic" format="2">
	<unicode hex="0138"/>
	<advance width="560"/>
	<outline>
		<contour>
			<point x="20" y="0" type="line"/>
			<point x="272" y="0" type="line"/>
			<point x="272" y="24" type="line"/>
			<point x="196" y="40" type="line"/>
			<point x="100" y="40" type="line"/>
			<point x="20" y="24" type="line"/>
		</contour>
		<contour>
			<point x="62" y="0" type="curve"/>
			<point x="234" y="0" type="line"/>
			<point x="228" y="53"/>
			<point x="228" y="140"/>
			<point x="228" y="208" type="curve" smooth="yes"/>
			<point x="228" y="330" type="line"/>
			<point x="232" y="464" type="line"/>
			<point x="216" y="476" type="line"/>
			<point x="16" y="420" type="line"/>
			<point x="16" y="400" type="line"/>
			<point x="66" y="384" type="line"/>
			<point x="68" y="337"/>
			<point x="68" y="297"/>
			<point x="68" y="232" type="curve" smooth="yes"/>
			<point x="68" y="208" type="line" smooth="yes"/>
			<point x="68" y="140"/>
			<point x="68" y="53"/>
		</contour>
		<contour>
			<point x="144" y="128" type="line"/>
			<point x="474" y="460" type="line"/>
			<point x="432" y="460" type="line"/>
			<point x="290" y="312" type="line"/>
			<point x="148" y="164" type="line"/>
			<point x="144" y="164" type="line"/>
		</contour>
		<contour>
			<point x="336" y="0" type="line"/>
			<point x="540" y="0" type="line"/>
			<point x="540" y="24" type="line"/>
			<point x="461" y="43" type="line"/>
			<point x="503" y="23" type="line"/>
			<point x="359" y="360" type="line"/>
			<point x="244" y="244" type="line"/>
		</contour>
		<contour>
			<point x="400" y="420" type="line"/>
			<point x="428" y="420" type="line"/>
			<point x="520" y="436" type="line"/>
			<point x="520" y="460" type="line"/>
			<point x="316" y="460" type="line"/>
			<point x="316" y="436" type="line"/>
		</contour>
	</outline>
</glyph>
<glyph name="Lslash" format="2">
	<unicode hex="0141"/>
	<advance width="500"/>
	<outline>
		<contour>
			<point x="184" y="336" type="line"/>
			<point x="20" y="252" type="line"/>
			<point x="20" y="222" type="line"/>
			<point x="184" y="306" type="line"/>
		</contour>
		<contour>
			<point x="364" y="424" type="line"/>
			<point x="200" y="340" type="line"/>
			<point x="200" y="310" type="line"/>
			<point x="364" y="394" type="line"/>
		</contour>
		<component base="L" xOffset="-4"/>
	</outline>
</glyph>
<glyph name="lslash" format="2">
	<unicode hex="0142"/>
	<advance width="292"/>
	<outline>
		<contour>
			<point x="216" y="406" type="line"/>
			<point x="20" y="295" type="line"/>
			<point x="20" y="265" type="line"/>
			<point x="216" y="376" type="line"/>
		</contour>
		<contour>
			<point x="284" y="438" type="line"/>
			<point x="88" y="327" type="line"/>
			<point x="88" y="297" type="line"/>
			<point x="284" y="408" type="line"/>
		</contour>
		<component base="l"/>
	</outline>
</glyph>
<glyph name="Eng" format="2">
	<unicode hex="014A"/>
	<advance width="618"/>
	<outline>
		<contour>
			<point x="118" y="34" type="line"/>
			<point x="92" y="34" type="line"/>
			<point x="20" y="24" type="line"/>
			<point x="20" y="0" type="line"/>
			<point x="194" y="0" type="line"/>
			<point x="194" y="24" type="line"/>
		</contour>
		<contour>
			<point x="88" y="0" type="line"/>
			<point x="120" y="0" type="line"/>
			<point x="120" y="652" type="line"/>
			<point x="88" y="652" type="line"/>
		</contour>
		<contour>
			<point x="514" y="232" type="line"/>
			<point x="247" y="652" type="line"/>
			<point x="20" y="652" type="line"/>
			<point x="20" y="628" type="line"/>
			<point x="124" y="612" type="line"/>
			<point x="64" y="624" type="line"/>
			<point x="460" y="0" type="line"/>
			<point x="514" y="0" type="line"/>
		</contour>
		<contour>
			<point x="504" y="618" type="line"/>
			<point x="530" y="618" type="line"/>
			<point x="594" y="628" type="line"/>
			<point x="594" y="652" type="line"/>
			<point x="420" y="652" type="line"/>
			<point x="420" y="628" type="line"/>
		</contour>
		<contour>
			<point x="407" y="-146" type="line"/>
			<point x="383" y="-113" type="line" smooth="yes"/>
			<point x="347" y="-63"/>
			<point x="323" y="-55"/>
			<point x="298" y="-55" type="curve" smooth="yes"/>
			<point x="264" y="-55"/>
			<point x="236" y="-77"/>
			<point x="231" y="-111" type="curve"/>
			<point x="241" y="-158"/>
			<point x="295" y="-176"/>
			<point x="341" y="-176" type="curve"/>
			<point x="444" y="-176"/>
			<point x="534" y="-100"/>
			<point x="534" y="48" type="curve" smooth="yes"/>
			<point x="534" y="652" type="line"/>
			<point x="502" y="652" type="line"/>
			<point x="502" y="232" type="line"/>
			<point x="500" y="49" type="line"/>
			<point x="500" y="-96"/>
			<point x="416" y="-145"/>
			<point x="340" y="-145" type="curve"/>
		</contour>
	</outline>
</glyph>
<glyph name="oe" format="2">
	<unicode hex="0153"/>
	<advance width="778"/>
	<outline>
		<contour>
			<point x="264" y="448" type="curve" smooth="yes"/>
			<point x="306" y="448"/>
			<point x="328" y="407"/>
			<point x="328" y="230" type="curve" smooth="yes"/>
			<point x="328" y="54"/>
			<point x="306" y="12"/>
			<point x="264" y="12" type="curve" smooth="yes"/>
			<point x="222" y="12"/>
			<point x="200" y="53"/>
			<point x="200" y="230" type="curve" smooth="yes"/>
			<point x="200" y="406"/>
			<point x="222" y="448"/>
		</contour>
		<contour>
			<point x="264" y="-16" type="curve" smooth="yes"/>
			<point x="363" y="-16"/>
			<point x="443" y="48"/>
			<point x="479" y="148" type="curve"/>
			<point x="354" y="148" type="line"/>
			<point x="387" y="40"/>
			<point x="460" y="-16"/>
			<point x="554" y="-16" type="curve" smooth="yes"/>
			<point x="636" y="-16"/>
			<point x="702" y="17"/>
			<point x="741" y="94" type="curve"/>
			<point x="726" y="108" type="line"/>
			<point x="700" y="84"/>
			<point x="670" y="68"/>
			<point x="630" y="68" type="curve" smooth="yes"/>
			<point x="554" y="68"/>
			<point x="498" y="132"/>
			<point x="498" y="252" type="curve" smooth="yes"/>
			<point x="498" y="403"/>
			<point x="522" y="448"/>
			<point x="558" y="448" type="curve" smooth="yes"/>
			<point x="586" y="448"/>
			<point x="606" y="427"/>
			<point x="606" y="352" type="curve" smooth="yes"/>
			<point x="606" y="289"/>
			<point x="587" y="274"/>
			<point x="524" y="274" type="curve" smooth="yes"/>
			<point x="394" y="274" type="line"/>
			<point x="394" y="248" type="line"/>
			<point x="742" y="248" type="line"/>
			<point x="746" y="266"/>
			<point x="746" y="272"/>
			<point x="746" y="292" type="curve" smooth="yes"/>
			<point x="746" y="396"/>
			<point x="686" y="476"/>
			<point x="562" y="476" type="curve" smooth="yes"/>
			<point x="486" y="476"/>
			<point x="405" y="433"/>
			<point x="362" y="344" type="curve"/>
			<point x="464" y="344" type="line"/>
			<point x="427" y="427"/>
			<point x="362" y="476"/>
			<point x="264" y="476" type="curve" smooth="yes"/>
			<point x="122" y="476"/>
			<point x="28" y="371"/>
			<point x="28" y="230" type="curve" smooth="yes"/>
			<point x="28" y="88"/>
			<point x="107" y="-16"/>
		</contour>
	</outline>
	<anchor name="aboveLC" x="408" y="480"/>
</glyph>
<glyph name="Tbar" format="2">
	<unicode hex="0166"/>
	<advance width="584"/>
	<outline>
		<contour>
			<point x="60" y="321" type="line"/>
			<point x="524" y="321" type="line"/>
			<point x="524" y="347" type="line"/>
			<point x="60" y="347" type="line"/>
		</contour>
		<component base="T"/>
	</outline>
</glyph>
<glyph name="tbar" format="2">
	<unicode hex="0167"/>
	<advance width="352"/>
	<outline>
		<contour>
			<point x="16" y="249" type="line"/>
			<point x="324" y="249" type="line"/>
			<point x="324" y="277" type="line"/>
			<point x="16" y="277" type="line"/>
		</contour>
		<component base="t"/>
	</outline>
</glyph>
<glyph name="Uogonek" format="2">
	<unicode hex="0172"/>
	<advance width="732"/>
	<outline>
		<contour>
			<point x="560" y="617" type="line"/>
			<point x="578" y="617" type="line"/>
			<point x="646" y="628" type="line"/>
			<point x="646" y="652" type="line"/>
			<point x="488" y="652" type="line"/>
			<point x="488" y="628" type="line"/>
		</contour>
		<contour>
			<point x="356" y="628" type="line"/>
			<point x="356" y="652" type="line"/>
			<point x="68" y="652" type="line"/>
			<point x="68" y="628" type="line"/>
			<point x="168" y="612" type="line"/>
			<point x="256" y="612" type="line"/>
		</contour>
		<contour>
			<point x="457" y="4" type="line"/>
			<point x="378" y="-26"/>
			<point x="314" y="-66"/>
			<point x="314" y="-131" type="curve" smooth="yes"/>
			<point x="314" y="-186"/>
			<point x="350" y="-224"/>
			<point x="420" y="-224" type="curve" smooth="yes"/>
			<point x="481" y="-224"/>
			<point x="530" y="-194"/>
			<point x="552" y="-155" type="curve"/>
			<point x="541" y="-140" type="line"/>
			<point x="527" y="-146"/>
			<point x="512" y="-152"/>
			<point x="486" y="-152" type="curve" smooth="yes"/>
			<point x="442" y="-152"/>
			<point x="414" y="-129"/>
			<point x="414" y="-89" type="curve" smooth="yes"/>
			<point x="414" y="-54"/>
			<point x="440" y="-17"/>
			<point x="487" y="12" type="curve" smooth="yes"/>
			<point x="553" y="52"/>
			<point x="586" y="131"/>
			<point x="586" y="268" type="curve" smooth="yes"/>
			<point x="586" y="652" type="line"/>
			<point x="554" y="652" type="line"/>
			<point x="554" y="253" type="line" smooth="yes"/>
			<point x="554" y="122"/>
			<point x="501" y="72"/>
			<point x="422" y="72" type="curve" smooth="yes"/>
			<point x="336" y="72"/>
			<point x="296" y="119"/>
			<point x="296" y="256" type="curve" smooth="yes"/>
			<point x="296" y="348" type="line" smooth="yes"/>
			<point x="296" y="450"/>
			<point x="297" y="574"/>
			<point x="301" y="652" type="curve"/>
			<point x="123" y="652" type="line"/>
			<point x="127" y="574"/>
			<point x="128" y="450"/>
			<point x="128" y="348" type="curve" smooth="yes"/>
			<point x="128" y="214" type="line" smooth="yes"/>
			<point x="128" y="41"/>
			<point x="232" y="-16"/>
			<point x="361" y="-16" type="curve" smooth="yes"/>
			<point x="397" y="-16"/>
			<point x="428" y="-11"/>
			<point x="455" y="-2" type="curve"/>
		</contour>
	</outline>
	<anchor name="aboveUC" x="422" y="682"/>
	<anchor name="belowLC" x="386" y="-22"/>
	<anchor name="hornLC" x="617" y="681"/>
	<anchor name="aboveUC" x="422" y="682"/>
	<anchor name="belowLC" x="386" y="-22"/>
	<anchor name="hornLC" x="617" y="681"/>
</glyph>
<glyph name="uogonek" format="2">
	<unicode hex="0173"/>
	<advance width="564"/>
	<outline>
		<contour>
			<point x="324" y="-135" type="curve" smooth="yes"/>
			<point x="324" y="-190"/>
			<point x="360" y="-228"/>
			<point x="430" y="-228" type="curve" smooth="yes"/>
			<point x="491" y="-228"/>
			<point x="540" y="-198"/>
			<point x="562" y="-159" type="curve"/>
			<point x="551" y="-144" type="line"/>
			<point x="537" y="-150"/>
			<point x="522" y="-156"/>
			<point x="496" y="-156" type="curve" smooth="yes"/>
			<point x="452" y="-156"/>
			<point x="424" y="-133"/>
			<point x="424" y="-93" type="curve" smooth="yes"/>
			<point x="424" y="-58"/>
			<point x="442" y="-17"/>
			<point x="489" y="12" type="curve"/>
			<point x="475" y="12" type="line"/>
			<point x="396" y="-18"/>
			<point x="324" y="-70"/>
		</contour>
		<component base="u"/>
	</outline>
	<anchor name="aboveLC" x="268" y="480"/>
	<anchor name="belowLC" x="268" y="-24"/>
	<anchor name="hornLC" x="453" y="471"/>
</glyph>
<glyph name="longs" format="2">
	<unicode hex="017F"/>
	<advance width="336"/>
	<outline>
		<contour>
			<point x="304" y="732" type="curve" smooth="yes"/>
			<point x="244" y="732"/>
			<point x="187" y="712"/>
			<point x="146" y="671" type="curve" smooth="yes"/>
			<point x="110" y="636"/>
			<point x="78" y="568"/>
			<point x="72" y="476" type="curve" smooth="yes"/>
			<point x="68" y="428" type="line"/>
			<point x="68" y="244" type="line"/>
			<point x="68" y="208" type="line" smooth="yes"/>
			<point x="68" y="140"/>
			<point x="68" y="54"/>
			<point x="62" y="0" type="curve"/>
			<point x="234" y="0" type="line"/>
			<point x="228" y="53"/>
			<point x="228" y="140"/>
			<point x="228" y="208" type="curve" smooth="yes"/>
			<point x="228" y="444" type="line"/>
			<point x="218" y="586"/>
			<point x="224" y="668"/>
			<point x="263" y="707" type="curve"/>
			<point x="307" y="707" type="line"/>
			<point x="340" y="707" type="line"/>
			<point x="340" y="713" type="line"/>
			<point x="252" y="713" type="line"/>
			<point x="274" y="671" type="line" smooth="yes"/>
			<point x="302" y="619"/>
			<point x="328" y="600"/>
			<point x="364" y="600" type="curve" smooth="yes"/>
			<point x="397" y="600"/>
			<point x="427" y="618"/>
			<point x="429" y="655" type="curve"/>
			<point x="418" y="702"/>
			<point x="359" y="732"/>
		</contour>
		<contour>
			<point x="20" y="0" type="line"/>
			<point x="304" y="0" type="line"/>
			<point x="304" y="24" type="line"/>
			<point x="208" y="40" type="line"/>
			<point x="100" y="40" type="line"/>
			<point x="20" y="24" type="line"/>
		</contour>
	</outline>
	<anchor name="aboveLC" x="297" y="740"/>
	<anchor name="belowLC" x="176" y="-22"/>
</glyph>
<glyph name="Schwa" format="2">
	<unicode hex="018F"/>
	<advance width="584"/>
	<outline>
		<contour>
			<point x="288" y="-16" type="curve" smooth="yes"/>
			<point x="436" y="-16"/>
			<point x="560" y="89"/>
			<point x="560" y="328" type="curve" smooth="yes"/>
			<point x="560" y="536"/>
			<point x="456" y="668"/>
			<point x="272" y="668" type="curve" smooth="yes"/>
			<point x="194" y="668"/>
			<point x="122" y="636"/>
			<point x="64" y="572" type="curve"/>
			<point x="76" y="556" type="line"/>
			<point x="133" y="594"/>
			<point x="178" y="608"/>
			<point x="228" y="608" type="curve" smooth="yes"/>
			<point x="340" y="608"/>
			<point x="380" y="513"/>
			<point x="380" y="320" type="curve" smooth="yes"/>
			<point x="380" y="114"/>
			<point x="356" y="12"/>
			<point x="288" y="12" type="curve" smooth="yes"/>
			<point x="218" y="12"/>
			<point x="196" y="122"/>
			<point x="196" y="248" type="curve" smooth="yes"/>
			<point x="196" y="277"/>
			<point x="199" y="307"/>
			<point x="204" y="332" type="curve"/>
			<point x="124" y="320" type="line"/>
			<point x="476" y="320" type="line"/>
			<point x="476" y="350" type="line"/>
			<point x="32" y="350" type="line"/>
			<point x="26" y="321"/>
			<point x="24" y="299"/>
			<point x="24" y="272" type="curve" smooth="yes"/>
			<point x="24" y="110"/>
			<point x="105" y="-16"/>
		</contour>
	</outline>
	<anchor name="aboveUC" x="296" y="682"/>
	<anchor name="belowLC" x="305" y="-22"/>
</glyph>
<glyph name="florin" format="2">
	<unicode hex="0192"/>
	<advance width="524"/>
	<outline>
		<contour>
			<point x="100" y="352" type="line"/>
			<point x="432" y="352" type="line"/>
			<point x="432" y="380" type="line"/>
			<point x="100" y="380" type="line"/>
		</contour>
		<contour>
			<point x="176" y="212" type="line" smooth="yes"/>
			<point x="170" y="114"/>
			<point x="164" y="8"/>
			<point x="152" y="-32" type="curve" smooth="yes"/>
			<point x="142" y="-67"/>
			<point x="123" y="-86"/>
			<point x="81" y="-100" type="curve"/>
			<point x="118" y="-96" type="line"/>
			<point x="111" y="-42" type="line" smooth="yes"/>
			<point x="103" y="20"/>
			<point x="74" y="36"/>
			<point x="40" y="36" type="curve" smooth="yes"/>
			<point x="13" y="36"/>
			<point x="-11" y="17"/>
			<point x="-11" y="-28" type="curve"/>
			<point x="4" y="-82"/>
			<point x="47" y="-108"/>
			<point x="121" y="-108" type="curve" smooth="yes"/>
			<point x="166" y="-108"/>
			<point x="215" y="-92"/>
			<point x="245" y="-60" type="curve" smooth="yes"/>
			<point x="300" y="-1"/>
			<point x="319" y="74"/>
			<point x="328" y="228" type="curve" smooth="yes"/>
			<point x="336" y="364" type="line" smooth="yes"/>
			<point x="342" y="462"/>
			<point x="341" y="524"/>
			<point x="353" y="564" type="curve" smooth="yes"/>
			<point x="363" y="599"/>
			<point x="382" y="618"/>
			<point x="424" y="632" type="curve"/>
			<point x="391" y="628" type="line"/>
			<point x="398" y="574" type="line" smooth="yes"/>
			<point x="405" y="512"/>
			<point x="435" y="500"/>
			<point x="465" y="500" type="curve" smooth="yes"/>
			<point x="492" y="500"/>
			<point x="516" y="519"/>
			<point x="516" y="560" type="curve"/>
			<point x="501" y="614"/>
			<point x="458" y="640"/>
			<point x="384" y="640" type="curve" smooth="yes"/>
			<point x="339" y="640"/>
			<point x="290" y="624"/>
			<point x="260" y="592" type="curve" smooth="yes"/>
			<point x="212" y="541"/>
			<point x="190" y="477"/>
			<point x="184" y="360" type="curve" smooth="yes"/>
		</contour>
	</outline>
</glyph>
<glyph name="Uhorn" format="2">
	<unicode hex="01AF"/>
	<advance width="732"/>
	<outline>
		<contour>
			<point x="564" y="617" type="line"/>
			<point x="582" y="617" type="line"/>
			<point x="580" y="652" type="line"/>
			<point x="492" y="652" type="line"/>
			<point x="492" y="628" type="line"/>
		</contour>
		<contour>
			<point x="360" y="628" type="line"/>
			<point x="360" y="652" type="line"/>
			<point x="72" y="652" type="line"/>
			<point x="72" y="628" type="line"/>
			<point x="172" y="612" type="line"/>
			<point x="260" y="612" type="line"/>
		</contour>
		<contour>
			<point x="300" y="348" type="line" smooth="yes"/>
			<point x="300" y="450"/>
			<point x="301" y="574"/>
			<point x="305" y="652" type="curve"/>
			<point x="127" y="652" type="line"/>
			<point x="131" y="574"/>
			<point x="132" y="450"/>
			<point x="132" y="348" type="curve" smooth="yes"/>
			<point x="132" y="214" type="line" smooth="yes"/>
			<point x="132" y="41"/>
			<point x="236" y="-16"/>
			<point x="365" y="-16" type="curve" smooth="yes"/>
			<point x="517" y="-16"/>
			<point x="590" y="62"/>
			<point x="590" y="268" type="curve" smooth="yes"/>
			<point x="590" y="652" type="line"/>
			<point x="558" y="652" type="line"/>
			<point x="558" y="253" type="line" smooth="yes"/>
			<point x="558" y="122"/>
			<point x="505" y="72"/>
			<point x="426" y="72" type="curve" smooth="yes"/>
			<point x="340" y="72"/>
			<point x="300" y="119"/>
			<point x="300" y="256" type="curve" smooth="yes"/>
		</contour>
		<contour>
			<point x="565" y="617" type="line"/>
			<point x="647" y="617"/>
			<point x="703" y="640"/>
			<point x="703" y="735" type="curve" smooth="yes"/>
			<point x="703" y="751"/>
			<point x="698" y="775"/>
			<point x="692" y="786" type="curve"/>
			<point x="681" y="795"/>
			<point x="671" y="800"/>
			<point x="652" y="800" type="curve" smooth="yes"/>
			<point x="626" y="800"/>
			<point x="607" y="782"/>
			<point x="607" y="754" type="curve" smooth="yes"/>
			<point x="607" y="723"/>
			<point x="642" y="696"/>
			<point x="642" y="676" type="curve" smooth="yes"/>
			<point x="642" y="654"/>
			<point x="614" y="652"/>
			<point x="565" y="652" type="curve"/>
		</contour>
	</outline>
	<anchor name="aboveUC" x="402" y="682"/>
	<anchor name="belowLC" x="386" y="-22"/>
	<anchor name="aboveUC" x="402" y="682"/>
	<anchor name="belowLC" x="386" y="-22"/>
</glyph>
<glyph name="dotlessj" format="2">
	<unicode hex="0237"/>
	<advance width="288"/>
	<outline>
		<contour>
			<point x="24" y="-240" type="curve" smooth="yes"/>
			<point x="63" y="-240"/>
			<point x="122" y="-228"/>
			<point x="171" y="-179" type="curve" smooth="yes"/>
			<point x="211" y="-140"/>
			<point x="228" y="-101"/>
			<point x="228" y="-15" type="curve" smooth="yes"/>
			<point x="228" y="260" type="line"/>
			<point x="232" y="464" type="line"/>
			<point x="216" y="476" type="line"/>
			<point x="16" y="420" type="line"/>
			<point x="16" y="400" type="line"/>
			<point x="66" y="384" type="line"/>
			<point x="67" y="337"/>
			<point x="68" y="301"/>
			<point x="68" y="236" type="curve" smooth="yes"/>
			<point x="68" y="20" type="line" smooth="yes"/>
			<point x="68" y="-36"/>
			<point x="80" y="-130"/>
			<point x="80" y="-172" type="curve" smooth="yes"/>
			<point x="80" y="-206"/>
			<point x="55" y="-212"/>
			<point x="27" y="-212" type="curve"/>
			<point x="55" y="-226" type="line"/>
			<point x="92" y="-216" type="line"/>
			<point x="61" y="-174" type="line" smooth="yes"/>
			<point x="27" y="-127"/>
			<point x="-2" y="-115"/>
			<point x="-33" y="-115" type="curve" smooth="yes"/>
			<point x="-72" y="-115"/>
			<point x="-98" y="-139"/>
			<point x="-102" y="-174" type="curve"/>
			<point x="-89" y="-225"/>
			<point x="-34" y="-240"/>
		</contour>
	</outline>
	<anchor name="aboveLC" x="142" y="480"/>
</glyph>
<glyph name="schwa" format="2">
	<unicode hex="0259"/>
	<advance width="484"/>
	<outline>
		<contour>
			<point x="228" y="-16" type="curve" smooth="yes"/>
			<point x="343" y="-16"/>
			<point x="456" y="65"/>
			<point x="456" y="236" type="curve" smooth="yes"/>
			<point x="456" y="392"/>
			<point x="356" y="476"/>
			<point x="232" y="476" type="curve" smooth="yes"/>
			<point x="150" y="476"/>
			<point x="84" y="443"/>
			<point x="45" y="366" type="curve"/>
			<point x="60" y="352" type="line"/>
			<point x="86" y="376"/>
			<point x="116" y="392"/>
			<point x="156" y="392" type="curve" smooth="yes"/>
			<point x="232" y="392"/>
			<point x="288" y="328"/>
			<point x="288" y="208" type="curve" smooth="yes"/>
			<point x="288" y="57"/>
			<point x="264" y="12"/>
			<point x="228" y="12" type="curve" smooth="yes"/>
			<point x="200" y="12"/>
			<point x="180" y="33"/>
			<point x="180" y="124" type="curve" smooth="yes"/>
			<point x="180" y="203"/>
			<point x="199" y="218"/>
			<point x="262" y="218" type="curve" smooth="yes"/>
			<point x="392" y="218" type="line"/>
			<point x="392" y="244" type="line"/>
			<point x="36" y="244" type="line"/>
			<point x="32" y="226"/>
			<point x="32" y="220"/>
			<point x="32" y="200" type="curve" smooth="yes"/>
			<point x="32" y="64"/>
			<point x="96" y="-16"/>
		</contour>
	</outline>
	<anchor name="aboveLC" x="228" y="484"/>
	<anchor name="belowLC" x="228" y="-24"/>
</glyph>
<glyph name="gscript" format="2">
	<unicode hex="0261"/>
	<advance width="538"/>
	<outline>
		<contour>
			<point x="216" y="-240" type="curve" smooth="yes"/>
			<point x="286" y="-240"/>
			<point x="355" y="-223"/>
			<point x="405" y="-184" type="curve" smooth="yes"/>
			<point x="454" y="-146"/>
			<point x="486" y="-89"/>
			<point x="486" y="-8" type="curve" smooth="yes"/>
			<point x="486" y="228" type="line"/>
			<point x="490" y="466" type="line"/>
			<point x="474" y="476" type="line"/>
			<point x="326" y="388" type="line"/>
			<point x="326" y="385" type="line"/>
			<point x="326" y="84" type="line"/>
			<point x="326" y="77" type="line"/>
			<point x="326" y="40"/>
			<point x="326" y="3"/>
			<point x="326" y="-34" type="curve" smooth="yes"/>
			<point x="326" y="-93"/>
			<point x="316" y="-133"/>
			<point x="300" y="-160" type="curve" smooth="yes"/>
			<point x="274" y="-203"/>
			<point x="234" y="-212"/>
			<point x="200" y="-212" type="curve" smooth="yes"/>
			<point x="167" y="-212"/>
			<point x="152" y="-202"/>
			<point x="126" y="-190" type="curve"/>
			<point x="197" y="-228" type="line"/>
			<point x="187" y="-158" type="line" smooth="yes"/>
			<point x="176" y="-83"/>
			<point x="149" y="-60"/>
			<point x="113" y="-60" type="curve" smooth="yes"/>
			<point x="79" y="-60"/>
			<point x="59" y="-75"/>
			<point x="48" y="-110" type="curve"/>
			<point x="48" y="-180"/>
			<point x="113" y="-240"/>
		</contour>
		<contour>
			<point x="198" y="-16" type="curve" smooth="yes"/>
			<point x="265" y="-16"/>
			<point x="312" y="24"/>
			<point x="341" y="94" type="curve"/>
			<point x="349" y="94" type="line"/>
			<point x="342" y="112" type="line"/>
			<point x="323" y="85"/>
			<point x="301" y="64"/>
			<point x="275" y="64" type="curve" smooth="yes"/>
			<point x="229" y="64"/>
			<point x="198" y="100"/>
			<point x="198" y="224" type="curve" smooth="yes"/>
			<point x="198" y="353"/>
			<point x="232" y="396"/>
			<point x="275" y="396" type="curve" smooth="yes"/>
			<point x="305" y="396"/>
			<point x="318" y="383"/>
			<point x="342" y="352" type="curve"/>
			<point x="357" y="366" type="line"/>
			<point x="345" y="366" type="line"/>
			<point x="314" y="443"/>
			<point x="275" y="476"/>
			<point x="219" y="476" type="curve" smooth="yes"/>
			<point x="107" y="476"/>
			<point x="30" y="375"/>
			<point x="30" y="215" type="curve" smooth="yes"/>
			<point x="30" y="66"/>
			<point x="94" y="-16"/>
		</contour>
	</outline>
	<anchor name="aboveLC" x="297" y="480"/>
	<anchor name="belowLC" x="257" y="-260"/>
</glyph>
<glyph name="h.sups" format="2">
	<unicode hex="02B0"/>
	<advance width="412"/>
	<outline>
		<contour>
			<point x="267" y="731" type="curve" smooth="yes"/>
			<point x="219" y="731"/>
			<point x="184" y="709"/>
			<point x="136" y="645" type="curve"/>
			<point x="161" y="663" type="line"/>
			<point x="117" y="663" type="line"/>
			<point x="117" y="617" type="line"/>
			<point x="142" y="617" type="line"/>
			<point x="168" y="650"/>
			<point x="197" y="669"/>
			<point x="221" y="669" type="curve" smooth="yes"/>
			<point x="247" y="669"/>
			<point x="255" y="655"/>
			<point x="255" y="611" type="curve" smooth="yes"/>
			<point x="255" y="406" type="line"/>
			<point x="366" y="406" type="line"/>
			<point x="366" y="619" type="line" smooth="yes"/>
			<point x="366" y="694"/>
			<point x="326" y="731"/>
		</contour>
		<contour>
			<point x="280" y="449" type="line"/>
			<point x="221" y="436" type="line"/>
			<point x="221" y="406" type="line"/>
			<point x="400" y="406" type="line"/>
			<point x="400" y="436" type="line"/>
			<point x="334" y="449" type="line"/>
		</contour>
		<contour>
			<point x="133" y="449" type="line"/>
			<point x="79" y="449" type="line"/>
			<point x="17" y="436" type="line"/>
			<point x="17" y="406" type="line"/>
			<point x="196" y="406" type="line"/>
			<point x="196" y="436" type="line"/>
		</contour>
		<contour>
			<point x="54" y="406" type="line"/>
			<point x="165" y="406" type="line"/>
			<point x="165" y="866" type="line"/>
			<point x="154" y="872" type="line"/>
			<point x="11" y="843" type="line"/>
			<point x="11" y="816" type="line"/>
			<point x="54" y="809" type="line"/>
		</contour>
	</outline>
</glyph>
<glyph name="j.sups" format="2">
	<unicode hex="02B2"/>
	<advance width="203"/>
	<outline>
		<contour>
			<point x="17" y="254" type="curve" smooth="yes"/>
			<point x="44" y="254"/>
			<point x="87" y="262"/>
			<point x="123" y="295" type="curve" smooth="yes"/>
			<point x="150" y="319"/>
			<point x="163" y="343"/>
			<point x="163" y="395" type="curve" smooth="yes"/>
			<point x="163" y="708" type="line"/>
			<point x="151" y="716" type="line"/>
			<point x="10" y="679" type="line"/>
			<point x="10" y="666" type="line"/>
			<point x="45" y="656" type="line"/>
			<point x="45" y="420" type="line" smooth="yes"/>
			<point x="45" y="388"/>
			<point x="54" y="326"/>
			<point x="55" y="300" type="curve" smooth="yes"/>
			<point x="56" y="277"/>
			<point x="37" y="273"/>
			<point x="17" y="273" type="curve"/>
			<point x="18" y="263" type="line"/>
			<point x="65" y="270" type="line"/>
			<point x="43" y="298" type="line" smooth="yes"/>
			<point x="18" y="330"/>
			<point x="-3" y="338"/>
			<point x="-25" y="338" type="curve" smooth="yes"/>
			<point x="-53" y="338"/>
			<point x="-72" y="322"/>
			<point x="-75" y="298" type="curve"/>
			<point x="-65" y="264"/>
			<point x="-25" y="254"/>
		</contour>
		<contour>
			<point x="104" y="764" type="curve" smooth="yes"/>
			<point x="137" y="764"/>
			<point x="165" y="787"/>
			<point x="165" y="819" type="curve" smooth="yes"/>
			<point x="165" y="851"/>
			<point x="137" y="873"/>
			<point x="104" y="873" type="curve" smooth="yes"/>
			<point x="71" y="873"/>
			<point x="43" y="851"/>
			<point x="43" y="819" type="curve" smooth="yes"/>
			<point x="43" y="787"/>
			<point x="71" y="764"/>
		</contour>
	</outline>
</glyph>
<glyph name="w.sups" format="2">
	<unicode hex="02B7"/>
	<advance width="525"/>
	<outline>
		<contour>
			<point x="133" y="408" type="line"/>
			<point x="195" y="408" type="line"/>
			<point x="270" y="628" type="line"/>
			<point x="252" y="623" type="line"/>
			<point x="326" y="408" type="line"/>
			<point x="386" y="408" type="line"/>
			<point x="490" y="706" type="line"/>
			<point x="467" y="706" type="line"/>
			<point x="398" y="497" type="line"/>
			<point x="410" y="497" type="line"/>
			<point x="343" y="706" type="line"/>
			<point x="274" y="706" type="line"/>
			<point x="205" y="497" type="line"/>
			<point x="218" y="497" type="line"/>
			<point x="153" y="706" type="line"/>
			<point x="25" y="706" type="line"/>
		</contour>
		<contour>
			<point x="6" y="690" type="line"/>
			<point x="52" y="679" type="line"/>
			<point x="141" y="679" type="line"/>
			<point x="196" y="690" type="line"/>
			<point x="196" y="706" type="line"/>
			<point x="6" y="706" type="line"/>
		</contour>
		<contour>
			<point x="229" y="690" type="line"/>
			<point x="285" y="682" type="line"/>
			<point x="330" y="679" type="line"/>
			<point x="386" y="690" type="line"/>
			<point x="386" y="706" type="line"/>
			<point x="229" y="706" type="line"/>
		</contour>
		<contour>
			<point x="416" y="690" type="line"/>
			<point x="472" y="682" type="line"/>
			<point x="478" y="682" type="line"/>
			<point x="519" y="690" type="line"/>
			<point x="519" y="706" type="line"/>
			<point x="416" y="706" type="line"/>
		</contour>
	</outline>
</glyph>
<glyph name="y.sups" format="2">
	<unicode hex="02B8"/>
	<advance width="351"/>
	<outline>
		<contour>
			<point x="74" y="254" type="curve" smooth="yes"/>
			<point x="125" y="254"/>
			<point x="157" y="285"/>
			<point x="180" y="345" type="curve" smooth="yes"/>
			<point x="320" y="706" type="line"/>
			<point x="297" y="706" type="line"/>
			<point x="220" y="499" type="line"/>
			<point x="161" y="349" type="line" smooth="yes"/>
			<point x="142" y="304"/>
			<point x="129" y="292"/>
			<point x="108" y="279" type="curve"/>
			<point x="118" y="269" type="line"/>
			<point x="131" y="282" type="line"/>
			<point x="119" y="298" type="line" smooth="yes"/>
			<point x="93" y="329"/>
			<point x="73" y="338"/>
			<point x="51" y="338" type="curve" smooth="yes"/>
			<point x="23" y="338"/>
			<point x="4" y="322"/>
			<point x="1" y="299" type="curve"/>
			<point x="10" y="264"/>
			<point x="47" y="254"/>
		</contour>
		<contour>
			<point x="6" y="690" type="line"/>
			<point x="52" y="679" type="line"/>
			<point x="150" y="679" type="line"/>
			<point x="205" y="690" type="line"/>
			<point x="205" y="706" type="line"/>
			<point x="6" y="706" type="line"/>
		</contour>
		<contour>
			<point x="242" y="690" type="line"/>
			<point x="298" y="682" type="line"/>
			<point x="304" y="682" type="line"/>
			<point x="345" y="690" type="line"/>
			<point x="345" y="706" type="line"/>
			<point x="242" y="706" type="line"/>
		</contour>
		<contour>
			<point x="172" y="360" type="line"/>
			<point x="199" y="425" type="line"/>
			<point x="229" y="497" type="line"/>
			<point x="150" y="706" type="line"/>
			<point x="25" y="706" type="line"/>
		</contour>
	</outline>
</glyph>
<glyph name="ringhalfrightmod" format="2">
	<unicode hex="02BE"/>
	<advance width="164"/>
	<outline>
		<contour>
			<point x="144" y="616" type="curve" smooth="yes"/>
			<point x="144" y="680"/>
			<point x="99" y="720"/>
			<point x="20" y="720" type="curve"/>
			<point x="20" y="672" type="line"/>
			<point x="54" y="672"/>
			<point x="76" y="649"/>
			<point x="76" y="616" type="curve" smooth="yes"/>
			<point x="76" y="583"/>
			<point x="54" y="560"/>
			<point x="20" y="560" type="curve"/>
			<point x="20" y="512" type="line"/>
			<point x="99" y="512"/>
			<point x="144" y="552"/>
		</contour>
	</outline>
</glyph>
<glyph name="ringhalfleftmod" format="2">
	<unicode hex="02BF"/>
	<advance width="174"/>
	<outline>
		<contour>
			<point x="20" y="616" type="curve" smooth="yes"/>
			<point x="20" y="552"/>
			<point x="65" y="512"/>
			<point x="144" y="512" type="curve"/>
			<point x="144" y="560" type="line"/>
			<point x="110" y="560"/>
			<point x="88" y="583"/>
			<point x="88" y="616" type="curve" smooth="yes"/>
			<point x="88" y="649"/>
			<point x="110" y="672"/>
			<point x="144" y="672" type="curve"/>
			<point x="144" y="720" type="line"/>
			<point x="65" y="720"/>
			<point x="20" y="680"/>
		</contour>
	</outline>
</glyph>
<glyph name="verticallinemod" format="2">
	<unicode hex="02C8"/>
	<advance width="160"/>
	<outline>
		<contour>
			<point x="30" y="524" type="line"/>
			<point x="132" y="524" type="line"/>
			<point x="140" y="720" type="line"/>
			<point x="22" y="720" type="line"/>
		</contour>
	</outline>
</glyph>
<glyph name="colontriangularmod" format="2">
	<unicode hex="02D0"/>
	<advance width="274"/>
	<outline>
		<contour>
			<point x="40" y="490" type="line"/>
			<point x="130" y="334" type="line"/>
			<point x="144" y="334" type="line"/>
			<point x="234" y="490" type="line"/>
			<point x="227" y="503" type="line"/>
			<point x="47" y="503" type="line"/>
		</contour>
		<contour>
			<point x="40" y="13" type="line"/>
			<point x="47" y="0" type="line"/>
			<point x="227" y="0" type="line"/>
			<point x="234" y="13" type="line"/>
			<point x="144" y="169" type="line"/>
			<point x="130" y="169" type="line"/>
		</contour>
	</outline>
</glyph>
<glyph name="l.sups" format="2">
	<unicode hex="02E1"/>
	<advance width="205"/>
	<outline>
		<contour>
			<point x="13" y="408" type="line"/>
			<point x="192" y="408" type="line"/>
			<point x="192" y="424" type="line"/>
			<point x="140" y="435" type="line"/>
			<point x="68" y="435" type="line"/>
			<point x="13" y="424" type="line"/>
		</contour>
		<contour>
			<point x="45" y="408" type="line"/>
			<point x="163" y="408" type="line"/>
			<point x="163" y="864" type="line"/>
			<point x="151" y="872" type="line"/>
			<point x="10" y="837" type="line"/>
			<point x="10" y="824" type="line"/>
			<point x="45" y="814" type="line"/>
		</contour>
	</outline>
</glyph>
<glyph name="x.sups" format="2">
	<unicode hex="02E3"/>
	<advance width="361"/>
	<outline>
		<contour>
			<point x="12" y="415" type="line"/>
			<point x="119" y="415" type="line"/>
			<point x="119" y="431" type="line"/>
			<point x="65" y="439" type="line"/>
			<point x="60" y="439" type="line"/>
			<point x="12" y="431" type="line"/>
		</contour>
		<contour>
			<point x="11" y="697" type="line"/>
			<point x="58" y="686" type="line"/>
			<point x="155" y="686" type="line"/>
			<point x="210" y="697" type="line"/>
			<point x="210" y="713" type="line"/>
			<point x="11" y="713" type="line"/>
		</contour>
		<contour>
			<point x="201" y="415" type="line"/>
			<point x="333" y="415" type="line"/>
			<point x="233" y="581" type="line"/>
			<point x="160" y="713" type="line"/>
			<point x="28" y="713" type="line"/>
			<point x="130" y="545" type="line"/>
		</contour>
		<contour>
			<point x="151" y="415" type="line"/>
			<point x="349" y="415" type="line"/>
			<point x="349" y="431" type="line"/>
			<point x="303" y="442" type="line"/>
			<point x="206" y="442" type="line"/>
			<point x="151" y="431" type="line"/>
		</contour>
		<contour>
			<point x="239" y="697" type="line"/>
			<point x="289" y="689" type="line"/>
			<point x="294" y="689" type="line"/>
			<point x="342" y="697" type="line"/>
			<point x="342" y="713" type="line"/>
			<point x="239" y="713" type="line"/>
		</contour>
		<contour>
			<point x="32" y="415" type="line"/>
			<point x="58" y="415" type="line"/>
			<point x="163" y="560" type="line"/>
			<point x="175" y="560" type="line"/>
			<point x="160" y="587" type="line"/>
		</contour>
		<contour>
			<point x="194" y="541" type="line"/>
			<point x="322" y="713" type="line"/>
			<point x="297" y="713" type="line"/>
			<point x="196" y="573" type="line"/>
			<point x="181" y="573" type="line"/>
		</contour>
	</outline>
</glyph>
<glyph name="gravecmb" format="2">
	<unicode hex="0300"/>
	<outline>
		<contour>
			<point x="50" y="546" type="line"/>
			<point x="38" y="568"/>
			<point x="26" y="592"/>
			<point x="-16" y="667" type="curve" smooth="yes"/>
			<point x="-41" y="711"/>
			<point x="-62" y="736"/>
			<point x="-94" y="736" type="curve" smooth="yes"/>
			<point x="-121" y="736"/>
			<point x="-147" y="717"/>
			<point x="-147" y="681" type="curve" smooth="yes"/>
			<point x="-147" y="650"/>
			<point x="-114" y="625"/>
			<point x="-73" y="596" type="curve" smooth="yes"/>
			<point x="-7" y="549"/>
			<point x="11" y="542"/>
			<point x="31" y="529" type="curve"/>
		</contour>
	</outline>
	<anchor name="_aboveLC" x="0" y="480"/>
	<anchor name="aboveLC" x="0" y="736"/>
</glyph>
<glyph name="acutecmb" format="2">
	<unicode hex="0301"/>
	<outline>
		<contour>
			<point x="-50" y="546" type="curve"/>
			<point x="-31" y="529" type="line"/>
			<point x="-11" y="542"/>
			<point x="7" y="549"/>
			<point x="73" y="596" type="curve" smooth="yes"/>
			<point x="114" y="625"/>
			<point x="147" y="650"/>
			<point x="147" y="681" type="curve" smooth="yes"/>
			<point x="147" y="717"/>
			<point x="121" y="736"/>
			<point x="94" y="736" type="curve" smooth="yes"/>
			<point x="62" y="736"/>
			<point x="41" y="711"/>
			<point x="16" y="667" type="curve" smooth="yes"/>
			<point x="-26" y="592"/>
			<point x="-38" y="568"/>
		</contour>
	</outline>
	<anchor name="_aboveLC" x="0" y="480"/>
	<anchor name="aboveLC" x="0" y="736"/>
</glyph>
<glyph name="tildecmb" format="2">
	<unicode hex="0303"/>
	<outline>
		<contour>
			<point x="-166" y="547" type="curve"/>
			<point x="-142" y="536" type="line"/>
			<point x="-127" y="565"/>
			<point x="-108" y="583"/>
			<point x="-79" y="583" type="curve" smooth="yes"/>
			<point x="-59" y="583"/>
			<point x="-39" y="570"/>
			<point x="-16" y="557" type="curve" smooth="yes"/>
			<point x="6" y="545"/>
			<point x="31" y="534"/>
			<point x="63" y="534" type="curve" smooth="yes"/>
			<point x="111" y="534"/>
			<point x="153" y="583"/>
			<point x="166" y="661" type="curve"/>
			<point x="142" y="672" type="line"/>
			<point x="127" y="643"/>
			<point x="108" y="625"/>
			<point x="79" y="625" type="curve" smooth="yes"/>
			<point x="58" y="625"/>
			<point x="37" y="639"/>
			<point x="12" y="653" type="curve" smooth="yes"/>
			<point x="-9" y="664"/>
			<point x="-33" y="674"/>
			<point x="-63" y="674" type="curve" smooth="yes"/>
			<point x="-111" y="674"/>
			<point x="-153" y="625"/>
		</contour>
	</outline>
	<anchor name="_aboveLC" x="0" y="492"/>
	<anchor name="aboveLC" x="0" y="684"/>
</glyph>
<glyph name="brevecmb" format="2">
	<unicode hex="0306"/>
	<outline>
		<contour>
			<point x="-149" y="672" type="line"/>
			<point x="-142" y="613"/>
			<point x="-101" y="535"/>
			<point x="0" y="535" type="curve"/>
			<point x="101" y="535"/>
			<point x="142" y="613"/>
			<point x="149" y="672" type="curve"/>
			<point x="121" y="682" type="line"/>
			<point x="98" y="635"/>
			<point x="56" y="605"/>
			<point x="0" y="605" type="curve"/>
			<point x="-56" y="605"/>
			<point x="-98" y="635"/>
			<point x="-121" y="682" type="curve"/>
		</contour>
	</outline>
	<anchor name="_aboveLC" x="0" y="480"/>
	<anchor name="aboveLC" x="0" y="682"/>
</glyph>
<glyph name="dotaccentcmb" format="2">
	<unicode hex="0307"/>
	<outline>
		<contour>
			<point x="0" y="532" type="curve" smooth="yes"/>
			<point x="46" y="532"/>
			<point x="84" y="566"/>
			<point x="84" y="614" type="curve" smooth="yes"/>
			<point x="84" y="662"/>
			<point x="46" y="696"/>
			<point x="0" y="696" type="curve" smooth="yes"/>
			<point x="-46" y="696"/>
			<point x="-84" y="662"/>
			<point x="-84" y="614" type="curve" smooth="yes"/>
			<point x="-84" y="566"/>
			<point x="-46" y="532"/>
		</contour>
	</outline>
	<anchor name="_aboveLC" x="0" y="520"/>
	<anchor name="aboveLC" x="0" y="740"/>
	<anchor name="_aboveLC" x="0" y="520"/>
	<anchor name="aboveLC" x="0" y="740"/>
</glyph>
<glyph name="dieresiscmb" format="2">
	<unicode hex="0308"/>
	<outline>
		<contour>
			<point x="-184" y="604" type="curve"/>
			<point x="-184" y="558"/>
			<point x="-149" y="532"/>
			<point x="-108" y="532" type="curve" smooth="yes"/>
			<point x="-67" y="532"/>
			<point x="-32" y="558"/>
			<point x="-32" y="604" type="curve"/>
			<point x="-32" y="650"/>
			<point x="-67" y="676"/>
			<point x="-108" y="676" type="curve"/>
			<point x="-149" y="676"/>
			<point x="-184" y="650"/>
		</contour>
		<contour>
			<point x="32" y="604" type="curve" smooth="yes"/>
			<point x="32" y="558"/>
			<point x="67" y="532"/>
			<point x="108" y="532" type="curve" smooth="yes"/>
			<point x="149" y="532"/>
			<point x="184" y="558"/>
			<point x="184" y="604" type="curve" smooth="yes"/>
			<point x="184" y="650"/>
			<point x="149" y="676"/>
			<point x="108" y="676" type="curve" smooth="yes"/>
			<point x="67" y="676"/>
			<point x="32" y="650"/>
		</contour>
	</outline>
	<anchor name="_aboveLC" x="0" y="520"/>
	<anchor name="aboveLC" x="0" y="730"/>
	<anchor name="_aboveLC" x="0" y="520"/>
	<anchor name="aboveLC" x="0" y="730"/>
</glyph>
<glyph name="hoicmb" format="2">
	<unicode hex="0309"/>
	<outline>
		<contour>
			<point x="-28" y="532" type="line"/>
			<point x="41" y="543"/>
			<point x="83" y="577"/>
			<point x="83" y="629" type="curve" smooth="yes"/>
			<point x="83" y="696"/>
			<point x="38" y="738"/>
			<point x="-53" y="748" type="curve"/>
			<point x="-62" y="658" type="line"/>
			<point x="-2" y="651"/>
			<point x="19" y="633"/>
			<point x="19" y="608" type="curve" smooth="yes"/>
			<point x="19" y="586"/>
			<point x="10" y="571"/>
			<point x="-37" y="556" type="curve"/>
		</contour>
	</outline>
	<anchor name="_aboveLC" x="0" y="480"/>
	<anchor name="aboveLC" x="0" y="748"/>
</glyph>
<glyph name="ringcmb" format="2">
	<unicode hex="030A"/>
	<outline>
		<contour>
			<point x="0" y="560" type="curve" smooth="yes"/>
			<point x="-41" y="560"/>
			<point x="-64" y="593"/>
			<point x="-64" y="628" type="curve"/>
			<point x="-64" y="663"/>
			<point x="-41" y="696"/>
			<point x="0" y="696" type="curve"/>
			<point x="41" y="696"/>
			<point x="64" y="663"/>
			<point x="64" y="628" type="curve"/>
			<point x="64" y="593"/>
			<point x="41" y="560"/>
		</contour>
		<contour>
			<point x="0" y="528" type="curve" smooth="yes"/>
			<point x="53" y="528"/>
			<point x="104" y="565"/>
			<point x="104" y="628" type="curve"/>
			<point x="104" y="693"/>
			<point x="53" y="728"/>
			<point x="0" y="728" type="curve"/>
			<point x="-53" y="728"/>
			<point x="-104" y="691"/>
			<point x="-104" y="628" type="curve"/>
			<point x="-104" y="563"/>
			<point x="-53" y="528"/>
		</contour>
	</outline>
	<anchor name="_aboveLC" x="0" y="480"/>
	<anchor name="aboveLC" x="0" y="728"/>
</glyph>
<glyph name="hungarumlautcmb" format="2">
	<unicode hex="030B"/>
	<outline>
		<contour>
			<point x="-73" y="675" type="line" smooth="yes"/>
			<point x="-60" y="731"/>
			<point x="-45" y="756"/>
			<point x="-6" y="756" type="curve" smooth="yes"/>
			<point x="24" y="756"/>
			<point x="40" y="736"/>
			<point x="40" y="712" type="curve" smooth="yes"/>
			<point x="40" y="692"/>
			<point x="29" y="669"/>
			<point x="5" y="638" type="curve" smooth="yes"/>
			<point x="-79" y="531" type="line"/>
			<point x="-104" y="542" type="line"/>
		</contour>
		<contour>
			<point x="79" y="675" type="line" smooth="yes"/>
			<point x="92" y="731"/>
			<point x="107" y="756"/>
			<point x="146" y="756" type="curve" smooth="yes"/>
			<point x="176" y="756"/>
			<point x="192" y="736"/>
			<point x="192" y="712" type="curve" smooth="yes"/>
			<point x="192" y="692"/>
			<point x="181" y="669"/>
			<point x="157" y="638" type="curve" smooth="yes"/>
			<point x="73" y="531" type="line"/>
			<point x="48" y="542" type="line"/>
		</contour>
	</outline>
	<anchor name="_aboveLC" x="0" y="520"/>
	<anchor name="aboveLC" x="0" y="800"/>
	<anchor name="_aboveLC" x="0" y="520"/>
	<anchor name="aboveLC" x="0" y="800"/>
</glyph>
<glyph name="horncmb" format="2">
	<unicode hex="031B"/>
	<outline>
		<contour>
			<point x="-10" y="349" type="line"/>
			<point x="79" y="359"/>
			<point x="163" y="408"/>
			<point x="163" y="512" type="curve" smooth="yes"/>
			<point x="163" y="536"/>
			<point x="160" y="557"/>
			<point x="151" y="573" type="curve"/>
			<point x="138" y="583"/>
			<point x="125" y="589"/>
			<point x="107" y="589" type="curve" smooth="yes"/>
			<point x="82" y="589"/>
			<point x="59" y="571"/>
			<point x="59" y="543" type="curve" smooth="yes"/>
			<point x="59" y="505.9227330136"/>
			<point x="94" y="486.8167013425"/>
			<point x="94" y="454" type="curve" smooth="yes"/>
			<point x="94" y="418"/>
			<point x="49" y="383"/>
			<point x="-12" y="374" type="curve"/>
		</contour>
	</outline>
	<anchor name="_hornLC" x="0" y="478"/>
</glyph>
